<svg width="23" height="32" viewBox="0 0 23 32" fill="none" xmlns="http://www.w3.org/2000/svg">
<path d="M21.2828 32H1.66494C0.746756 32 0 31.2532 0 30.3355V5.10982C0 4.19123 0.746756 3.44407 1.66494 3.44407H5.77029C5.91544 3.44407 6.03309 3.56213 6.03309 3.70727C6.03309 3.85242 6.03309 4.56925 5.77029 4.56925H1.66494C1.03665 4.56925 1 4.48112 1 5.10982V17.7802V30.3355C1 30.9634 1.03665 31.4744 1.66494 31.4744H21.2828C21.9107 31.4744 22 30.9634 22 30.3355V17.5V5.10982C22 4.48112 21.9107 3.97008 21.2828 3.97008H16.9988C16.8536 3.97008 16.736 3.85242 16.736 3.70727C16.736 3.56213 16.8536 3.44407 16.9988 3.44407H21.2828C22.2002 3.44407 22.947 4.19123 22.947 5.10982V30.3355C22.947 31.2532 22.2002 32 21.2828 32Z" fill="#090B0E"/>
<path d="M7.27514 9.43522C4.80481 9.57188 2.83624 11.6225 2.83624 14.124C2.83624 16.4415 4.56668 18.442 6.86072 18.7772C7.06813 18.8087 7.29536 18.8245 7.53835 18.8245C10.0398 18.8245 12.0909 16.8567 12.2271 14.3868H7.53835C7.39279 14.3868 7.27514 14.2691 7.27514 14.124V9.43522ZM7.53835 19.3501C7.26948 19.3501 7.01558 19.3323 6.78391 19.2971C4.23434 18.9248 2.31104 16.7007 2.31104 14.124C2.31104 11.2445 4.65562 8.90235 7.53835 8.90235C7.68349 8.90235 7.80115 9.02 7.80115 9.16515V13.8608H12.4972C12.6427 13.8608 12.7604 13.9784 12.7604 14.124C12.7604 17.0055 10.4178 19.3501 7.53835 19.3501Z" fill="#090B0E"/>
<path d="M9 12.9995H12.5C13 10.4995 11 9.49951 9 8.99951V10.9995V12.9995ZM13.3248 13.564H8.36477C8.21922 13.564 8.10156 13.4463 8.10156 13.3008V8.33746C8.10156 8.19232 8.21922 8.07466 8.36477 8.07466C11.2447 8.07466 13.588 10.4188 13.588 13.3008C13.588 13.4463 13.4704 13.564 13.3248 13.564Z" fill="#090B0E"/>
<path d="M6.06377 4.53592H16.6971V3.13338C16.6971 2.66357 16.4569 2.33608 16.2414 2.33608H14.1398C14.0424 2.33608 13.9522 2.2819 13.9074 2.19538C13.3587 1.14984 12.4151 0.52599 11.3829 0.52599C10.3503 0.52599 9.4066 1.14984 8.85755 2.19538C8.81227 2.2819 8.72251 2.33608 8.62507 2.33608H6.52388C6.30636 2.33608 6.06377 2.66357 6.06377 3.13338V4.53592ZM16.9603 5.06152H5.80097C5.65623 5.06152 5.53857 4.94387 5.53857 4.79872V3.13338C5.53857 2.39147 5.97119 1.81007 6.52388 1.81007H8.46981C9.12075 0.673563 10.1994 -1.66893e-05 11.3829 -1.66893e-05C12.5663 -1.66893e-05 13.6446 0.673563 14.2955 1.81007H16.2414C16.7917 1.81007 17.2231 2.39147 17.2231 3.13338V4.79872C17.2231 4.94387 17.1054 5.06152 16.9603 5.06152Z" fill="#090B0E"/>
<path d="M11.3828 1.91219C11.1851 1.91219 11.0245 2.07351 11.0245 2.27121C11.0245 2.46892 11.1851 2.63024 11.3828 2.63024C11.5801 2.63024 11.7406 2.46892 11.7406 2.27121C11.7406 2.07351 11.5801 1.91219 11.3828 1.91219ZM11.3828 3.15625C10.8956 3.15625 10.4985 2.75881 10.4985 2.27121C10.4985 1.78362 10.8956 1.38659 11.3828 1.38659C11.87 1.38659 12.2666 1.78362 12.2666 2.27121C12.2666 2.75881 11.87 3.15625 11.3828 3.15625Z" fill="#090B0E"/>
<path d="M1.77292 30.7596H20.6157V30.3194C20.6157 30.0772 20.416 29.8799 20.171 29.8799H18.7587C18.633 29.8799 18.525 29.7913 18.5008 29.6676C18.3298 28.7996 18.0096 27.9792 17.5482 27.23C17.4844 27.1261 17.4997 26.9923 17.5858 26.9062L18.5449 25.9472C18.7139 25.7786 18.7139 25.4931 18.5449 25.3245L17.1662 23.9414C17.002 23.7797 16.7069 23.778 16.5391 23.9426L15.627 24.8579C15.5392 24.9469 15.401 24.961 15.2962 24.8919C14.5382 24.3934 13.7041 24.0384 12.8162 23.8375C12.6969 23.8104 12.6116 23.704 12.6116 23.5811V22.3148C12.6116 22.0727 12.4119 21.875 12.1669 21.875H10.2177C9.97512 21.875 9.77823 22.0727 9.77823 22.3148V23.5811C9.77823 23.704 9.69292 23.8108 9.57284 23.8375C8.67972 24.0388 7.84523 24.3934 7.0916 24.8915C6.98729 24.9602 6.84941 24.9465 6.76087 24.8579L5.84511 23.9414C5.68177 23.7784 5.38581 23.778 5.22207 23.9418L3.83933 25.3245C3.67074 25.4931 3.67074 25.7786 3.83933 25.9472L4.79835 26.9062C4.88407 26.9923 4.89984 27.1253 4.83677 27.2292C4.37464 27.9869 4.05362 28.8072 3.88381 29.668C3.85955 29.7913 3.7516 29.8799 3.62586 29.8799H2.2132C1.97062 29.8799 1.77292 30.0772 1.77292 30.3194V30.7596ZM20.8785 31.2856H1.51012C1.36497 31.2856 1.24731 31.168 1.24731 31.0224V30.3194C1.24731 29.7873 1.68073 29.3539 2.2132 29.3539H3.41279C3.58866 28.5764 3.88057 27.8312 4.28245 27.1334L3.46778 26.3191C3.09136 25.9423 3.09136 25.329 3.46778 24.9526L4.85051 23.5698C5.21317 23.2084 5.85481 23.2084 6.21667 23.5698L6.98324 24.3368C7.68229 23.9009 8.44442 23.5775 9.25222 23.3737V22.3148C9.25222 21.7824 9.68524 21.3494 10.2177 21.3494H12.1669C12.7018 21.3494 13.1372 21.7824 13.1372 22.3148V23.3737C13.9406 23.5779 14.7015 23.9009 15.4042 24.3372L16.1687 23.5702C16.5354 23.2072 17.1698 23.2076 17.5365 23.5682L18.9168 24.953C19.2936 25.329 19.2936 25.9423 18.9168 26.3191L18.1025 27.133C18.504 27.8252 18.7955 28.5703 18.9718 29.3539H20.171C20.7059 29.3539 21.1413 29.7873 21.1413 30.3194V31.0224C21.1413 31.168 21.0237 31.2856 20.8785 31.2856Z" fill="#090B0E"/>
<path d="M7.58517 30.7596H14.7993C14.5389 28.9948 13.0061 27.6501 11.1928 27.6501C9.3795 27.6501 7.84636 28.9944 7.58517 30.7596ZM15.0997 31.2856C15.0976 31.2856 15.0944 31.2856 15.0916 31.2856H7.29245C7.21968 31.2856 7.15014 31.2553 7.10041 31.202C7.05068 31.1486 7.02521 31.077 7.03046 31.0047C7.18127 28.8287 9.00955 27.1241 11.1928 27.1241C13.3547 27.1241 15.1672 28.7943 15.3487 30.9383C15.358 30.965 15.3625 30.9929 15.3625 31.0224C15.3625 31.168 15.2448 31.2856 15.0997 31.2856Z" fill="#090B0E"/>
<path d="M20.0784 19.3501H7.53835C7.3928 19.3501 7.27515 19.2324 7.27515 19.0873C7.27515 18.9422 7.3928 18.8245 7.53835 18.8245H20.0784C20.224 18.8245 20.3416 18.9422 20.3416 19.0873C20.3416 19.2324 20.224 19.3501 20.0784 19.3501Z" fill="#090B0E"/>
<path d="M14.9522 19.3704C14.8066 19.3704 14.689 19.2527 14.689 19.1076V14.8118C14.689 14.6662 14.8544 14.4993 15 14.4993C15 14.4993 15.5 14.6662 15.5 14.8118V16.9993V17.9993V19.1076C15.5 19.2527 15.0973 19.3704 14.9522 19.3704Z" fill="#090B0E"/>
<path d="M17.4916 19.4248C17.3464 19.4248 17.2288 19.3072 17.2288 19.1616V12.0154C17.2288 11.8699 17.3464 11.7522 17.4916 11.7522C17.6367 11.7522 17.7544 11.8699 17.7544 12.0154V19.1616C17.7544 19.3072 17.6367 19.4248 17.4916 19.4248Z" fill="#090B0E"/>
<path d="M19.5233 19.4053C19.3782 19.4053 19.2605 19.2876 19.2605 19.1425V13.1571C19.2605 13.0119 19.3782 12.8943 19.5233 12.8943C19.6688 12.8943 19.7865 13.0119 19.7865 13.1571V19.1425C19.7865 19.2876 19.6688 19.4053 19.5233 19.4053Z" fill="#090B0E"/>
</svg>
