<svg width="20" height="20" viewBox="0 0 20 20" fill="none" xmlns="http://www.w3.org/2000/svg">
<g clip-path="url(#clip0_721_5996)">
<path fill-rule="evenodd" clip-rule="evenodd" d="M9.99936 1.66797C14.6019 1.66797 18.3327 5.3988 18.3327 10.0013C18.3356 11.9245 17.6705 13.7891 16.451 15.2763L16.4677 15.2946L16.3577 15.388C15.5762 16.3123 14.6023 17.0549 13.5041 17.5639C12.4059 18.0728 11.2098 18.3359 9.99936 18.3346C7.54102 18.3346 5.33269 17.2705 3.80769 15.5788L3.64102 15.3871L3.53102 15.2955L3.54769 15.2755C2.32832 13.7885 1.66321 11.9243 1.66602 10.0013C1.66602 5.3988 5.39686 1.66797 9.99936 1.66797ZM9.99936 14.168C8.44936 14.168 7.04852 14.6613 6.00519 15.3388C7.1571 16.2035 8.55902 16.67 9.99936 16.668C11.4397 16.67 12.8416 16.2035 13.9935 15.3388C12.8012 14.5752 11.4152 14.1689 9.99936 14.168ZM9.99936 3.33464C8.74479 3.3346 7.51568 3.68856 6.45329 4.35584C5.3909 5.02312 4.53836 5.97663 3.99366 7.10678C3.44895 8.23692 3.23419 9.49783 3.37407 10.7446C3.51394 11.9913 4.00276 13.1733 4.78436 14.1546C6.13519 13.1855 7.97852 12.5013 9.99936 12.5013C12.0202 12.5013 13.8635 13.1855 15.2144 14.1546C15.996 13.1733 16.4848 11.9913 16.6247 10.7446C16.7645 9.49783 16.5498 8.23692 16.0051 7.10678C15.4604 5.97663 14.6078 5.02312 13.5454 4.35584C12.483 3.68856 11.2539 3.3346 9.99936 3.33464ZM9.99936 5.0013C10.8834 5.0013 11.7313 5.35249 12.3564 5.97761C12.9815 6.60273 13.3327 7.45058 13.3327 8.33464C13.3327 9.21869 12.9815 10.0665 12.3564 10.6917C11.7313 11.3168 10.8834 11.668 9.99936 11.668C9.1153 11.668 8.26746 11.3168 7.64233 10.6917C7.01721 10.0665 6.66602 9.21869 6.66602 8.33464C6.66602 7.45058 7.01721 6.60273 7.64233 5.97761C8.26746 5.35249 9.1153 5.0013 9.99936 5.0013ZM9.99936 6.66797C9.55733 6.66797 9.13341 6.84356 8.82085 7.15612C8.50829 7.46869 8.33269 7.89261 8.33269 8.33464C8.33269 8.77666 8.50829 9.20059 8.82085 9.51315C9.13341 9.82571 9.55733 10.0013 9.99936 10.0013C10.4414 10.0013 10.8653 9.82571 11.1779 9.51315C11.4904 9.20059 11.666 8.77666 11.666 8.33464C11.666 7.89261 11.4904 7.46869 11.1779 7.15612C10.8653 6.84356 10.4414 6.66797 9.99936 6.66797Z" fill="#090B0E"/>
</g>
<defs>
<clipPath id="clip0_721_5996">
<rect width="20" height="20" fill="white"/>
</clipPath>
</defs>
</svg>
