<svg width="32" height="32" viewBox="0 0 32 32" fill="none" xmlns="http://www.w3.org/2000/svg">
<g clip-path="url(#clip0_721_9632)">
<path d="M0 27V19C0 10.4364 3.98603 4.22974 12.1151 2.05174C13.0667 1.79674 14.001 2.51655 14.001 3.50168V5.62012C14.001 6.24868 13.6117 6.81593 13.0205 7.02949C8.89538 8.51949 6.50046 11.3716 6.50046 16H11.0008C12.6578 16 14.001 17.3431 14.001 19V27C14.001 28.6569 12.6578 30 11.0008 30H3.00021C1.34322 30 0 28.6569 0 27ZM21.0015 30H29.0021C30.6591 30 32.0023 28.6569 32.0023 27V19C32.0023 17.3431 30.6591 16 29.0021 16H24.5017C24.5017 11.3716 26.8967 8.51949 31.0218 7.02949C31.613 6.81593 32.0023 6.24868 32.0023 5.62012V3.50168C32.0023 2.51655 31.068 1.79674 30.1163 2.05174C21.9873 4.22974 18.0013 10.4364 18.0013 19V27C18.0013 28.6569 19.3445 30 21.0015 30Z" fill="#090B0E"/>
</g>
<defs>
<clipPath id="clip0_721_9632">
<rect width="32.0023" height="32" fill="white"/>
</clipPath>
</defs>
</svg>
