<svg width="33" height="32" viewBox="0 0 33 32" fill="none" xmlns="http://www.w3.org/2000/svg">
<g clip-path="url(#clip0_721_6067)">
<path d="M0.0332031 27V19C0.0332031 10.4364 4.01924 4.22974 12.1483 2.05174C13.0999 1.79674 14.0342 2.51655 14.0342 3.50168V5.62012C14.0342 6.24868 13.6449 6.81593 13.0537 7.02949C8.92859 8.51949 6.53367 11.3716 6.53367 16H11.034C12.691 16 14.0342 17.3431 14.0342 19V27C14.0342 28.6569 12.691 30 11.034 30H3.03342C1.37642 30 0.0332031 28.6569 0.0332031 27ZM21.0347 30H29.0353C30.6923 30 32.0355 28.6569 32.0355 27V19C32.0355 17.3431 30.6923 16 29.0353 16H24.535C24.535 11.3716 26.9299 8.51949 31.055 7.02949C31.6462 6.81593 32.0355 6.24868 32.0355 5.62012V3.50168C32.0355 2.51655 31.1012 1.79674 30.1495 2.05174C22.0205 4.22974 18.0345 10.4364 18.0345 19V27C18.0345 28.6569 19.3777 30 21.0347 30Z" fill="#090B0E"/>
</g>
<defs>
<clipPath id="clip0_721_6067">
<rect width="32.0023" height="32" fill="white" transform="translate(0.0332031)"/>
</clipPath>
</defs>
</svg>
