<svg width="34" height="38" viewBox="0 0 34 38" fill="none" xmlns="http://www.w3.org/2000/svg">
<path d="M13.5564 3.37046C18.6604 3.87174 22.4237 8.45682 21.9266 13.5575C21.429 18.6568 16.8448 22.4248 11.7446 21.9235C6.64067 21.4259 2.87734 16.8408 3.37354 11.7462C3.87528 6.64129 8.45572 2.87842 13.5564 3.37046Z" stroke="#090B0E" stroke-width="0.506593" stroke-miterlimit="10" stroke-linecap="round" stroke-linejoin="round"/>
<path d="M11.5196 24.2433C5.1 23.6158 0.429359 17.9291 1.05643 11.5137C1.68442 5.09925 7.36733 0.428148 13.7818 1.05614C20.1963 1.68413 24.872 7.36703 24.2436 13.7764C23.6202 20.1955 17.9336 24.8666 11.5196 24.2433ZM3.37372 11.7445C2.87753 16.8392 6.64085 21.4242 11.7448 21.9218C16.845 22.4231 21.4292 18.6552 21.9267 13.5558C22.4239 8.45515 18.6605 3.87007 13.5566 3.36878C8.45591 2.87675 3.87547 6.63962 3.37372 11.7445Z" stroke="#090B0E" stroke-width="0.506593" stroke-miterlimit="10" stroke-linecap="round" stroke-linejoin="round"/>
<path d="M11.7446 21.9235C6.64067 21.4259 2.87734 16.8408 3.37354 11.7462C3.87528 6.64129 8.45572 2.87842 13.5564 3.37046C18.6604 3.87174 22.4237 8.45682 21.9266 13.5575C21.429 18.6568 16.8448 22.4248 11.7446 21.9235Z" stroke="#090B0E" stroke-miterlimit="10" stroke-linecap="round" stroke-linejoin="round"/>
<path d="M13.7818 1.05614C7.36733 0.428148 1.68442 5.09925 1.05643 11.5137C0.429359 17.9291 5.1 23.6158 11.5196 24.2433C17.9336 24.8666 23.6202 20.1955 24.2436 13.7764C24.872 7.36703 20.1963 1.68413 13.7818 1.05614Z" stroke="#090B0E" stroke-miterlimit="10" stroke-linecap="round" stroke-linejoin="round"/>
<path d="M6.70997 17.7335C6.6887 17.7335 6.66651 17.7367 6.64524 17.7418C6.57633 17.7594 6.5176 17.8037 6.47968 17.8671C6.44361 17.9286 6.43298 18.0003 6.44963 18.0687C6.48107 18.189 6.58697 18.2727 6.70997 18.2727C6.73217 18.2727 6.75484 18.2694 6.77611 18.2634C6.84733 18.2458 6.90606 18.2019 6.94259 18.1413C6.98005 18.0793 6.98975 18.0068 6.97217 17.9374C6.94258 17.8199 6.83206 17.7335 6.70997 17.7335ZM6.70997 18.995C6.25586 18.995 5.86094 18.6875 5.74949 18.2472C5.68382 17.9915 5.72221 17.7247 5.86002 17.4958C5.99505 17.2687 6.211 17.1069 6.46719 17.0421C6.98744 16.9099 7.53914 17.2386 7.67279 17.7575C7.73892 18.0146 7.70007 18.2819 7.56503 18.5099C7.42862 18.7383 7.21266 18.8988 6.95416 18.964C6.876 18.9848 6.79229 18.995 6.70997 18.995Z" stroke="#090B0E" stroke-width="0.2" stroke-miterlimit="10"/>
<path d="M9.80755 19.5778C9.78535 19.5778 9.76224 19.5805 9.73866 19.5866C9.59761 19.6231 9.50835 19.7725 9.5435 19.913C9.58003 20.0532 9.73034 20.1424 9.87138 20.1091C9.94167 20.0911 10.0004 20.0481 10.0365 19.9856C10.0735 19.9232 10.0836 19.8511 10.0661 19.7822C10.0355 19.6601 9.93102 19.5778 9.80755 19.5778ZM9.80662 20.8407C9.35251 20.8407 8.95667 20.5322 8.84383 20.0915C8.7088 19.5644 9.02972 19.0233 9.56014 18.8864C10.0943 18.7491 10.6344 19.083 10.7676 19.6041C10.8319 19.8599 10.7939 20.1262 10.6589 20.3542C10.5229 20.5822 10.3065 20.7436 10.0499 20.8097C9.96987 20.8296 9.88755 20.8407 9.80662 20.8407Z" stroke="#090B0E" stroke-width="0.2" stroke-miterlimit="10"/>
<path d="M14.5952 11.5348C14.5716 11.5348 14.548 11.5376 14.5254 11.5432C14.4551 11.5607 14.3987 11.6023 14.3626 11.6639C14.3261 11.7258 14.3141 11.7989 14.3321 11.8696C14.3672 12.007 14.5152 12.0985 14.6618 12.0611C14.8065 12.0241 14.8898 11.8803 14.8533 11.7341C14.8227 11.6167 14.7173 11.5348 14.5952 11.5348ZM14.5924 12.7917C14.1374 12.7917 13.7411 12.4842 13.631 12.044C13.5677 11.7845 13.6074 11.5196 13.7411 11.2939C13.8775 11.0641 14.0948 10.9045 14.352 10.8421C14.4292 10.8218 14.5115 10.8116 14.5952 10.8116C15.047 10.8116 15.4415 11.1177 15.5529 11.5556C15.688 12.0865 15.3675 12.6266 14.8403 12.7607C14.7594 12.782 14.6761 12.7917 14.5924 12.7917Z" stroke="#090B0E" stroke-width="0.2" stroke-miterlimit="10"/>
<path d="M12.0181 15.8623C11.9968 15.8623 11.9742 15.8651 11.9534 15.8702C11.8068 15.9076 11.7184 16.0547 11.7536 16.2004C11.7892 16.3368 11.9381 16.4297 12.0833 16.3913C12.2257 16.3562 12.3136 16.2073 12.2785 16.0621C12.2493 15.9483 12.1383 15.8623 12.0181 15.8623ZM12.0167 17.1229C11.5608 17.1229 11.1654 16.8168 11.0525 16.3756C10.9221 15.8415 11.2463 15.3032 11.7744 15.17C11.8535 15.1502 11.9358 15.1386 12.0181 15.1386C12.4708 15.1386 12.8667 15.447 12.9795 15.8864C13.1085 16.42 12.7872 16.9583 12.2618 17.0933C12.1809 17.1127 12.0986 17.1229 12.0167 17.1229Z" stroke="#090B0E" stroke-width="0.2" stroke-miterlimit="10"/>
<path d="M15.1989 11.9341C15.0519 11.9341 14.9145 11.8444 14.8604 11.6987C14.7902 11.5114 14.8863 11.3043 15.0732 11.2349L19.2966 9.66723C19.482 9.5974 19.6911 9.69312 19.7604 9.88041C19.8293 10.0672 19.7345 10.2758 19.5477 10.3447L15.3243 11.9119C15.2831 11.9276 15.241 11.9341 15.1989 11.9341ZM12.3411 15.9504C12.2773 15.9504 12.2139 15.9347 12.1561 15.9C11.985 15.7982 11.9286 15.5758 12.0308 15.4051L13.9716 12.138C14.0738 11.966 14.2958 11.9105 14.4674 12.0118C14.6389 12.1131 14.6953 12.3364 14.5927 12.5066L12.6509 15.7742C12.5838 15.8879 12.4641 15.9504 12.3411 15.9504ZM10.1366 19.6517C10.0737 19.6517 10.0104 19.6355 9.95259 19.6013C9.78148 19.4991 9.72507 19.2781 9.82542 19.1074L11.3755 16.4984C11.4782 16.3273 11.6997 16.2699 11.8712 16.3717C12.0423 16.4734 12.0988 16.6954 11.998 16.8674L10.4479 19.4755C10.3803 19.5888 10.2601 19.6517 10.1366 19.6517ZM9.2492 19.8765C9.18723 19.8765 9.12388 19.8594 9.06515 19.8256L7.03367 18.6149C6.8621 18.5127 6.80568 18.2917 6.90788 18.1206C7.01054 17.949 7.23206 17.8926 7.40362 17.9953L9.4351 19.2046C9.6062 19.3068 9.66262 19.5278 9.56042 19.6998C9.49383 19.8127 9.37267 19.8765 9.2492 19.8765Z" stroke="#090B0E" stroke-width="0.2" stroke-miterlimit="10"/>
<path d="M20.0269 9.52392C20.0033 9.52392 19.9797 9.52715 19.958 9.5327C19.8873 9.55028 19.8295 9.59282 19.7934 9.65387C19.7568 9.71537 19.7467 9.78658 19.7629 9.85456C19.7994 9.99699 19.946 10.0876 20.0893 10.0511C20.2373 10.0141 20.322 9.86936 20.2854 9.72323C20.2558 9.60624 20.1494 9.52392 20.0269 9.52392ZM20.0232 10.7817C19.5691 10.7817 19.1746 10.4742 19.0632 10.0335C18.9971 9.7778 19.0359 9.51096 19.1732 9.28252C19.3097 9.055 19.527 8.89454 19.7841 8.83119C19.8618 8.81223 19.9446 8.80158 20.0269 8.80158C20.4792 8.80158 20.8736 9.10679 20.986 9.54472C21.1201 10.0751 20.7983 10.6167 20.2688 10.7508C20.1892 10.7711 20.1055 10.7817 20.0232 10.7817Z" stroke="#090B0E" stroke-width="0.2" stroke-miterlimit="10"/>
<path d="M19.1755 22.3043C19.7804 21.8983 20.3404 21.4367 20.8607 20.9225L22.5453 22.9771L20.8653 24.3589L19.1755 22.3043Z" stroke="#090B0E" stroke-width="0.506593" stroke-miterlimit="10" stroke-linecap="round" stroke-linejoin="round"/>
<path d="M28.242 35.9441L20.5087 25.6673C20.2284 25.3293 20.2738 24.8636 20.6164 24.5829L22.8172 22.7724C23.1598 22.4917 23.625 22.5371 23.9057 22.8765L32.4794 32.5341C32.9714 33.0488 33.2063 33.8529 33.1393 34.5484C32.9936 36.0167 31.6387 37.1321 30.1713 36.9874C29.3935 36.9157 28.7336 36.536 28.242 35.9441Z" stroke="#090B0E" stroke-width="0.506593" stroke-miterlimit="10" stroke-linecap="round" stroke-linejoin="round"/>
<path d="M33.1393 34.5484C32.9936 36.0167 31.6387 37.1321 30.1713 36.9874C29.3935 36.9157 28.7336 36.536 28.242 35.9441L20.5087 25.6673C20.2284 25.3293 20.2738 24.8636 20.6164 24.5829L22.8172 22.7724C23.1598 22.4917 23.625 22.5371 23.9057 22.8765L32.4794 32.5341C32.9714 33.0488 33.2063 33.8529 33.1393 34.5484Z" stroke="#090B0E" stroke-miterlimit="2.61313" stroke-linecap="round" stroke-linejoin="round"/>
<path d="M19.1755 22.3043L20.8653 24.3589L22.5453 22.9771L20.8607 20.9225C20.3404 21.4367 19.7804 21.8983 19.1755 22.3043Z" stroke="#090B0E" stroke-miterlimit="2.61313" stroke-linecap="round" stroke-linejoin="round"/>
</svg>
