<svg width="37" height="36" viewBox="0 0 37 36" fill="none" xmlns="http://www.w3.org/2000/svg">
<path d="M15.3048 36C6.86567 36 0 29.1362 0 20.6997C0 12.2601 6.86567 5.39395 15.3048 5.39395C19.0495 5.39395 22.6584 6.76627 25.4668 9.25783C25.5892 9.36616 25.6002 9.55367 25.4918 9.67566C25.3831 9.79764 25.196 9.80858 25.074 9.7007C22.374 7.30518 18.9047 5.98611 15.3048 5.98611C7.19203 5.98611 0.592156 12.5864 0.592156 20.6997C0.592156 28.8098 7.19203 35.4078 15.3048 35.4078C23.4149 35.4078 30.013 28.8098 30.013 20.6997C30.013 17.1581 28.7408 13.7444 26.4272 11.0698C26.3726 11.0534 26.3221 11.022 26.2825 10.9756C26.1778 10.85 26.1937 10.6638 26.3189 10.5587L26.3548 10.5282C26.4782 10.4258 26.6598 10.439 26.7672 10.5591C29.2419 13.3593 30.6051 16.9605 30.6051 20.6997C30.6051 29.1362 23.7413 36 15.3048 36Z" fill="#090B0E"/>
<path d="M28.5494 7.47106L31.0679 8.08144C31.2176 8.12423 31.3578 8.14425 31.4971 8.14425C31.8867 8.14425 32.2599 7.98541 32.5476 7.69729L35.1502 5.09513L31.9459 4.29586C31.8394 4.269 31.7565 4.18661 31.7301 4.0801L30.9309 0.874848L28.3282 3.47701C27.9286 3.87619 27.7875 4.41146 27.94 4.94491L28.5494 7.47106ZM31.4971 8.73596C31.3032 8.73596 31.1079 8.70819 30.9168 8.65357L28.234 8.00361C28.1266 7.97767 28.0419 7.89346 28.0165 7.78559L27.3678 5.09557C27.1607 4.37186 27.3624 3.60583 27.9095 3.05827L30.8822 0.0869589C30.9577 0.011857 31.067 -0.0186462 31.1703 0.0113945C31.2731 0.0396147 31.3528 0.121097 31.3783 0.224419L32.2613 3.76466L35.8006 4.64723C35.9044 4.67318 35.9854 4.75284 36.0141 4.85525C36.0423 4.95812 36.0137 5.06826 35.9386 5.14382L32.9663 8.11558C32.5667 8.51521 32.0447 8.73596 31.4971 8.73596Z" fill="#090B0E"/>
<path d="M15.3052 33.2227C8.39673 33.2227 2.77637 27.605 2.77637 20.6998C2.77637 13.7913 8.39673 8.17095 15.3052 8.17095C18.3015 8.17095 21.1986 9.2447 23.4631 11.1942C23.5869 11.3002 23.601 11.4877 23.494 11.6111C23.388 11.7353 23.2 11.7499 23.0771 11.642C20.9201 9.78542 18.1595 8.76313 15.3052 8.76313C8.72308 8.76313 3.36808 14.1177 3.36808 20.6998C3.36808 27.2787 8.72308 32.6309 15.3052 32.6309C21.885 32.6309 27.2377 27.2787 27.2377 20.6998C27.2377 17.8668 26.2309 15.1226 24.4025 12.972C24.2969 12.8477 24.3119 12.6611 24.4362 12.5551C24.5605 12.4495 24.7466 12.464 24.8531 12.5888C26.7726 14.8459 27.8299 17.7266 27.8299 20.6998C27.8299 27.605 22.2114 33.2227 15.3052 33.2227Z" fill="#090B0E"/>
<path d="M15.3047 30.1837C10.0749 30.1837 5.82007 25.9288 5.82007 20.6995C5.82007 15.4697 10.0749 11.2143 15.3047 11.2143C17.5214 11.2143 19.6761 11.995 21.3725 13.4119C21.4977 13.517 21.5145 13.7036 21.4098 13.8288C21.3052 13.954 21.1181 13.9708 20.9929 13.8661C19.403 12.5375 17.383 11.8065 15.3047 11.8065C10.4013 11.8065 6.41222 15.7956 6.41222 20.6995C6.41222 25.6025 10.4013 29.5915 15.3047 29.5915C20.2082 29.5915 24.1977 25.6025 24.1977 20.6995C24.1977 18.6194 23.4649 16.5953 22.1331 15.0013C22.028 14.8761 22.0452 14.6895 22.1704 14.5844C22.2956 14.4801 22.4822 14.4965 22.5873 14.6217C24.0075 16.3226 24.7899 18.481 24.7899 20.6995C24.7899 25.9288 20.5346 30.1837 15.3047 30.1837Z" fill="#090B0E"/>
<path d="M15.3045 27.068C11.7902 27.068 8.93091 24.2114 8.93091 20.6998C8.93091 17.185 11.7902 14.3252 15.3045 14.3252C16.7301 14.3252 18.1284 14.81 19.2417 15.6903C19.3701 15.7918 19.3914 15.9775 19.2904 16.1058C19.1893 16.2342 19.0023 16.256 18.8748 16.1541C17.8657 15.3566 16.5977 14.9174 15.3045 14.9174C12.1166 14.9174 9.52306 17.5114 9.52306 20.6998C9.52306 23.885 12.1166 26.4758 15.3045 26.4758C18.4902 26.4758 21.0815 23.885 21.0815 20.6998C21.0815 19.3685 20.6422 18.1163 19.8097 17.0799C19.7078 16.952 19.7283 16.7658 19.8553 16.6639C19.9827 16.5615 20.1693 16.5824 20.2713 16.7089C21.1889 17.8523 21.6736 19.2319 21.6736 20.6998C21.6736 24.2114 18.8166 27.068 15.3045 27.068Z" fill="#090B0E"/>
<path d="M32.2611 3.76429L32.9639 3.93862L34.3107 2.59134C34.5643 2.3369 34.5643 1.96776 34.3107 1.71333C34.0645 1.46708 33.6803 1.46708 33.4341 1.71333L32.0868 3.06153L32.2611 3.76429ZM33.0549 4.56218C33.0313 4.56218 33.0076 4.55901 32.9839 4.55309L31.9457 4.29593C31.8392 4.26953 31.7559 4.18669 31.73 4.07973L31.4719 3.0415C31.4473 2.94091 31.4765 2.83439 31.5497 2.76111L33.0153 1.29503C33.4846 0.825762 34.2598 0.825296 34.7295 1.29548C35.217 1.78341 35.217 2.52033 34.7295 3.00963L33.2643 4.47526C33.2079 4.53125 33.1323 4.56218 33.0549 4.56218ZM27.8879 7.25493C20.7847 14.3737 17.4665 18.1379 16.2117 19.8038C17.9622 18.4843 21.9676 14.9244 28.7723 8.13521L28.2334 8.00369C28.126 7.97729 28.0418 7.89308 28.0163 7.78566L27.8879 7.25493ZM15.3045 20.9958C15.2226 20.9958 15.1434 20.9617 15.087 20.9003C15.0164 20.8238 14.9909 20.7159 15.0209 20.6158C15.2909 19.7032 18.8006 15.5061 27.8424 6.46296C27.918 6.3874 28.029 6.35963 28.1319 6.38739C28.2348 6.41652 28.314 6.49937 28.3395 6.60315L28.5493 7.4716L29.4232 7.68552C29.5274 7.71146 29.6094 7.79067 29.6381 7.89354C29.6672 7.99641 29.638 8.10699 29.5625 8.18255C22.0063 15.7392 16.4329 20.766 15.3651 20.9899C15.345 20.9936 15.3245 20.9958 15.3045 20.9958Z" fill="#090B0E"/>
<path d="M15.3047 18.3524C14.0102 18.3524 12.9579 19.4052 12.9579 20.7002C12.9579 21.9915 14.0102 23.0415 15.3047 23.0415C16.5992 23.0415 17.6515 21.9915 17.6515 20.7002C17.6515 20.3187 17.5623 19.951 17.3907 19.6219C15.8277 20.8931 15.4945 20.9628 15.3652 20.9901C15.2637 21.0101 15.1586 20.9773 15.088 20.9013C15.0175 20.8258 14.9915 20.7188 15.0202 20.6191C15.0808 20.4061 15.2924 19.9682 16.3939 18.6191C16.0603 18.4439 15.6893 18.3524 15.3047 18.3524ZM15.3047 23.6337C13.6839 23.6337 12.3657 22.3178 12.3657 20.7002C12.3657 19.0789 13.6839 17.7603 15.3047 17.7603C15.921 17.7603 16.5104 17.9487 17.0093 18.3046C17.0762 18.3529 17.1199 18.4262 17.1308 18.5072C17.1413 18.5891 17.1172 18.6715 17.0648 18.7343C16.708 19.1654 16.4367 19.5085 16.2305 19.7812C16.5018 19.5773 16.8445 19.3073 17.2765 18.95C17.3402 18.8977 17.4217 18.8736 17.5036 18.885C17.5851 18.8954 17.6583 18.9396 17.7057 19.0065C18.0575 19.5003 18.2437 20.0857 18.2437 20.7002C18.2437 22.3178 16.9255 23.6337 15.3047 23.6337Z" fill="#090B0E"/>
</svg>
