<svg width="44" height="40" viewBox="0 0 44 40" fill="none" xmlns="http://www.w3.org/2000/svg">
<path d="M14.6938 33.8332H28.5446L28.083 32.5527H15.1554L14.6938 33.8332ZM29.0603 34.5439C29.0576 34.5439 29.0537 34.5439 29.0499 34.5439H14.189C14.0732 34.5439 13.9645 34.4877 13.8978 34.3932C13.8317 34.2981 13.8153 34.1768 13.8547 34.0687L14.5719 32.0774C14.6228 31.9359 14.7561 31.842 14.9057 31.842H28.3326C28.4829 31.842 28.6162 31.9359 28.667 32.0774L29.3564 33.9916C29.3941 34.0485 29.4159 34.1162 29.4159 34.1889C29.4159 34.385 29.257 34.5439 29.0603 34.5439Z" fill="#FD6543"/>
<path d="M31.2673 39.2893H32.5708L28.7319 28.5714H27.3973L31.2673 39.2893ZM33.075 40H31.0182C30.8691 40 30.7352 39.906 30.6844 39.7651L26.5577 28.3365C26.5183 28.2278 26.5347 28.1066 26.6008 28.012C26.6675 27.917 26.7762 27.8607 26.892 27.8607H28.9821C29.1318 27.8607 29.2657 27.9552 29.3165 28.0962L33.4093 39.5247C33.4481 39.6334 33.4317 39.7542 33.3651 39.8487C33.299 39.9432 33.1908 40 33.075 40Z" fill="#FD6543"/>
<path d="M10.666 39.2893H11.9711L15.84 28.5714H14.5059L10.666 39.2893ZM12.2202 40H10.1623C10.0465 40 9.93777 39.9432 9.87167 39.8487C9.80502 39.7542 9.78863 39.6334 9.82741 39.5247L13.9208 28.0962C13.9716 27.9552 14.1055 27.8607 14.2557 27.8607H16.3458C16.4617 27.8607 16.5698 27.917 16.6365 28.012C16.7026 28.1066 16.719 28.2278 16.6796 28.3365L12.554 39.7651C12.5037 39.906 12.3699 40 12.2202 40Z" fill="#FD6543"/>
<path d="M2.07255 4.6884V25.2324C2.07255 26.7315 3.2023 27.8618 4.70079 27.8618H38.5363C40.0348 27.8618 41.1645 26.7315 41.1645 25.2324V4.6884H2.07255ZM38.5363 28.5725H4.70079C2.79749 28.5725 1.36182 27.1368 1.36182 25.2324V4.33274C1.36182 4.13662 1.52079 3.97765 1.71746 3.97765H41.5196C41.7157 3.97765 41.8747 4.13662 41.8747 4.33274V25.2324C41.8747 27.1368 40.439 28.5725 38.5363 28.5725Z" fill="#FD6543"/>
<path d="M0.710734 3.97773H42.5282V2.69612H0.710734V3.97773ZM42.8833 4.68848H0.355093C0.158973 4.68848 0 4.52949 0 4.33282V2.34102C0 2.1449 0.158973 1.98593 0.355093 1.98593H42.8833C43.0794 1.98593 43.2384 2.1449 43.2384 2.34102V4.33282C43.2384 4.52949 43.0794 4.68848 42.8833 4.68848Z" fill="#FD6543"/>
<path d="M20.9757 1.98586H22.2584L22.2628 1.34615C22.2628 0.948987 22.0218 0.710808 21.6192 0.710808C21.2166 0.710808 20.9757 0.948977 20.9757 1.34887V1.98586ZM22.6113 2.69604H20.6206C20.4245 2.69604 20.2655 2.53707 20.2655 2.34095V1.34887C20.2655 0.55455 20.8222 6.10352e-05 21.6192 6.10352e-05C22.4163 6.10352e-05 22.9735 0.55455 22.9735 1.34887L22.9664 2.34367C22.9647 2.53815 22.8063 2.69604 22.6113 2.69604Z" fill="#FD6543"/>
<path d="M41.388 25.29C41.3869 25.29 41.3864 25.29 41.3853 25.29L40.668 25.2846C40.0802 25.2764 39.6038 24.7913 39.6038 24.2029L39.6131 23.0464C38.8609 22.8656 38.137 22.5777 37.4547 22.1876L36.6675 22.965C36.4648 23.1638 36.1971 23.2731 35.9114 23.2731C35.9081 23.2731 35.9054 23.2731 35.9016 23.2731C35.6153 23.2709 35.3487 23.1578 35.1504 22.9557L33.7491 21.5397C33.5487 21.3349 33.44 21.0644 33.4416 20.7782C33.4427 20.4897 33.5552 20.2209 33.7596 20.021L34.4981 19.2944C34.0786 18.5973 33.7672 17.8538 33.5711 17.0759L32.5604 17.0715C31.9688 17.0633 31.4897 16.5799 31.4897 15.9937L31.5061 13.9992C31.5061 13.7151 31.6186 13.4463 31.8229 13.2442C32.0283 13.0415 32.3113 12.941 32.5883 12.9355L33.5978 12.9404C33.8032 12.1625 34.1234 11.4223 34.5522 10.7339L33.8218 9.99918C33.4083 9.57907 33.4143 8.89728 33.8338 8.47717L35.2471 7.08139C35.4514 6.88199 35.7197 6.77218 36.0043 6.77218C36.0054 6.77218 36.007 6.77218 36.0081 6.77218C36.296 6.77327 36.5659 6.88583 36.7658 7.09014L37.5427 7.87681C38.231 7.49604 38.9587 7.21688 39.712 7.0448L39.7207 5.8861C39.7207 5.60312 39.8338 5.33432 40.0392 5.1311C40.2446 4.92842 40.5413 4.82902 40.8024 4.82191L41.5126 4.82792C41.7093 4.82956 41.8671 4.99016 41.8655 5.18573C41.8639 5.38076 41.7049 5.53864 41.5099 5.53864C41.5088 5.53864 41.5077 5.53864 41.5071 5.53864L40.7959 5.53263C40.7226 5.5381 40.6079 5.56814 40.538 5.63643C40.4692 5.70471 40.4315 5.79431 40.4315 5.88882L40.42 7.33707C40.4184 7.50642 40.2976 7.65172 40.131 7.68285C39.2679 7.84674 38.4375 8.16414 37.6639 8.62631C37.5235 8.70989 37.3443 8.68695 37.2291 8.57059L36.2594 7.58835C36.1927 7.52006 36.1026 7.48291 36.0054 7.48237C36.0054 7.48237 36.0048 7.48237 36.0043 7.48237C35.9065 7.48237 35.8153 7.51953 35.7459 7.58781L34.3348 8.98141C34.1911 9.12453 34.1868 9.35782 34.3266 9.49985L35.258 10.4367C35.3777 10.5569 35.3957 10.7454 35.3007 10.8858C34.7866 11.6484 34.4238 12.4859 34.2223 13.3753C34.1851 13.537 34.0414 13.6522 33.8759 13.6522C33.8754 13.6522 33.8748 13.6522 33.8743 13.6522L32.5828 13.6457C32.4927 13.6446 32.3911 13.6818 32.3222 13.7495C32.254 13.8167 32.2168 13.9068 32.2168 14.0024L32.1999 15.997C32.1999 16.1936 32.3643 16.3581 32.5664 16.3608L33.8552 16.3668C34.0218 16.3679 34.1654 16.4848 34.2004 16.6476C34.3911 17.5348 34.744 18.3777 35.2482 19.154C35.3405 19.2955 35.3198 19.4829 35.2001 19.6014L34.2567 20.5285C34.1889 20.5946 34.1518 20.6836 34.1518 20.7814C34.1512 20.8803 34.1878 20.9721 34.2556 21.0415L35.6563 22.4575C35.7235 22.5252 35.812 22.5624 35.9076 22.5635C35.9092 22.5635 35.9103 22.5635 35.9114 22.5635C36.0092 22.5635 36.1004 22.5263 36.1687 22.4591L37.1504 21.4894C37.2673 21.3747 37.4465 21.3545 37.5864 21.4397C38.3517 21.9117 39.1777 22.2395 40.0409 22.4138C40.2075 22.4477 40.3266 22.5941 40.3255 22.7645L40.3146 24.2051C40.3146 24.405 40.4768 24.5711 40.6757 24.5739L41.3908 24.5793C41.5869 24.5809 41.7442 24.741 41.7431 24.9371C41.7415 25.1327 41.5825 25.29 41.388 25.29Z" fill="#FD6543"/>
<path d="M41.4552 19.3875C41.4459 19.3875 41.4371 19.3869 41.4279 19.3864C39.1492 19.2165 37.3743 17.3028 37.3869 15.0296C37.406 12.7603 39.2039 10.8685 41.4803 10.7226C41.6715 10.7084 41.8452 10.8581 41.8573 11.0537C41.8704 11.2498 41.7218 11.4186 41.5262 11.4312C39.6185 11.5535 38.1129 13.1367 38.0976 15.0345C38.0867 16.9351 39.5726 18.5352 41.4814 18.6778C41.6764 18.6931 41.8234 18.863 41.8086 19.0586C41.795 19.2449 41.6393 19.3875 41.4552 19.3875Z" fill="#FD6543"/>
<path d="M10.4087 10.5881C7.12872 10.7733 4.51687 13.4994 4.51687 16.8247C4.51687 20.2702 7.31884 23.0732 10.7638 23.0732C14.0896 23.0732 16.8162 20.4608 17.0014 17.1798H10.7638C10.5677 17.1798 10.4087 17.0208 10.4087 16.8247V10.5881ZM10.7638 23.7839C6.92769 23.7839 3.80614 20.6619 3.80614 16.8247C3.80614 12.9886 6.92769 9.86757 10.7638 9.86757C10.9599 9.86757 11.1189 10.0265 11.1189 10.2232V16.469H17.3663C17.5625 16.469 17.7214 16.628 17.7214 16.8247C17.7214 20.6619 14.6004 23.7839 10.7638 23.7839Z" fill="#FD6543"/>
<path d="M12.2216 15.3733H18.1041C17.9255 12.2107 15.3841 9.66882 12.2216 9.49072V15.3733ZM18.4691 16.084H11.8665C11.6698 16.084 11.5109 15.925 11.5109 15.7289V9.12581C11.5109 8.92969 11.6698 8.77072 11.8665 8.77072C15.7026 8.77072 18.8242 11.8917 18.8242 15.7289C18.8242 15.925 18.6652 16.084 18.4691 16.084Z" fill="#FD6543"/>
<path d="M29.1209 23.7727H10.531C10.3348 23.7727 10.1759 23.6137 10.1759 23.4176C10.1759 23.2215 10.3348 23.0625 10.531 23.0625H29.1209C29.317 23.0625 29.476 23.2215 29.476 23.4176C29.476 23.6137 29.317 23.7727 29.1209 23.7727Z" fill="#FD6543"/>
<path d="M29.121 20.9878H16.136C15.9399 20.9878 15.7809 20.8288 15.7809 20.6321C15.7809 20.436 15.9399 20.277 16.136 20.277H29.121C29.3171 20.277 29.4761 20.436 29.4761 20.6321C29.4761 20.8288 29.3171 20.9878 29.121 20.9878Z" fill="#FD6543"/>
<path d="M29.1209 18.5889H17.3608C17.1647 18.5889 17.0057 18.4299 17.0057 18.2338C17.0057 18.0371 17.1647 17.8781 17.3608 17.8781H29.1209C29.3171 17.8781 29.476 18.0371 29.476 18.2338C29.476 18.4299 29.3171 18.5889 29.1209 18.5889Z" fill="#FD6543"/>
<path d="M29.1209 16.084H17.3608C17.1647 16.084 17.0057 15.925 17.0057 15.7289C17.0057 15.5322 17.1647 15.3733 17.3608 15.3733H29.1209C29.3171 15.3733 29.476 15.5322 29.476 15.7289C29.476 15.925 29.3171 16.084 29.1209 16.084Z" fill="#FD6543"/>
<path d="M29.121 13.6448H17.9782C17.7821 13.6448 17.6231 13.4858 17.6231 13.2897C17.6231 13.0936 17.7821 12.9346 17.9782 12.9346H29.121C29.3171 12.9346 29.4761 13.0936 29.4761 13.2897C29.4761 13.4858 29.3171 13.6448 29.121 13.6448Z" fill="#FD6543"/>
<path d="M29.1208 11.1018H16.1304C15.9343 11.1018 15.7753 10.9428 15.7753 10.7467C15.7753 10.55 15.9343 10.3911 16.1304 10.3911H29.1208C29.317 10.3911 29.4759 10.55 29.4759 10.7467C29.4759 10.9428 29.317 11.1018 29.1208 11.1018Z" fill="#FD6543"/>
</svg>
