<svg width="36" height="23" viewBox="0 0 36 23" fill="none" xmlns="http://www.w3.org/2000/svg">
<path d="M3.39769 17.8752H32.6014V1.78704C32.6014 1.12752 32.0652 0.591255 31.4061 0.591255H4.59348C3.93396 0.591255 3.39769 1.12752 3.39769 1.78704V17.8752ZM32.8971 18.467H3.10205C2.93876 18.467 2.8064 18.3347 2.8064 18.1714V1.78704C2.8064 0.801395 3.60829 -4.19617e-05 4.59348 -4.19617e-05H31.4061C32.3913 -4.19617e-05 33.1932 0.801395 33.1932 1.78704V18.1714C33.1932 18.3347 33.0608 18.467 32.8971 18.467Z" fill="#090B0E"/>
<path d="M4.88869 16.3855H31.11V2.08333H4.88869V16.3855ZM31.4061 16.9773H4.5935C4.43021 16.9773 4.29785 16.8449 4.29785 16.6811V1.78723C4.29785 1.62394 4.43021 1.49158 4.5935 1.49158H31.4061C31.5694 1.49158 31.7018 1.62394 31.7018 1.78723V16.6811C31.7018 16.8449 31.5694 16.9773 31.4061 16.9773Z" fill="#090B0E"/>
<path d="M0.591297 18.4668V20.0865C0.591297 20.9816 1.31996 21.7098 2.21554 21.7098H33.7849C34.6805 21.7098 35.4087 20.9816 35.4087 20.0865V18.4668H0.591297ZM33.7849 22.3015H2.21554C0.993833 22.3015 0 21.3078 0 20.0865V18.1711C0 18.0073 0.13236 17.875 0.295649 17.875H35.7043C35.8676 17.875 36 18.0073 36 18.1711V20.0865C36 21.3078 35.0066 22.3015 33.7849 22.3015Z" fill="#090B0E"/>
<path d="M17.9976 19.639C17.7506 19.639 17.55 19.8419 17.55 20.0912C17.55 20.3373 17.7506 20.5379 17.9976 20.5379C18.2464 20.5379 18.4488 20.3373 18.4488 20.0912C18.4488 19.8419 18.2464 19.639 17.9976 19.639ZM17.9976 21.1295C17.4249 21.1295 16.9583 20.6633 16.9583 20.0912C16.9583 19.5157 17.4249 19.0477 17.9976 19.0477C18.5725 19.0477 19.0405 19.5157 19.0405 20.0912C19.0405 20.6633 18.5725 21.1295 17.9976 21.1295Z" fill="#090B0E"/>
<path d="M22.5996 12.5122H25.5043C25.6739 11.9196 26.051 11.3211 26.585 10.8048C27.451 9.982 27.8713 8.82897 27.7394 7.63956C27.5456 5.88522 26.131 4.47065 24.3763 4.27689C24.3385 4.2778 24.2707 4.2728 24.2048 4.26643C24.1443 4.26143 24.0806 4.25733 24.0188 4.25779C23.9237 4.25779 23.8414 4.25869 23.7422 4.27461C21.9751 4.47111 20.5606 5.88567 20.3627 7.64001C20.2358 8.82806 20.6561 9.98155 21.5167 10.8039C22.0547 11.3193 22.4327 11.9182 22.5996 12.5122ZM25.7376 13.104H22.3654C22.2226 13.104 22.1002 13.0022 22.0743 12.8617C21.9738 12.3103 21.6304 11.7313 21.1077 11.231C20.1139 10.2808 19.6281 8.9486 19.7751 7.57588C20.0034 5.54727 21.6381 3.91347 23.6621 3.68878C23.8696 3.65421 24.0633 3.65921 24.2575 3.67786C24.3067 3.68241 24.3558 3.68696 24.4085 3.68696C26.4685 3.91302 28.1032 5.54727 28.3275 7.57497C28.4794 8.94905 27.9936 10.2822 26.9948 11.2315C26.4772 11.7322 26.1333 12.3127 26.0282 12.8638C26.0014 13.0031 25.8795 13.104 25.7376 13.104Z" fill="#090B0E"/>
<path d="M26.143 13.8186H21.9612C21.7979 13.8186 21.6655 13.6862 21.6655 13.523C21.6655 13.3597 21.7979 13.2273 21.9612 13.2273H26.143C26.3068 13.2273 26.4391 13.3597 26.4391 13.523C26.4391 13.6862 26.3068 13.8186 26.143 13.8186Z" fill="#090B0E"/>
<path d="M26.143 14.5448H21.9612C21.7979 14.5448 21.6655 14.4124 21.6655 14.2492C21.6655 14.0853 21.7979 13.953 21.9612 13.953H26.143C26.3068 13.953 26.4391 14.0853 26.4391 14.2492C26.4391 14.4124 26.3068 14.5448 26.143 14.5448Z" fill="#090B0E"/>
<path d="M26.143 15.267H21.9612C21.7979 15.267 21.6655 15.1348 21.6655 14.9715C21.6655 14.8077 21.7979 14.6753 21.9612 14.6753H26.143C26.3068 14.6753 26.4391 14.8077 26.4391 14.9715C26.4391 15.1348 26.3068 15.267 26.143 15.267Z" fill="#090B0E"/>
<path d="M24.0493 13.1082C24.0115 13.1082 23.9733 13.1003 23.936 13.0854C23.8487 13.049 23.7878 12.9752 23.7641 12.8901L22.1303 9.66812C22.0566 9.52257 22.1148 9.34473 22.2604 9.27059C22.4059 9.19691 22.5838 9.25603 22.6579 9.40068L23.9711 11.9909L24.601 9.46253C24.641 9.30516 24.798 9.21055 24.9599 9.24785C25.1182 9.28742 25.2146 9.44797 25.175 9.60672L24.3408 12.8784C24.3277 12.9312 24.3004 12.9802 24.2608 13.0195C24.2053 13.0758 24.1284 13.1082 24.0493 13.1082Z" fill="#090B0E"/>
<path d="M23.5355 9.44727C23.3408 9.44727 23.1234 9.37404 22.8933 9.1589C22.6645 8.94694 22.4457 9.00926 22.0691 9.21848C21.9317 9.2949 21.8226 9.35585 21.697 9.35585C21.5337 9.35585 21.4014 9.22349 21.4014 9.05974C21.4014 8.90873 21.5146 8.78456 21.6602 8.76682C21.6929 8.75363 21.7334 8.72862 21.7816 8.70178C22.0832 8.53303 22.7109 8.18371 23.2967 8.72634C23.5082 8.9242 23.6046 8.8778 23.8753 8.70451C24.0204 8.61172 24.1846 8.50711 24.3806 8.49528C24.8141 8.48436 25.49 8.80275 25.6232 8.86962C25.7688 8.94239 25.8284 9.11978 25.7551 9.26578C25.6828 9.41179 25.5041 9.47183 25.359 9.39814C25.0856 9.26169 24.623 9.07657 24.4138 9.08612C24.3729 9.0884 24.2651 9.15707 24.1937 9.20256C24.0408 9.30035 23.8116 9.44727 23.5355 9.44727Z" fill="#090B0E"/>
<path d="M22.6611 13.1037V14.2368C22.6611 14.859 23.1691 15.3652 23.7936 15.3652H24.3135C24.9358 15.3652 25.442 14.859 25.442 14.2368V13.1037H22.6611ZM24.3135 15.957H23.7936C22.8435 15.957 22.0693 15.1852 22.0693 14.2368V12.8081C22.0693 12.6443 22.2017 12.5119 22.3654 12.5119H25.7376C25.9009 12.5119 26.0333 12.6443 26.0333 12.8081V14.2368C26.0333 15.1852 25.2619 15.957 24.3135 15.957Z" fill="#090B0E"/>
<path d="M24.0542 3.71326C23.8904 3.71326 23.7581 3.5809 23.7581 3.41715V2.71488C23.7581 2.55159 23.8904 2.41923 24.0542 2.41923C24.2174 2.41923 24.3498 2.55159 24.3498 2.71488V3.41715C24.3498 3.5809 24.2174 3.71326 24.0542 3.71326Z" fill="#090B0E"/>
<path d="M26.5677 4.38501C26.5177 4.38501 26.4668 4.37227 26.4204 4.34498C26.2789 4.26357 26.2307 4.08254 26.3126 3.94154L26.6633 3.33478C26.7447 3.19332 26.9257 3.14465 27.0672 3.22652C27.2082 3.3084 27.2568 3.48897 27.175 3.63042L26.8243 4.23719C26.7692 4.33179 26.6701 4.38501 26.5677 4.38501Z" fill="#090B0E"/>
<path d="M28.4058 6.22607C28.3035 6.22607 28.2039 6.17286 28.1493 6.07779C28.0679 5.93588 28.1166 5.75531 28.258 5.67389L28.8693 5.32275C29.0121 5.24088 29.1923 5.29046 29.2728 5.43146C29.3542 5.57292 29.3055 5.75395 29.1641 5.83536L28.5528 6.1865C28.5064 6.21334 28.4554 6.22607 28.4058 6.22607Z" fill="#090B0E"/>
<path d="M29.7848 8.74084H29.0825C28.9192 8.74084 28.7869 8.60849 28.7869 8.4452C28.7869 8.28191 28.9192 8.14955 29.0825 8.14955H29.7848C29.9485 8.14955 30.0809 8.28191 30.0809 8.4452C30.0809 8.60849 29.9485 8.74084 29.7848 8.74084Z" fill="#090B0E"/>
<path d="M29.0162 11.6047C28.9666 11.6047 28.9157 11.592 28.8698 11.5651L28.2585 11.2149C28.1165 11.1339 28.0679 10.9534 28.1493 10.8115C28.2303 10.67 28.4113 10.6214 28.5523 10.7023L29.1636 11.0525C29.3055 11.1336 29.3542 11.3146 29.2728 11.456C29.2182 11.5514 29.1186 11.6047 29.0162 11.6047Z" fill="#090B0E"/>
<path d="M19.0923 11.6047C18.9895 11.6047 18.8904 11.5514 18.8354 11.4569C18.7539 11.315 18.8026 11.1344 18.9436 11.0525L19.5513 10.7023C19.6946 10.6214 19.8738 10.6705 19.9556 10.8106C20.0371 10.9525 19.9884 11.133 19.8474 11.2149L19.2397 11.5651C19.1929 11.592 19.1419 11.6047 19.0923 11.6047Z" fill="#090B0E"/>
<path d="M19.0258 8.74084H18.3235C18.1602 8.74084 18.0278 8.60849 18.0278 8.4452C18.0278 8.28191 18.1602 8.14955 18.3235 8.14955H19.0258C19.189 8.14955 19.3214 8.28191 19.3214 8.4452C19.3214 8.60849 19.189 8.74084 19.0258 8.74084Z" fill="#090B0E"/>
<path d="M19.699 6.22607C19.6485 6.22607 19.598 6.21334 19.5512 6.18605L18.9435 5.83491C18.8025 5.75304 18.7538 5.57246 18.8357 5.43101C18.9171 5.29001 19.0977 5.24088 19.2396 5.32321L19.8473 5.67435C19.9883 5.75622 20.0369 5.93679 19.9551 6.07825C19.9005 6.17286 19.8009 6.22607 19.699 6.22607Z" fill="#090B0E"/>
<path d="M21.5401 4.38501C21.4382 4.38501 21.3386 4.33225 21.284 4.23719L20.9329 3.63042C20.8515 3.48897 20.8997 3.30839 21.0411 3.22652C21.1821 3.14465 21.3636 3.19286 21.4446 3.33478L21.7957 3.94154C21.8776 4.08254 21.8289 4.26357 21.6879 4.34498C21.6411 4.37227 21.5906 4.38501 21.5401 4.38501Z" fill="#090B0E"/>
<path d="M8.48172 12.5853C8.48068 12.5878 8.47938 12.5903 8.47821 12.5927C8.43799 12.6667 8.413 12.7506 8.40571 12.8355L8.24184 14.8598C8.24118 14.8673 8.24535 14.8708 8.24886 14.8728L8.265 14.8807C8.26618 14.8807 8.26761 14.8805 8.26995 14.8789L9.99772 13.8073C10.0702 13.7628 10.1319 13.7042 10.1815 13.633C10.1828 13.6309 10.1844 13.6288 10.1861 13.627L14.0066 7.36985L12.3022 6.32973L8.48172 12.5853ZM8.265 15.0498C8.22778 15.0498 8.19159 15.0383 8.16022 15.0167C8.10373 14.9865 8.06664 14.9173 8.07328 14.8451L8.23715 12.8216C8.24457 12.7336 8.26709 12.6466 8.30262 12.5666C8.30418 12.5563 8.3077 12.5463 8.31316 12.5366L8.32201 12.5221L12.2019 6.16937C12.2262 6.12967 12.2782 6.11691 12.3181 6.14125L14.1671 7.26963C14.2069 7.29397 14.2195 7.34604 14.1952 7.386L10.3069 13.7535C10.3007 13.7638 10.2925 13.7723 10.2833 13.7788C10.2275 13.8474 10.1615 13.9052 10.0868 13.9512L8.36081 15.0217C8.33308 15.0398 8.2995 15.0498 8.265 15.0498Z" fill="#090B0E"/>
<path d="M12.727 5.64918L14.4206 6.68332L14.7287 6.17959C14.8644 5.95714 14.7939 5.66454 14.5712 5.52735L13.6861 4.98796C13.6113 4.94227 13.5261 4.91806 13.4394 4.91806C13.2729 4.91806 13.1215 5.00318 13.0343 5.14571L12.727 5.64918ZM14.4485 6.88416C14.4336 6.88416 14.4182 6.88012 14.4046 6.87179L12.5667 5.74953C12.5267 5.72519 12.5142 5.67326 12.5385 5.6333L12.8899 5.0576C13.008 4.86418 13.2136 4.74885 13.4394 4.74885C13.5572 4.74885 13.673 4.78165 13.7743 4.84361L14.6595 5.38313C14.9616 5.56913 15.0574 5.966 14.8731 6.26784L14.5209 6.84368C14.5048 6.86971 14.477 6.88416 14.4485 6.88416Z" fill="#090B0E"/>
<path d="M12.3919 6.18542L14.0948 7.22554L14.3373 6.82907L12.6336 5.78894L12.3919 6.18542ZM14.123 7.42651C14.1077 7.42651 14.0923 7.42222 14.0789 7.41402L12.2315 6.28565C12.1916 6.2613 12.1789 6.20924 12.2034 6.16941L12.5332 5.62859C12.5448 5.60932 12.5637 5.59566 12.5854 5.59032C12.6074 5.58498 12.6305 5.58862 12.6496 5.60034L14.4979 6.72884C14.517 6.74056 14.5308 6.75944 14.536 6.7813C14.5412 6.80304 14.5376 6.82607 14.5259 6.84521L14.1953 7.3859C14.1836 7.40517 14.1647 7.41883 14.1429 7.42417C14.1363 7.42573 14.1297 7.42651 14.123 7.42651Z" fill="#090B0E"/>
<path d="M8.82226 12.9883C8.80729 12.9883 8.79206 12.9842 8.77826 12.9759C8.73843 12.9516 8.72581 12.8994 8.75028 12.8595L12.6653 6.4518C12.6895 6.41198 12.7418 6.39935 12.7815 6.42369C12.8215 6.44803 12.8341 6.5001 12.8096 6.54006L8.89463 12.9478C8.87875 12.974 8.8509 12.9883 8.82226 12.9883Z" fill="#090B0E"/>
</svg>
