<svg width="39" height="36" viewBox="0 0 39 36" fill="none" xmlns="http://www.w3.org/2000/svg">
<path d="M13.2244 30.45H25.6901L25.2747 29.2975H13.6398L13.2244 30.45ZM26.1543 31.0896C26.1518 31.0896 26.1484 31.0896 26.1449 31.0896H12.7701C12.6659 31.0896 12.568 31.039 12.508 30.9539C12.4485 30.8684 12.4338 30.7592 12.4692 30.6618L13.1147 28.8697C13.1605 28.7424 13.2804 28.6578 13.4152 28.6578H25.4994C25.6346 28.6578 25.7545 28.7424 25.8003 28.8697L26.4208 30.5925C26.4547 30.6437 26.4743 30.7046 26.4743 30.77C26.4743 30.9465 26.3313 31.0896 26.1543 31.0896Z" fill="#090B0E"/>
<path d="M28.1407 35.3603H29.3138L25.8589 25.7143H24.6577L28.1407 35.3603ZM29.7676 36H27.9165C27.7823 36 27.6618 35.9154 27.6161 35.7886L23.902 25.5029C23.8666 25.4051 23.8814 25.2959 23.9409 25.2108C24.0009 25.1253 24.0987 25.0747 24.2029 25.0747H26.0841C26.2188 25.0747 26.3393 25.1597 26.385 25.2866L30.0685 35.5722C30.1035 35.6701 30.0887 35.7787 30.0287 35.8638C29.9692 35.9489 29.8719 36 29.7676 36Z" fill="#090B0E"/>
<path d="M9.59924 35.3603H10.7738L14.2558 25.7143H13.0552L9.59924 35.3603ZM10.998 36H9.14593C9.04169 36 8.94385 35.9489 8.88436 35.8638C8.82437 35.7787 8.80962 35.6701 8.84453 35.5722L12.5286 25.2866C12.5743 25.1597 12.6948 25.0747 12.83 25.0747H14.7111C14.8153 25.0747 14.9127 25.1253 14.9727 25.2108C15.0322 25.2959 15.0469 25.4051 15.0115 25.5029L11.2985 35.7886C11.2532 35.9154 11.1328 36 10.998 36Z" fill="#090B0E"/>
<path d="M1.86525 4.21939V22.709C1.86525 24.0582 2.88202 25.0754 4.23067 25.0754H34.6826C36.0313 25.0754 37.048 24.0582 37.048 22.709V4.21939H1.86525ZM34.6826 25.7151H4.23067C2.51769 25.7151 1.22559 24.423 1.22559 22.709V3.8993C1.22559 3.72279 1.36866 3.57971 1.54566 3.57971H37.3676C37.5441 3.57971 37.6872 3.72279 37.6872 3.8993V22.709C37.6872 24.423 36.3951 25.7151 34.6826 25.7151Z" fill="#090B0E"/>
<path d="M0.63966 3.57993H38.2754V2.42648H0.63966V3.57993ZM38.5949 4.2196H0.319584C0.143075 4.2196 0 4.07652 0 3.89952V2.1069C0 1.93039 0.143075 1.78731 0.319584 1.78731H38.5949C38.7714 1.78731 38.9145 1.93039 38.9145 2.1069V3.89952C38.9145 4.07652 38.7714 4.2196 38.5949 4.2196Z" fill="#090B0E"/>
<path d="M18.8782 1.78747H20.0326L20.0366 1.21173C20.0366 0.854284 19.8197 0.639923 19.4574 0.639923C19.095 0.639923 18.8782 0.854274 18.8782 1.21418V1.78747ZM20.3502 2.42664H18.5586C18.3821 2.42664 18.239 2.28356 18.239 2.10705V1.21418C18.239 0.49929 18.74 0.00025034 19.4574 0.00025034C20.1747 0.00025034 20.6762 0.49929 20.6762 1.21418L20.6698 2.1095C20.6683 2.28453 20.5258 2.42664 20.3502 2.42664Z" fill="#090B0E"/>
<path d="M37.2493 22.761C37.2484 22.761 37.2479 22.761 37.2469 22.761L36.6013 22.7561C36.0723 22.7487 35.6436 22.3121 35.6436 21.7826L35.6519 20.7417C34.9749 20.5789 34.3234 20.3199 33.7093 19.9688L33.0009 20.6684C32.8185 20.8474 32.5775 20.9458 32.3204 20.9458C32.3174 20.9458 32.315 20.9458 32.3115 20.9458C32.0539 20.9438 31.814 20.842 31.6355 20.6601L30.3744 19.3857C30.1939 19.2013 30.0961 18.9579 30.0975 18.7003C30.0985 18.4407 30.1998 18.1988 30.3837 18.0188L31.0484 17.3649C30.6708 16.7376 30.3906 16.0684 30.2141 15.3683L29.3045 15.3643C28.772 15.357 28.3408 14.9218 28.3408 14.3943L28.3556 12.5992C28.3556 12.3435 28.4569 12.1016 28.6407 11.9197C28.8256 11.7373 29.0803 11.6468 29.3296 11.6419L30.2382 11.6463C30.423 10.9462 30.7112 10.28 31.0971 9.66049L30.4397 8.99921C30.0676 8.62112 30.073 8.0075 30.4506 7.62941L31.7225 6.37321C31.9064 6.19375 32.1478 6.09491 32.404 6.09491C32.405 6.09491 32.4064 6.09491 32.4074 6.09491C32.6665 6.0959 32.9094 6.1972 33.0894 6.38108L33.7885 7.08908C34.408 6.74638 35.0629 6.49514 35.7409 6.34027L35.7488 5.29744C35.7488 5.04276 35.8506 4.80084 36.0354 4.61794C36.2203 4.43553 36.4873 4.34607 36.7223 4.33967L37.3615 4.34508C37.5385 4.34655 37.6806 4.49109 37.6791 4.66711C37.6776 4.84263 37.5345 4.98472 37.359 4.98472C37.358 4.98472 37.357 4.98472 37.3565 4.98472L36.7164 4.97932C36.6505 4.98424 36.5472 5.01128 36.4843 5.07273C36.4224 5.13419 36.3884 5.21483 36.3884 5.29989L36.3781 6.60332C36.3766 6.75573 36.268 6.88649 36.118 6.91452C35.3412 7.06202 34.5939 7.34768 33.8977 7.76363C33.7713 7.83886 33.61 7.8182 33.5063 7.71348L32.6336 6.82946C32.5736 6.768 32.4925 6.73457 32.405 6.73408C32.405 6.73408 32.4045 6.73408 32.404 6.73408C32.316 6.73408 32.2339 6.76752 32.1714 6.82898L30.9014 8.08321C30.7721 8.21203 30.7682 8.42199 30.8941 8.54982L31.7323 9.39302C31.84 9.50119 31.8563 9.67083 31.7707 9.79719C31.308 10.4836 30.9816 11.2373 30.8001 12.0377C30.7667 12.1832 30.6374 12.287 30.4884 12.287C30.4879 12.287 30.4874 12.287 30.4869 12.287L29.3247 12.2811C29.2435 12.2801 29.1521 12.3135 29.0901 12.3745C29.0287 12.435 28.9952 12.5161 28.9952 12.6021L28.98 14.3972C28.98 14.5742 29.128 14.7222 29.3099 14.7247L30.4698 14.7301C30.6197 14.7311 30.749 14.8363 30.7805 14.9828C30.9521 15.7813 31.2697 16.5399 31.7235 17.2386C31.8066 17.3659 31.7879 17.5346 31.6802 17.6413L30.8311 18.4756C30.7701 18.5351 30.7367 18.6152 30.7367 18.7032C30.7362 18.7922 30.7692 18.8748 30.8301 18.9373L32.0908 20.2117C32.1512 20.2727 32.2309 20.3061 32.3169 20.3071C32.3184 20.3071 32.3194 20.3071 32.3204 20.3071C32.4084 20.3071 32.4905 20.2736 32.5519 20.2131L33.4355 19.3404C33.5407 19.2372 33.702 19.219 33.8278 19.2957C34.5167 19.7205 35.2601 20.0155 36.0369 20.1724C36.1869 20.2028 36.2941 20.3346 36.2931 20.488L36.2832 21.7845C36.2832 21.9645 36.4292 22.114 36.6082 22.1164L37.2518 22.1213C37.4283 22.1228 37.5699 22.2669 37.5689 22.4434C37.5675 22.6194 37.4244 22.761 37.2493 22.761Z" fill="#090B0E"/>
<path d="M37.3094 17.449C37.3011 17.449 37.2932 17.4485 37.2849 17.448C35.2341 17.2951 33.6367 15.5728 33.648 13.5269C33.6652 11.4846 35.2833 9.78191 37.3321 9.65064C37.5041 9.63785 37.6605 9.77255 37.6713 9.94857C37.6831 10.1251 37.5494 10.277 37.3734 10.2883C35.6565 10.3985 34.3014 11.8233 34.2877 13.5314C34.2778 15.2419 35.6152 16.682 37.333 16.8103C37.5086 16.8241 37.6408 16.977 37.6276 17.153C37.6153 17.3206 37.4751 17.449 37.3094 17.449Z" fill="#090B0E"/>
<path d="M9.36784 9.52954C6.41587 9.69621 4.0652 12.1496 4.0652 15.1424C4.0652 18.2434 6.58697 20.7661 9.68742 20.7661C12.6807 20.7661 15.1346 18.415 15.3013 15.462H9.68742C9.51091 15.462 9.36784 15.3189 9.36784 15.1424V9.52954ZM9.68742 21.4058C6.23493 21.4058 3.42554 18.5959 3.42554 15.1424C3.42554 11.6899 6.23493 8.88103 9.68742 8.88103C9.86393 8.88103 10.007 9.02409 10.007 9.20109V14.8223H15.6297C15.8062 14.8223 15.9493 14.9654 15.9493 15.1424C15.9493 18.5959 13.1404 21.4058 9.68742 21.4058Z" fill="#090B0E"/>
<path d="M10.9993 13.8359H16.2936C16.1328 10.9897 13.8455 8.70193 10.9993 8.54165V13.8359ZM16.622 14.4756H10.6797C10.5027 14.4756 10.3596 14.3325 10.3596 14.156V8.21323C10.3596 8.03672 10.5027 7.89365 10.6797 7.89365C14.1322 7.89365 16.9416 10.7025 16.9416 14.156C16.9416 14.3325 16.7985 14.4756 16.622 14.4756Z" fill="#090B0E"/>
<path d="M26.2088 21.3953H9.47779C9.30128 21.3953 9.1582 21.2522 9.1582 21.0757C9.1582 20.8992 9.30128 20.7561 9.47779 20.7561H26.2088C26.3853 20.7561 26.5283 20.8992 26.5283 21.0757C26.5283 21.2522 26.3853 21.3953 26.2088 21.3953Z" fill="#090B0E"/>
<path d="M26.2087 18.8894H14.5222C14.3457 18.8894 14.2026 18.7463 14.2026 18.5693C14.2026 18.3928 14.3457 18.2497 14.5222 18.2497H26.2087C26.3852 18.2497 26.5283 18.3928 26.5283 18.5693C26.5283 18.7463 26.3852 18.8894 26.2087 18.8894Z" fill="#090B0E"/>
<path d="M26.2089 16.73H15.6248C15.4483 16.73 15.3052 16.5869 15.3052 16.4104C15.3052 16.2334 15.4483 16.0903 15.6248 16.0903H26.2089C26.3854 16.0903 26.5285 16.2334 26.5285 16.4104C26.5285 16.5869 26.3854 16.73 26.2089 16.73Z" fill="#090B0E"/>
<path d="M26.2089 14.4756H15.6248C15.4483 14.4756 15.3052 14.3325 15.3052 14.156C15.3052 13.979 15.4483 13.8359 15.6248 13.8359H26.2089C26.3854 13.8359 26.5285 13.979 26.5285 14.156C26.5285 14.3325 26.3854 14.4756 26.2089 14.4756Z" fill="#090B0E"/>
<path d="M26.209 12.28H16.1804C16.0039 12.28 15.8608 12.137 15.8608 11.9604C15.8608 11.7839 16.0039 11.6409 16.1804 11.6409H26.209C26.3855 11.6409 26.5286 11.7839 26.5286 11.9604C26.5286 12.137 26.3855 12.28 26.209 12.28Z" fill="#090B0E"/>
<path d="M26.2087 9.99146H14.5173C14.3408 9.99146 14.1978 9.84838 14.1978 9.67187C14.1978 9.49487 14.3408 9.35181 14.5173 9.35181H26.2087C26.3852 9.35181 26.5283 9.49487 26.5283 9.67187C26.5283 9.84838 26.3852 9.99146 26.2087 9.99146Z" fill="#090B0E"/>
</svg>
