<svg width="28" height="30" viewBox="0 0 28 30" fill="none" xmlns="http://www.w3.org/2000/svg">
<path d="M11.1082 2.59315C15.159 2.991 18.1458 6.63 17.7513 10.6782C17.3564 14.7254 13.7181 17.7158 9.67025 17.318C5.61945 16.9231 2.63264 13.2841 3.02646 9.24062C3.42467 5.18909 7.05999 2.20264 11.1082 2.59315Z" stroke="#155FFF" stroke-width="0.506593" stroke-miterlimit="10" stroke-linecap="round" stroke-linejoin="round"/>
<path d="M9.49156 19.1608C4.39659 18.6628 0.689682 14.1495 1.18736 9.05784C1.68577 3.96691 6.19609 0.259637 11.287 0.75805C16.378 1.25646 20.0889 5.76676 19.5901 10.8537C19.0954 15.9483 14.5821 19.6555 9.49156 19.1608ZM3.02651 9.24098C2.6327 13.2844 5.61951 16.9234 9.67031 17.3184C13.7182 17.7162 17.3564 14.7257 17.7513 10.6786C18.1459 6.63036 15.1591 2.99136 11.1083 2.59351C7.06005 2.203 3.42473 5.18944 3.02651 9.24098Z" stroke="#155FFF" stroke-width="0.506593" stroke-miterlimit="10" stroke-linecap="round" stroke-linejoin="round"/>
<path d="M9.67025 17.318C5.61945 16.9231 2.63264 13.2841 3.02646 9.24062C3.42467 5.18909 7.05999 2.20264 11.1082 2.59315C15.159 2.991 18.1458 6.63 17.7513 10.6782C17.3564 14.7254 13.7181 17.7158 9.67025 17.318Z" stroke="#155FFF" stroke-miterlimit="10" stroke-linecap="round" stroke-linejoin="round"/>
<path d="M11.287 0.75805C6.19609 0.259637 1.68577 3.96691 1.18736 9.05784C0.689682 14.1495 4.39659 18.6628 9.49156 19.1608C14.5821 19.6555 19.0954 15.9483 19.5901 10.8537C20.0889 5.76676 16.378 1.25646 11.287 0.75805Z" stroke="#155FFF" stroke-miterlimit="10" stroke-linecap="round" stroke-linejoin="round"/>
<path d="M5.67417 13.9929C5.65729 13.9929 5.63967 13.9955 5.62279 13.9995C5.5681 14.0135 5.52149 14.0487 5.49139 14.099C5.46277 14.1478 5.45433 14.2047 5.46754 14.259C5.4925 14.3544 5.57654 14.4209 5.67417 14.4209C5.69179 14.4209 5.70978 14.4183 5.72666 14.4135C5.78318 14.3996 5.8298 14.3647 5.85879 14.3166C5.88852 14.2674 5.89621 14.2098 5.88227 14.1548C5.85878 14.0615 5.77106 13.9929 5.67417 13.9929ZM5.67417 14.9941C5.31376 14.9941 5.00032 14.7501 4.91187 14.4007C4.85975 14.1977 4.89022 13.9859 4.99959 13.8042C5.10676 13.624 5.27816 13.4956 5.48148 13.4442C5.89438 13.3392 6.33225 13.6002 6.43832 14.012C6.4908 14.216 6.45997 14.4282 6.3528 14.6091C6.24453 14.7904 6.07313 14.9178 5.86797 14.9695C5.80594 14.9861 5.7395 14.9941 5.67417 14.9941Z" stroke="#155FFF" stroke-width="0.2" stroke-miterlimit="10"/>
<path d="M8.13297 15.4567C8.11536 15.4567 8.09701 15.4589 8.0783 15.4636C7.96635 15.4926 7.89551 15.6112 7.92341 15.7227C7.9524 15.8339 8.07169 15.9048 8.18363 15.8783C8.23942 15.864 8.28603 15.8299 8.31465 15.7804C8.34402 15.7308 8.3521 15.6736 8.33815 15.6189C8.31393 15.522 8.23097 15.4567 8.13297 15.4567ZM8.13224 16.459C7.77182 16.459 7.45766 16.2142 7.36811 15.8644C7.26094 15.446 7.51564 15.0166 7.93661 14.9079C8.36052 14.7989 8.78921 15.0639 8.89491 15.4776C8.94593 15.6805 8.91583 15.8919 8.80866 16.0729C8.70076 16.2538 8.529 16.3819 8.3253 16.4344C8.2618 16.4502 8.19647 16.459 8.13224 16.459Z" stroke="#155FFF" stroke-width="0.2" stroke-miterlimit="10"/>
<path d="M11.9327 9.07275C11.914 9.07275 11.8952 9.07495 11.8772 9.07936C11.8215 9.09331 11.7767 9.12633 11.748 9.17515C11.7191 9.22433 11.7095 9.28231 11.7238 9.33846C11.7517 9.44746 11.8692 9.52014 11.9855 9.49041C12.1004 9.46105 12.1665 9.34691 12.1375 9.23093C12.1132 9.13771 12.0296 9.07275 11.9327 9.07275ZM11.9305 10.0703C11.5693 10.0703 11.2548 9.82623 11.1674 9.47683C11.1171 9.27093 11.1487 9.06064 11.2548 8.88153C11.363 8.69912 11.5355 8.5725 11.7396 8.52295C11.8009 8.5068 11.8662 8.49872 11.9327 8.49872C12.2912 8.49872 12.6043 8.74168 12.6928 9.08925C12.7999 9.51059 12.5456 9.93927 12.1272 10.0457C12.063 10.0626 11.9969 10.0703 11.9305 10.0703Z" stroke="#155FFF" stroke-width="0.2" stroke-miterlimit="10"/>
<path d="M9.88714 12.5073C9.87026 12.5073 9.85226 12.5095 9.83575 12.5135C9.7194 12.5433 9.64931 12.66 9.6772 12.7756C9.70546 12.8839 9.82364 12.9576 9.93888 12.9272C10.0519 12.8993 10.1217 12.7811 10.0938 12.6659C10.0706 12.5756 9.98257 12.5073 9.88714 12.5073ZM9.88603 13.5078C9.52415 13.5078 9.21035 13.2648 9.12079 12.9147C9.01729 12.4908 9.27459 12.0636 9.69372 11.9579C9.75648 11.9421 9.82181 11.9329 9.88714 11.9329C10.2465 11.9329 10.5606 12.1777 10.6502 12.5264C10.7526 12.9499 10.4975 13.3771 10.0806 13.4843C10.0163 13.4997 9.951 13.5078 9.88603 13.5078Z" stroke="#155FFF" stroke-width="0.2" stroke-miterlimit="10"/>
<path d="M12.4117 9.38979C12.295 9.38979 12.186 9.3186 12.1431 9.20299C12.0873 9.05434 12.1637 8.88993 12.3119 8.83487L15.6639 7.59068C15.8111 7.53526 15.977 7.61123 16.032 7.75987C16.0867 7.90815 16.0115 8.07367 15.8632 8.12836L12.5112 9.37218C12.4785 9.38466 12.4451 9.38979 12.4117 9.38979ZM10.1436 12.5774C10.0929 12.5774 10.0426 12.5649 9.99676 12.5374C9.86097 12.4566 9.81619 12.2801 9.8973 12.1446L11.4377 9.55165C11.5188 9.41512 11.695 9.37108 11.8311 9.45146C11.9673 9.53184 12.0121 9.70911 11.9306 9.84418L10.3895 12.4375C10.3362 12.5278 10.2412 12.5774 10.1436 12.5774ZM8.39399 15.515C8.34408 15.515 8.2938 15.5022 8.24792 15.475C8.11212 15.3939 8.06734 15.2184 8.14699 15.083L9.37722 13.0123C9.4587 12.8765 9.63451 12.831 9.77067 12.9117C9.90647 12.9925 9.95126 13.1686 9.87125 13.3052L8.64099 15.3752C8.58741 15.4651 8.49199 15.515 8.39399 15.515ZM7.68966 15.6934C7.64048 15.6934 7.5902 15.6798 7.54359 15.653L5.93128 14.6921C5.79512 14.611 5.75034 14.4356 5.83145 14.2998C5.91293 14.1636 6.08874 14.1189 6.2249 14.2003L7.83721 15.1601C7.973 15.2412 8.01778 15.4166 7.93667 15.5532C7.88382 15.6427 7.78766 15.6934 7.68966 15.6934Z" stroke="#155FFF" stroke-width="0.2" stroke-miterlimit="10"/>
<path d="M16.2436 7.47828C16.2248 7.47828 16.2061 7.48085 16.1889 7.48525C16.1327 7.4992 16.0868 7.53297 16.0582 7.58141C16.0292 7.63023 16.0211 7.68674 16.034 7.74069C16.063 7.85374 16.1793 7.92567 16.2931 7.89668C16.4106 7.86732 16.4777 7.75245 16.4487 7.63647C16.4252 7.54361 16.3408 7.47828 16.2436 7.47828ZM16.2406 8.47656C15.8802 8.47656 15.5671 8.23251 15.4787 7.88274C15.4262 7.67977 15.457 7.46799 15.566 7.28669C15.6743 7.10611 15.8468 6.97877 16.0509 6.92848C16.1125 6.91344 16.1782 6.90499 16.2436 6.90499C16.6025 6.90499 16.9156 7.14722 17.0048 7.49478C17.1112 7.91576 16.8557 8.34554 16.4355 8.45198C16.3724 8.46812 16.306 8.47656 16.2406 8.47656Z" stroke="#155FFF" stroke-width="0.2" stroke-miterlimit="10"/>
<path d="M15.5679 17.6213C16.0479 17.2991 16.4924 16.9328 16.9053 16.5246L18.2423 18.1553L16.909 19.252L15.5679 17.6213Z" stroke="#155FFF" stroke-width="0.506593" stroke-miterlimit="10" stroke-linecap="round" stroke-linejoin="round"/>
<path d="M22.7634 28.4471L16.6258 20.2908C16.4034 20.0225 16.4393 19.653 16.7113 19.4302L18.4579 17.9933C18.7299 17.7705 19.0991 17.8065 19.3219 18.0759L26.1264 25.7407C26.517 26.1492 26.7034 26.7875 26.6502 27.3394C26.5346 28.5047 25.4592 29.39 24.2947 29.2751C23.6773 29.2182 23.1536 28.9169 22.7634 28.4471Z" stroke="#155FFF" stroke-width="0.506593" stroke-miterlimit="10" stroke-linecap="round" stroke-linejoin="round"/>
<path d="M26.6502 27.3394C26.5346 28.5047 25.4592 29.39 24.2947 29.2751C23.6773 29.2182 23.1536 28.9169 22.7634 28.4471L16.6258 20.2908C16.4034 20.0225 16.4393 19.653 16.7113 19.4302L18.4579 17.9933C18.7299 17.7705 19.0991 17.8065 19.3219 18.0759L26.1264 25.7407C26.517 26.1492 26.7034 26.7875 26.6502 27.3394Z" stroke="#155FFF" stroke-miterlimit="2.61313" stroke-linecap="round" stroke-linejoin="round"/>
<path d="M15.5679 17.6213L16.909 19.252L18.2423 18.1553L16.9053 16.5246C16.4924 16.9328 16.0479 17.2991 15.5679 17.6213Z" stroke="#155FFF" stroke-miterlimit="2.61313" stroke-linecap="round" stroke-linejoin="round"/>
</svg>
