<svg width="43" height="40" viewBox="0 0 43 40" fill="none" xmlns="http://www.w3.org/2000/svg">
<path d="M4.33218 27.2512C4.4816 27.6071 4.62836 27.939 4.77831 28.2576C5.65772 28.2405 6.71588 28.1194 7.92774 27.8974C9.04462 27.6999 10.4144 27.3851 11.9998 26.9614C17.414 25.4854 24.1692 22.9272 31.0214 19.7569C31.9387 19.3354 32.8315 18.9127 33.68 18.4992L32.4073 15.9677C32.2317 15.6149 32.2498 15.2067 32.4553 14.8737C32.6992 14.4788 33.1431 14.2681 33.6154 14.3513L40.9479 15.6934C40.989 15.7014 41.029 15.711 41.068 15.7227C39.1165 7.12817 31.4115 0.69371 22.231 0.69371C11.5857 0.69371 2.92555 9.35445 2.92555 19.9992C2.92555 21.163 3.03015 22.3274 3.23773 23.4688C3.94265 22.8285 4.77402 22.1454 5.71854 21.4331C5.81459 21.3599 5.94214 21.3423 6.05474 21.3872C6.16733 21.4314 6.24844 21.5307 6.26926 21.6497C6.44428 22.6508 6.67532 23.6327 6.95494 24.5681C6.9955 24.7036 6.95015 24.8499 6.84022 24.9379C5.80445 25.7688 4.96239 26.5462 4.33218 27.2512ZM6.7762 31.5655C10.4187 36.4236 16.1514 39.3058 22.231 39.3058C32.8811 39.3058 41.5456 30.645 41.5456 19.9992C41.5456 19.3066 41.5088 18.623 41.4373 17.9485L38.4708 23.9875C38.2771 24.3771 37.8876 24.6183 37.4543 24.6183C37.0258 24.6183 36.6416 24.3808 36.4511 23.9982L35.2301 21.5787C34.3208 22.0174 33.3982 22.456 32.4628 22.8872C25.024 26.3317 17.7539 29.0447 11.9924 30.5271C11.0287 30.7752 10.1941 30.9695 9.44112 31.121C8.48166 31.3195 7.58784 31.4684 6.7762 31.5655ZM22.231 40C15.7277 40 9.6076 36.8159 5.85942 31.4839C5.78845 31.382 5.77617 31.2507 5.82847 31.1386C5.88076 31.026 5.98857 30.9503 6.1113 30.9385C7.04995 30.8521 8.12358 30.685 9.30182 30.4417C10.0446 30.2918 10.8675 30.1002 11.8195 29.8547C17.5415 28.3835 24.7695 25.685 32.1714 22.258C33.2093 21.7788 34.2307 21.2922 35.235 20.806C35.4041 20.7249 35.6106 20.7922 35.696 20.9619L37.0711 23.6871C37.2222 23.9902 37.6992 23.9811 37.8492 23.6801L41.1342 16.9933C41.195 16.8711 41.195 16.7323 41.1358 16.6123C41.0744 16.4879 40.9591 16.4015 40.8209 16.3754L33.4932 15.0343C33.3267 15.0029 33.1421 15.0824 33.0455 15.2382C32.9654 15.3673 32.959 15.5199 33.0273 15.6571L34.4575 18.5008C34.4991 18.5835 34.506 18.6795 34.4767 18.7671C34.4468 18.8546 34.3838 18.9266 34.3006 18.9677C33.3534 19.4336 32.3475 19.9106 31.3117 20.3871C24.4269 23.5724 17.6323 26.145 12.1807 27.6311C10.5745 28.0607 9.18551 28.3792 8.05049 28.5799C6.69775 28.8275 5.52271 28.9534 4.56059 28.9534C4.42771 28.9534 4.30604 28.8771 4.24841 28.7571C4.03176 28.3083 3.82204 27.8376 3.60806 27.3168C3.55843 27.1962 3.58085 27.058 3.6657 26.9587C4.30124 26.2207 5.16143 25.4091 6.22441 24.5435C6.01737 23.8258 5.83808 23.0835 5.6892 22.3279C4.74522 23.0601 3.92877 23.7543 3.25907 24.3979C3.16835 24.4854 3.03814 24.5169 2.91701 24.4795C2.79694 24.4427 2.70571 24.344 2.67956 24.2207C2.38233 22.8386 2.23129 21.4181 2.23129 19.9992C2.23129 8.97184 11.2031 0 22.231 0C33.2637 0 42.2393 8.97184 42.2393 19.9992C42.2393 31.0276 33.2637 40 22.231 40Z" fill="#FD6543"/>
<path d="M22.231 0.69371C16.4513 0.69371 11.7501 9.35445 11.7501 19.9992C11.7501 22.3584 11.979 24.6572 12.4321 26.8397C17.8014 25.3344 24.3847 22.8269 31.0214 19.7569L31.6527 19.4602C32.0038 19.2959 32.3539 19.1315 32.7013 18.9672C32.681 18.06 32.618 17.1235 32.5151 16.1774L32.4088 15.9698C32.2632 15.6699 32.2509 15.3327 32.3667 15.0408C31.1452 6.58814 26.9851 0.69371 22.231 0.69371ZM12.1701 27.6188C12.1076 27.6188 12.0452 27.6018 11.9908 27.5692C11.9096 27.5201 11.8515 27.4395 11.8312 27.3467C11.3168 25.0099 11.0558 22.5377 11.0558 19.9992C11.0558 8.97184 16.0687 0 22.231 0C27.3597 0 31.8155 6.18631 33.0684 15.044C33.0786 15.1171 33.0652 15.1912 33.0311 15.2569C32.9649 15.3791 32.9649 15.5258 33.0295 15.6603L33.1613 15.9175C33.1805 15.9549 33.1928 15.9954 33.1976 16.037C33.316 17.1037 33.3843 18.1614 33.3998 19.1795C33.4014 19.3156 33.324 19.44 33.2013 19.4981C32.7861 19.695 32.3672 19.8914 31.9473 20.0883L31.3144 20.3855C24.4963 23.5398 17.731 26.1044 12.2618 27.6066C12.2314 27.6151 12.2005 27.6188 12.1701 27.6188ZM13.3328 30.1706C15.2448 35.8158 18.6344 39.3058 22.231 39.3058C27.452 39.3058 31.8587 32.2598 32.6095 22.8205L32.4622 22.8877C25.6302 26.0473 18.8548 28.6258 13.3328 30.1706ZM22.231 40C18.2507 40 14.5447 36.183 12.5591 30.0404C12.5302 29.9502 12.5388 29.8521 12.5836 29.7688C12.629 29.6856 12.7064 29.6237 12.7976 29.5986C18.3462 28.0767 25.2268 25.4694 32.1719 22.258L32.4185 22.1454C32.5631 22.0798 32.7088 22.0136 32.8507 21.9469C32.9606 21.8946 33.0914 21.9048 33.1928 21.9741C33.2942 22.043 33.3512 22.1604 33.3432 22.2826C32.7077 32.383 27.9301 40 22.231 40Z" fill="#FD6543"/>
<path d="M5.99817 25.642C6.87812 26.3854 7.92403 27.0652 9.11401 27.6666C10.018 27.4692 10.9881 27.2322 11.9998 26.9612C17.414 25.4851 24.1692 22.927 31.0214 19.7567C31.9387 19.3351 32.8315 18.9125 33.68 18.4989L32.4073 15.9674C32.2317 15.6147 32.2498 15.2065 32.4553 14.8735C32.6992 14.4786 33.1431 14.2678 33.6154 14.3511L39.6112 15.4461C36.3865 11.8291 29.7119 9.53297 22.231 9.53297C11.5857 9.53297 2.92555 14.2278 2.92555 19.999C2.92555 21.023 3.2025 22.0379 3.75053 23.0214C4.40423 22.459 5.05151 21.9366 5.71854 21.4328C5.81459 21.3597 5.94214 21.3421 6.05474 21.3869C6.16733 21.4312 6.24844 21.5305 6.26926 21.6495C6.44428 22.6505 6.67479 23.6324 6.95494 24.5679C6.9955 24.7023 6.95068 24.8475 6.84129 24.9361C6.53712 25.1842 6.25591 25.4206 5.99817 25.642ZM9.0681 28.3785C9.01527 28.3785 8.96192 28.3662 8.91336 28.3422C7.48484 27.6309 6.24791 26.8096 5.23882 25.9003C5.16518 25.8336 5.12356 25.7392 5.1241 25.6404C5.12463 25.5417 5.16731 25.4473 5.24148 25.3822C5.53337 25.1244 5.86156 24.8432 6.22496 24.5444C6.01738 23.8272 5.8386 23.0844 5.68972 22.3288C5.08619 22.7983 4.49495 23.2888 3.89356 23.8165C3.81671 23.8832 3.71425 23.911 3.61499 23.8998C3.51414 23.8848 3.42503 23.8267 3.37113 23.7407C2.61499 22.5363 2.23129 21.2781 2.23129 19.999C2.23129 13.8452 11.2031 8.83872 22.231 8.83872C30.4067 8.83872 37.6758 11.5517 40.7494 15.7502C40.8337 15.865 40.8391 16.0186 40.7638 16.1392C40.6881 16.2598 40.5461 16.3201 40.4074 16.2967L33.4932 15.0341C33.3267 15.0026 33.1421 15.0821 33.0455 15.238C32.9654 15.3671 32.959 15.5197 33.0273 15.6568L34.4575 18.5005C34.4991 18.5832 34.506 18.6793 34.4767 18.7668C34.4468 18.8543 34.3838 18.9264 34.3006 18.9675C33.3534 19.4328 32.348 19.9104 31.3117 20.3869C24.4269 23.5721 17.6323 26.1447 12.1807 27.6309C11.1114 27.9169 10.0895 28.1655 9.14174 28.371C9.11719 28.3758 9.09265 28.3785 9.0681 28.3785ZM14.9668 29.6949C17.2699 30.2067 19.708 30.4649 22.231 30.4649C32.8811 30.4649 41.5456 25.7706 41.5456 19.999C41.5456 19.4226 41.456 18.8458 41.2772 18.2769L38.4708 23.9878C38.2771 24.3768 37.8876 24.618 37.4543 24.618C37.0258 24.618 36.6416 24.3805 36.4511 23.9979L35.2301 21.5785C34.3208 22.0171 33.3982 22.4558 32.4628 22.8869C26.2914 25.7413 20.136 28.1341 14.9668 29.6949ZM22.231 31.1592C19.1878 31.1592 16.2646 30.7894 13.542 30.0605C13.3916 30.0199 13.2864 29.8844 13.2848 29.728C13.2837 29.5722 13.3867 29.4345 13.5367 29.3918C18.9119 27.8625 25.5299 25.3288 32.1719 22.2578C33.2093 21.7786 34.2307 21.2919 35.235 20.8058C35.4041 20.7247 35.6106 20.7919 35.696 20.9616L37.0711 23.6868C37.2222 23.9899 37.6992 23.9809 37.8492 23.6799L41.0056 17.2572C41.0648 17.1361 41.1715 17.0608 41.3225 17.0629C41.4565 17.0656 41.5776 17.1451 41.6331 17.2673C42.0355 18.1585 42.2393 19.0779 42.2393 19.999C42.2393 26.1527 33.2637 31.1592 22.231 31.1592Z" fill="#FD6543"/>
<path d="M31.3267 20.3462H2.57815C2.38658 20.3462 2.23129 20.1909 2.23129 19.9988C2.23129 19.8072 2.38658 19.6519 2.57815 19.6519H31.3267C31.5188 19.6519 31.6741 19.8072 31.6741 19.9988C31.6741 20.1909 31.5188 20.3462 31.3267 20.3462ZM41.8925 20.3462H40.0456C39.854 20.3462 39.6987 20.1909 39.6987 19.9988C39.6987 19.8072 39.854 19.6519 40.0456 19.6519H41.8925C42.084 19.6519 42.2393 19.8072 42.2393 19.9988C42.2393 20.1909 42.084 20.3462 41.8925 20.3462Z" fill="#FD6543"/>
<path d="M22.2311 24.2314C22.0395 24.2314 21.8842 24.0761 21.8842 23.884V0.346855C21.8842 0.155285 22.0395 0 22.2311 0C22.4232 0 22.5785 0.155285 22.5785 0.346855V23.884C22.5785 24.0761 22.4232 24.2314 22.2311 24.2314ZM22.2311 40C22.0395 40 21.8842 39.8447 21.8842 39.6526V26.8328C21.8842 26.6407 22.0395 26.4854 22.2311 26.4854C22.4232 26.4854 22.5785 26.6407 22.5785 26.8328V39.6526C22.5785 39.8447 22.4232 40 22.2311 40Z" fill="#FD6543"/>
<path d="M5.68959 22.3297C4.25414 23.4466 3.12447 24.4648 2.32617 25.3612C1.7824 25.9642 0.131365 27.7951 0.896583 29.4536C1.37364 30.492 2.59617 31.0182 4.52896 31.0182H4.93931C6.11276 30.9873 7.54022 30.7989 9.30331 30.4419C10.0445 30.2919 10.8674 30.1004 11.8194 29.8549C17.5414 28.3837 24.7694 25.6852 32.1713 22.2582C33.2092 21.779 34.2305 21.2924 35.2348 20.8062C35.404 20.7251 35.6105 20.7923 35.6959 20.962L37.071 23.6873C37.222 23.9904 37.6991 23.9813 37.849 23.6803L41.134 16.9935C41.1949 16.8713 41.1949 16.7325 41.1356 16.6125C41.0743 16.4881 40.959 16.4017 40.8208 16.3755L33.4931 15.0345C33.3266 15.003 33.1419 15.0826 33.0454 15.2384C32.9653 15.3675 32.9589 15.5201 33.0272 15.6573L34.4573 18.501C34.4989 18.5837 34.5059 18.6797 34.4765 18.7672C34.4466 18.8547 34.3837 18.9268 34.3004 18.9679C33.3533 19.4337 32.3474 19.9108 31.3116 20.3873C24.4268 23.5725 17.6321 26.1451 12.1806 27.6313C10.5744 28.0609 9.18538 28.3794 8.05036 28.5801C6.66347 28.8282 5.48415 28.9536 4.54551 28.9536C4.2931 28.9536 4.07431 28.9445 3.8854 28.9291C3.55242 28.897 3.27708 28.7017 3.1426 28.4056C3.01133 28.1148 3.04496 27.786 3.23333 27.5251C3.6106 26.9739 4.43879 26.0075 6.22483 24.5443C6.01725 23.8271 5.83848 23.0848 5.68959 22.3297ZM4.94413 31.7119H4.52896C2.30161 31.7119 0.86671 31.0497 0.265848 29.7439C-0.689874 27.6697 1.19168 25.5838 1.81016 24.8981C2.71678 23.8794 4.03217 22.7129 5.71789 21.4338C5.81448 21.3601 5.94254 21.3441 6.05406 21.3868C6.16666 21.4311 6.24832 21.5309 6.26913 21.6499C6.44416 22.651 6.6752 23.6328 6.95482 24.5683C6.99537 24.7033 6.95057 24.849 6.84064 24.937C4.99536 26.4301 4.1693 27.3853 3.80057 27.9242C3.73867 28.0102 3.75789 28.0833 3.77443 28.1195C3.78937 28.1521 3.83525 28.2273 3.94731 28.238C4.11487 28.2519 4.31498 28.2604 4.54551 28.2604C5.44306 28.2604 6.58183 28.1382 7.92923 27.8976C9.04451 27.7001 10.4143 27.3853 11.9997 26.9616C17.4139 25.4856 24.169 22.9274 31.0213 19.7571C31.9386 19.3355 32.8314 18.9129 33.6798 18.4994L32.4071 15.9678C32.2316 15.6151 32.2497 15.2069 32.4552 14.8739C32.699 14.479 33.143 14.2682 33.6153 14.3515L40.9478 15.6936C41.3037 15.7613 41.5978 15.9839 41.7573 16.304C41.9142 16.621 41.9137 16.9844 41.7557 17.3014L38.4707 23.9877C38.277 24.3772 37.8875 24.6184 37.4542 24.6184C37.0257 24.6184 36.6414 24.381 36.4509 23.9984L35.23 21.5789C34.3207 22.0176 33.3981 22.4562 32.4626 22.8874C25.0239 26.3319 17.7538 29.0449 11.9923 30.5273C11.0285 30.7754 10.1939 30.9696 9.44099 31.1212C7.63627 31.4873 6.16825 31.6799 4.95265 31.7114C4.94999 31.7119 4.94734 31.7119 4.94413 31.7119Z" fill="#FD6543"/>
</svg>
