<svg width="48" height="38" viewBox="0 0 48 38" fill="none" xmlns="http://www.w3.org/2000/svg">
<g clip-path="url(#clip0_1530_801)">
<path d="M2.4 10.6875C2.4 16.5879 7.2375 21.375 13.2 21.375H22.4475C24.1425 22.852 26.3625 23.75 28.8 23.75C31.2375 23.75 33.4575 22.852 35.1525 21.375H37.2C41.8425 21.375 45.6 17.6566 45.6 13.0625C45.6 8.46836 41.8425 4.75 37.2 4.75C36.3975 4.75 35.625 4.86133 34.89 5.06914C33.285 2.05586 30.0825 0 26.4 0C23.955 0 21.72 0.905469 20.0175 2.39727C18.1575 0.898047 15.7875 0 13.2 0C7.2375 0 2.4 4.78711 2.4 10.6875ZM46.2 27.3125H21C20.0025 27.3125 19.2 28.1066 19.2 29.0938C19.2 30.0809 20.0025 30.875 21 30.875H46.2C47.1975 30.875 48 30.0809 48 29.0938C48 28.1066 47.1975 27.3125 46.2 27.3125ZM41.4 34.4375H33C32.0025 34.4375 31.2 35.2316 31.2 36.2188C31.2 37.2059 32.0025 38 33 38H41.4C42.3975 38 43.2 37.2059 43.2 36.2188C43.2 35.2316 42.3975 34.4375 41.4 34.4375ZM27 34.4375H1.8C0.8025 34.4375 0 35.2316 0 36.2188C0 37.2059 0.8025 38 1.8 38H27C27.9975 38 28.8 37.2059 28.8 36.2188C28.8 35.2316 27.9975 34.4375 27 34.4375ZM16.8 29.0938C16.8 28.1066 15.9975 27.3125 15 27.3125H7.2C6.2025 27.3125 5.4 28.1066 5.4 29.0938C5.4 30.0809 6.2025 30.875 7.2 30.875H15C15.9975 30.875 16.8 30.0809 16.8 29.0938Z" fill="#0587FF"/>
</g>
<defs>
<clipPath id="clip0_1530_801">
<rect width="48" height="38" fill="white"/>
</clipPath>
</defs>
</svg>
