<svg width="20" height="21" viewBox="0 0 20 21" fill="none" xmlns="http://www.w3.org/2000/svg">
<g clip-path="url(#clip0_721_7572)">
<path d="M9.188 9.92345C8.32474 9.51343 6.81094 9.16389 4.98387 9.08007C2.10233 8.94788 -4.69866e-07 9.7849 -4.31861e-07 10.6544C-4.07142e-07 11.2199 0.943944 11.7157 2.36128 11.9933C1.81918 11.7652 1.5202 11.4748 1.5202 11.129C1.5202 10.3625 4.09794 8.88179 7.9315 9.67494C8.38888 9.76957 8.80673 9.8514 9.188 9.92345Z" fill="#11819B"/>
<path d="M10.812 11.1449C11.6753 11.5549 13.1891 11.9045 15.0161 11.9883C17.8977 12.1205 20 11.2835 20 10.414C20 9.8485 19.0561 9.35264 17.6387 9.07506C18.1808 9.30318 18.4798 9.59357 18.4798 9.93933C18.4798 10.7059 15.9021 12.1866 12.0685 11.3934C11.6111 11.2988 11.1933 11.217 10.812 11.1449Z" fill="#11819B"/>
<path d="M10.6107 9.72217C11.0208 8.85892 11.3703 7.34512 11.4541 5.51805C11.5863 2.63651 10.7493 0.534177 9.87983 0.534177C9.31433 0.534177 8.81847 1.47812 8.54088 2.89545C8.76901 2.35336 9.05939 2.05438 9.40515 2.05438C10.1717 2.05438 11.6524 4.63212 10.8592 8.46568C10.7646 8.92305 10.6828 9.34091 10.6107 9.72217Z" fill="#11819B"/>
<path d="M9.38927 11.3462C8.97925 12.2094 8.62971 13.7232 8.54589 15.5503C8.41371 18.4318 9.25072 20.5342 10.1202 20.5342C10.6857 20.5342 11.1815 19.5902 11.4591 18.1729C11.231 18.715 10.9406 19.014 10.5949 19.014C9.82827 19.014 8.34761 16.4362 9.14076 12.6027C9.23539 12.1453 9.31723 11.7274 9.38927 11.3462Z" fill="#11819B"/>
<path d="M9.85765 9.52815C9.53717 8.62781 8.71391 7.31023 7.48125 5.95903C5.53717 3.828 3.45873 2.93329 2.84394 3.54808C2.44407 3.94796 2.76091 4.96605 3.56683 6.16454C3.34482 5.61991 3.33875 5.20317 3.58323 4.95868C4.12529 4.41663 6.99501 5.19238 9.14491 8.46395C9.4014 8.85428 9.63901 9.20761 9.85765 9.52815Z" fill="#11819B"/>
<path d="M10.1423 11.5402C10.4628 12.4405 11.286 13.7581 12.5187 15.1093C14.4628 17.2404 16.5412 18.1351 17.156 17.5203C17.5559 17.1204 17.239 16.1023 16.4331 14.9038C16.6551 15.4484 16.6612 15.8652 16.4167 16.1097C15.8747 16.6517 13.0049 15.876 10.8551 12.6044C10.5986 12.2141 10.361 11.8607 10.1423 11.5402Z" fill="#11819B"/>
<path d="M11.006 10.3919C11.9063 10.0714 13.2239 9.24811 14.5751 8.01545C16.7062 6.07137 17.6009 3.99293 16.9861 3.37813C16.5862 2.97827 15.5681 3.29511 14.3696 4.10103C14.9142 3.87902 15.331 3.87295 15.5755 4.11743C16.1175 4.65949 15.3418 7.52921 12.0702 9.67911C11.6799 9.9356 11.3265 10.1732 11.006 10.3919Z" fill="#11819B"/>
<path d="M8.99396 10.6765C8.09361 10.997 6.77603 11.8202 5.42483 13.0529C3.29381 14.997 2.39909 17.0754 3.01388 17.6902C3.41376 18.0901 4.43185 17.7732 5.63034 16.9673C5.08571 17.1893 4.66897 17.1954 4.42448 16.9509C3.88243 16.4089 4.65818 13.5391 7.92976 11.3893C8.32008 11.1328 8.67342 10.8951 8.99396 10.6765Z" fill="#11819B"/>
<path d="M9.0161 10.2807C8.06164 10.2322 6.52931 10.4886 4.80925 11.1103C2.09647 12.0909 0.474475 13.6688 0.8072 14.472C1.02361 14.9945 2.08546 15.0914 3.50113 14.8054C2.91299 14.8021 2.52565 14.6483 2.39334 14.3288C2.09998 13.6206 3.91488 11.2662 7.76015 10.5319C8.21892 10.4443 8.63629 10.36 9.0161 10.2807Z" fill="#11819B"/>
<path d="M10.9839 10.7877C11.9384 10.8361 13.4707 10.5798 15.1908 9.95801C17.9035 8.97742 19.5255 7.39959 19.1928 6.59632C18.9764 6.07387 17.9146 5.97698 16.4989 6.26292C17.087 6.26622 17.4744 6.4201 17.6067 6.73953C17.9 7.44776 16.0851 9.80217 12.2399 10.5364C11.7811 10.624 11.3637 10.7083 10.9839 10.7877Z" fill="#11819B"/>
<path d="M10.2535 9.55027C10.302 8.59582 10.0456 7.06348 9.42384 5.34342C8.44325 2.63064 6.86542 1.00865 6.06215 1.34137C5.53969 1.55778 5.44281 2.61963 5.72875 4.0353C5.73205 3.44717 5.88592 3.05983 6.20536 2.92751C6.91359 2.63415 9.268 4.44905 10.0023 8.29432C10.0899 8.75309 10.1742 9.17046 10.2535 9.55027Z" fill="#11819B"/>
<path d="M9.74651 11.5181C9.69805 12.4725 9.95442 14.0049 10.5762 15.7249C11.5568 18.4377 13.1346 20.0597 13.9379 19.727C14.4603 19.5106 14.5572 18.4487 14.2713 17.0331C14.268 17.6212 14.1141 18.0085 13.7947 18.1408C13.0864 18.4342 10.732 16.6193 9.99775 12.774C9.91015 12.3153 9.82585 11.8979 9.74651 11.5181Z" fill="#11819B"/>
<path d="M9.4835 9.6592C8.84287 8.95003 7.57806 8.04779 5.92215 7.27117C3.31054 6.04633 1.04792 6.0151 0.715199 6.81837C0.49879 7.34082 1.18112 8.16017 2.38434 8.95902C1.97081 8.5408 1.80572 8.15811 1.93803 7.83867C2.23139 7.13045 5.17954 6.74895 8.41776 8.94876C8.8041 9.21122 9.15884 9.44673 9.4835 9.6592Z" fill="#11819B"/>
<path d="M10.5165 11.4092C11.1571 12.1183 12.4219 13.0206 14.0778 13.7972C16.6894 15.022 18.952 15.0533 19.2848 14.25C19.5012 13.7275 18.8188 12.9082 17.6156 12.1093C18.0292 12.5276 18.1942 12.9102 18.0619 13.2297C17.7686 13.9379 14.8204 14.3194 11.5822 12.1196C11.1959 11.8571 10.8411 11.6216 10.5165 11.4092Z" fill="#11819B"/>
<path d="M10.875 10.0177C11.5841 9.37706 12.4864 8.11226 13.263 6.45634C14.4878 3.84474 14.5191 1.58212 13.7158 1.24939C13.1933 1.03299 12.374 1.71532 11.5751 2.91854C11.9934 2.505 12.3761 2.33992 12.6955 2.47223C13.4037 2.76559 13.7852 5.71373 11.5854 8.95195C11.3229 9.3383 11.0874 9.69303 10.875 10.0177Z" fill="#11819B"/>
<path d="M9.12501 11.0507C8.41584 11.6913 7.5136 12.9561 6.73697 14.612C5.51213 17.2236 5.48091 19.4862 6.28417 19.819C6.80663 20.0354 7.62598 19.353 8.42482 18.1498C8.00661 18.5634 7.62391 18.7284 7.30448 18.5961C6.59625 18.3028 6.21475 15.3546 8.41457 12.1164C8.67702 11.7301 8.91254 11.3753 9.12501 11.0507Z" fill="#11819B"/>
</g>
<defs>
<clipPath id="clip0_721_7572">
<rect width="20" height="20" fill="white" transform="translate(0 0.53418)"/>
</clipPath>
</defs>
</svg>
