<svg width="20" height="20" viewBox="0 0 20 20" fill="none" xmlns="http://www.w3.org/2000/svg">
<g clip-path="url(#clip0_721_6378)">
<path d="M9.188 9.38927C8.32474 8.97925 6.81094 8.62971 4.98387 8.54589C2.10233 8.4137 -4.69866e-07 9.25072 -4.31861e-07 10.1202C-4.07142e-07 10.6857 0.943944 11.1815 2.36128 11.4591C1.81918 11.231 1.5202 10.9406 1.5202 10.5949C1.5202 9.82827 4.09794 8.34761 7.9315 9.14076C8.38888 9.23539 8.80673 9.31722 9.188 9.38927Z" fill="#ADFF1C"/>
<path d="M10.812 10.6107C11.6753 11.0207 13.1891 11.3703 15.0161 11.4541C17.8977 11.5863 20 10.7493 20 9.87983C20 9.31432 19.0561 8.81846 17.6387 8.54088C18.1808 8.769 18.4798 9.05939 18.4798 9.40515C18.4798 10.1717 15.9021 11.6524 12.0685 10.8592C11.6111 10.7646 11.1933 10.6828 10.812 10.6107Z" fill="#ADFF1C"/>
<path d="M10.6107 9.18799C11.0208 8.32474 11.3703 6.81094 11.4541 4.98387C11.5863 2.10233 10.7493 -2.22e-06 9.87983 -2.22e-06C9.31433 -2.22e-06 8.81847 0.943942 8.54088 2.36127C8.76901 1.81918 9.05939 1.5202 9.40515 1.5202C10.1717 1.5202 11.6524 4.09794 10.8592 7.9315C10.7646 8.38887 10.6828 8.80673 10.6107 9.18799Z" fill="#ADFF1C"/>
<path d="M9.38927 10.812C8.97925 11.6753 8.62971 13.1891 8.54589 15.0161C8.41371 17.8977 9.25072 20 10.1202 20C10.6857 20 11.1815 19.0561 11.4591 17.6387C11.231 18.1808 10.9406 18.4798 10.5949 18.4798C9.82827 18.4798 8.34761 15.9021 9.14076 12.0685C9.23539 11.6111 9.31722 11.1933 9.38927 10.812Z" fill="#ADFF1C"/>
<path d="M9.85765 8.99397C9.53717 8.09363 8.71391 6.77605 7.48125 5.42485C5.53717 3.29382 3.45873 2.39911 2.84394 3.01391C2.44406 3.41378 2.76091 4.43187 3.56683 5.63036C3.34482 5.08573 3.33875 4.66899 3.58323 4.4245C4.12529 3.88245 6.99501 4.6582 9.14491 7.92977C9.4014 8.3201 9.63901 8.67344 9.85765 8.99397Z" fill="#ADFF1C"/>
<path d="M10.1423 11.006C10.4628 11.9064 11.286 13.224 12.5187 14.5751C14.4628 16.7062 16.5412 17.6009 17.156 16.9861C17.5559 16.5862 17.2391 15.5681 16.4331 14.3696C16.6551 14.9143 16.6612 15.331 16.4167 15.5755C15.8747 16.1175 13.0049 15.3418 10.8551 12.0702C10.5986 11.6799 10.3609 11.3266 10.1423 11.006Z" fill="#ADFF1C"/>
<path d="M11.006 9.85767C11.9063 9.53719 13.2239 8.71393 14.5751 7.48127C16.7062 5.53719 17.6009 3.45875 16.9861 2.84396C16.5862 2.44408 15.5681 2.76093 14.3696 3.56685C14.9142 3.34484 15.331 3.33877 15.5755 3.58325C16.1175 4.12531 15.3418 6.99503 12.0702 9.14493C11.6799 9.40142 11.3265 9.63903 11.006 9.85767Z" fill="#ADFF1C"/>
<path d="M8.99396 10.1423C8.09361 10.4628 6.77603 11.2861 5.42483 12.5187C3.29381 14.4628 2.39909 16.5412 3.01388 17.156C3.41376 17.5559 4.43185 17.2391 5.63034 16.4331C5.08571 16.6552 4.66897 16.6612 4.42448 16.4167C3.88243 15.8747 4.65818 13.005 7.92976 10.8551C8.32008 10.5986 8.67342 10.361 8.99396 10.1423Z" fill="#ADFF1C"/>
<path d="M9.0161 9.7465C8.06164 9.69804 6.52931 9.95442 4.80925 10.5762C2.09647 11.5568 0.474475 13.1346 0.8072 13.9379C1.02361 14.4603 2.08546 14.5572 3.50113 14.2713C2.91299 14.268 2.52565 14.1141 2.39334 13.7946C2.09998 13.0864 3.91488 10.732 7.76015 9.99774C8.21892 9.91014 8.63629 9.82584 9.0161 9.7465Z" fill="#ADFF1C"/>
<path d="M10.9839 10.2535C11.9384 10.302 13.4707 10.0456 15.1908 9.42383C17.9035 8.44324 19.5255 6.86541 19.1928 6.06214C18.9764 5.53969 17.9146 5.4428 16.4989 5.72874C17.087 5.73204 17.4744 5.88592 17.6067 6.20535C17.9 6.91358 16.0851 9.26799 12.2399 10.0023C11.7811 10.0899 11.3637 10.1742 10.9839 10.2535Z" fill="#ADFF1C"/>
<path d="M10.2535 9.01609C10.302 8.06164 10.0456 6.5293 9.42384 4.80924C8.44325 2.09646 6.86542 0.474468 6.06215 0.807193C5.53969 1.0236 5.44281 2.08545 5.72875 3.50112C5.73205 2.91299 5.88592 2.52565 6.20536 2.39333C6.91359 2.09997 9.268 3.91487 10.0023 7.76014C10.0899 8.21891 10.1742 8.63628 10.2535 9.01609Z" fill="#ADFF1C"/>
<path d="M9.74651 10.9839C9.69805 11.9384 9.95442 13.4707 10.5762 15.1908C11.5568 17.9035 13.1346 19.5255 13.9379 19.1928C14.4603 18.9764 14.5572 17.9146 14.2713 16.4989C14.268 17.087 14.1141 17.4744 13.7947 17.6067C13.0864 17.9 10.732 16.0851 9.99775 12.2399C9.91015 11.7811 9.82585 11.3637 9.74651 10.9839Z" fill="#ADFF1C"/>
<path d="M9.4835 9.12502C8.84287 8.41585 7.57806 7.51361 5.92215 6.73699C3.31054 5.51215 1.04792 5.48092 0.715199 6.28419C0.49879 6.80664 1.18112 7.62599 2.38434 8.42484C1.97081 8.00662 1.80572 7.62393 1.93803 7.30449C2.23139 6.59627 5.17954 6.21477 8.41776 8.41458C8.8041 8.67704 9.15884 8.91255 9.4835 9.12502Z" fill="#ADFF1C"/>
<path d="M10.5165 10.875C11.1571 11.5841 12.4219 12.4864 14.0778 13.263C16.6894 14.4879 18.952 14.5191 19.2848 13.7158C19.5012 13.1934 18.8188 12.374 17.6156 11.5752C18.0292 11.9934 18.1942 12.3761 18.0619 12.6955C17.7686 13.4037 14.8204 13.7852 11.5822 11.5854C11.1959 11.323 10.8411 11.0874 10.5165 10.875Z" fill="#ADFF1C"/>
<path d="M10.875 9.48352C11.5841 8.84288 12.4864 7.57808 13.263 5.92216C14.4878 3.31056 14.5191 1.04794 13.7158 0.715215C13.1933 0.498807 12.374 1.18114 11.5751 2.38436C11.9934 1.97082 12.3761 1.80574 12.6955 1.93805C13.4037 2.23141 13.7852 5.17955 11.5854 8.41777C11.3229 8.80412 11.0874 9.15885 10.875 9.48352Z" fill="#ADFF1C"/>
<path d="M9.125 10.5165C8.41584 11.1571 7.5136 12.4219 6.73697 14.0778C5.51213 16.6894 5.48091 18.9521 6.28417 19.2848C6.80663 19.5012 7.62598 18.8189 8.42482 17.6156C8.00661 18.0292 7.62391 18.1943 7.30448 18.0619C6.59625 17.7686 6.21475 14.8204 8.41457 11.5822C8.67702 11.1959 8.91254 10.8411 9.125 10.5165Z" fill="#ADFF1C"/>
</g>
<defs>
<clipPath id="clip0_721_6378">
<rect width="20" height="20" fill="white"/>
</clipPath>
</defs>
</svg>
