<svg width="40" height="40" viewBox="0 0 40 40" fill="none" xmlns="http://www.w3.org/2000/svg">
<path d="M16.4708 28.3737C15.5153 28.9295 14.5599 29.4833 13.6051 30.0391C13.4881 29.8781 13.3726 29.7171 13.2598 29.5548L16.1241 27.8894C16.2383 28.0518 16.3539 28.2134 16.4708 28.3737Z" fill="#3C2415"/>
<path d="M16.4717 28.3733C16.568 28.5075 16.6664 28.6409 16.764 28.7723C15.8106 29.3274 14.8552 29.8826 13.8997 30.4377C13.8006 30.3049 13.7023 30.1722 13.606 30.0387C14.5607 29.4829 15.5162 28.9291 16.4717 28.3733Z" fill="#3C2415"/>
<path d="M16.7633 28.7731C16.9476 29.0173 17.1327 29.2587 17.3212 29.4974L14.4554 31.1621C14.2669 30.9241 14.0819 30.682 13.8989 30.4385C14.8544 29.8833 15.8099 29.3282 16.7633 28.7731Z" fill="#3C2415"/>
<path d="M11.7625 3.02188L14.6268 1.35652C12.0005 2.88293 10.3702 6.12563 10.3571 10.7283C10.3317 19.9906 16.8666 31.3091 24.9279 35.964L22.0622 37.6287C14.0008 32.9745 7.46593 21.656 7.49276 12.3929C7.50445 7.79031 9.13543 4.5483 11.7625 3.02188Z" fill="#BE1E2D"/>
<path d="M16.0367 22.3708C16.2809 22.8591 16.5402 23.342 16.8161 23.8174C15.8606 24.3718 14.9051 24.9269 13.9503 25.4821C13.81 25.242 13.6759 24.9999 13.5445 24.7557C13.184 24.087 12.8525 23.4046 12.5498 22.714C13.0905 22.401 13.6318 22.0867 14.1718 21.7723L15.4155 21.0493C15.6109 21.4944 15.8173 21.9353 16.0367 22.3708Z" fill="#F2F2F2"/>
<path d="M17.3117 24.6425C19.3368 27.8887 22.0072 30.6925 24.9376 32.3847L22.0732 34.05C19.1979 32.3895 16.5729 29.66 14.5615 26.4923C14.351 26.16 14.1467 25.8236 13.9507 25.4824C14.9055 24.9273 15.8609 24.3722 16.8164 23.8178C16.976 24.095 17.1411 24.3708 17.3117 24.6425Z" fill="#F2F2F2"/>
<path d="M13.4718 12.5263C13.465 15.2628 14.1811 18.2241 15.4158 21.0492L15.2521 21.1449C14.3523 21.6683 13.4505 22.1918 12.5501 22.7139C12.3176 22.1808 12.103 21.6429 11.9083 21.1022C11.759 20.6881 11.6221 20.2733 11.4969 19.8578C10.9191 17.9407 10.602 16.016 10.6075 14.1917C10.6185 10.5631 11.8987 8.01175 13.9623 6.81276L16.828 5.1474C14.763 6.34707 13.4829 8.89844 13.4718 12.5263Z" fill="#F2F2F2"/>
<path d="M16.7794 14.4362C16.7643 19.6297 20.4287 25.9748 24.9481 28.5846L22.0823 30.2486C17.5623 27.6394 13.9 21.2958 13.9151 16.1015C14.3299 15.8601 14.7454 15.6193 15.1588 15.3772C15.7002 15.0642 16.2408 14.7498 16.7794 14.4362Z" fill="#BE1E2D"/>
<path d="M33.1066 38.2042L32.9188 38.3143C32.0266 38.8329 31.133 39.3516 30.2408 39.8703C30.0757 39.8992 29.9079 39.9239 29.7373 39.9432L32.603 38.2778C32.7736 38.2592 32.9415 38.2338 33.1066 38.2042Z" fill="#3C2415"/>
<path d="M33.4087 38.1445C32.4546 38.7003 31.4992 39.2547 30.5444 39.8098C30.4433 39.8312 30.3428 39.8511 30.2417 39.8704C31.1339 39.3517 32.0275 38.833 32.9196 38.3144L33.1074 38.2043C33.2086 38.1871 33.309 38.1665 33.4087 38.1445Z" fill="#3C2415"/>
<path d="M19.1746 9.18093C17.7012 10.0367 16.7876 11.8547 16.7794 14.4364L16.6157 14.532C16.13 14.814 15.6437 15.0961 15.1587 15.3774C14.7453 15.6195 14.3298 15.8603 13.915 16.1017C13.9219 13.5201 14.8368 11.702 16.3089 10.8456C17.1687 10.3462 18.3148 9.68033 19.1746 9.18093Z" fill="#BE1E2D"/>
<path d="M16.5091 11.1983C16.9878 10.9211 17.4646 10.6439 17.9426 10.366C18.42 10.0888 18.8981 9.81085 19.3748 9.53363C17.955 10.3584 17.0725 12.1125 17.0656 14.6013C17.0504 19.6132 20.5882 25.7388 24.9494 28.2565L22.0837 29.9219C17.7225 27.4042 14.1861 21.2772 14.2012 16.2667C14.2081 13.7779 15.0893 12.0238 16.5091 11.1983Z" fill="#BE1E2D"/>
<path d="M22.2555 20.718C22.9475 21.9156 23.905 22.9626 24.9637 23.5735L22.0979 25.2388C21.0393 24.628 20.0818 23.581 19.3911 22.3834C20.3459 21.8283 21.3014 21.2732 22.2555 20.718Z" fill="#F2F2F2"/>
<path d="M33.4078 38.1445C33.5406 38.1149 33.6706 38.0826 33.8013 38.0475L30.9356 39.7121C30.8062 39.7472 30.6762 39.7796 30.5435 39.8091C31.4982 39.254 32.4537 38.6996 33.4078 38.1445Z" fill="#3C2415"/>
<path d="M29.4402 33.9332C30.827 34.0556 32.0748 33.7942 33.1218 33.1861L30.256 34.8515C29.2173 35.4541 27.9812 35.7162 26.6082 35.6013C25.2145 35.4844 23.6819 34.9795 22.0723 34.0501L24.9366 32.3847C26.5339 33.3072 28.0562 33.8107 29.4402 33.9332Z" fill="#F2F2F2"/>
<path d="M24.9483 28.5848C27.2224 29.8979 29.2861 30.0183 30.7774 29.1516L27.9117 30.8169C26.4203 31.6823 24.3567 31.5633 22.0825 30.2488C22.9424 29.75 24.0884 29.0842 24.9483 28.5848Z" fill="#BE1E2D"/>
<path d="M21.1403 16.9533C21.1375 18.1709 21.5633 19.5198 22.2539 20.7174C21.2999 21.2726 20.3444 21.8277 19.3896 22.3828C18.6976 21.1845 18.2718 19.8356 18.2759 18.6194C18.2787 17.4101 18.7058 16.5599 19.3937 16.1595L22.2595 14.4948C21.5702 14.8952 21.1444 15.7454 21.1403 16.9533Z" fill="#F2F2F2"/>
<path d="M24.9629 23.5728C26.0284 24.1885 26.9928 24.2456 27.6904 23.8404L24.826 25.5051C24.1271 25.911 23.1627 25.8539 22.0972 25.2382C22.957 24.7395 24.103 24.0729 24.9629 23.5728Z" fill="#F2F2F2"/>
<path d="M30.5738 28.8016C30.095 29.0795 29.6183 29.3567 29.1402 29.6346L28.9971 29.7179C28.5672 29.9676 28.1373 30.2173 27.7074 30.467C26.269 31.3034 24.2776 31.1879 22.0825 29.9208L24.9483 28.2554C27.1419 29.5225 29.1347 29.6387 30.5738 28.8016Z" fill="#BE1E2D"/>
<path d="M35.3247 36.9755L32.459 38.6409C29.8003 40.1859 26.1188 39.9706 22.063 37.629L24.9287 35.9643C28.9845 38.3059 32.6661 38.5198 35.3247 36.9755Z" fill="#BE1E2D"/>
<path d="M19.3945 16.16L22.2603 14.4953C22.9571 14.0901 23.9236 14.1472 24.987 14.7629L22.1227 16.4276C21.0578 15.8119 20.0914 15.7555 19.3945 16.16Z" fill="#BE1E2D"/>
<path d="M27.6893 23.8404L24.825 25.5051C25.5129 25.1062 25.94 24.2559 25.9428 23.0466C25.9497 20.6136 24.2396 17.6495 22.1216 16.4271L24.9859 14.7624C27.1039 15.9848 28.8154 18.9489 28.8085 21.3812C28.8044 22.5899 28.3786 23.4401 27.6893 23.8404Z" fill="#BE1E2D"/>
<path d="M32.8832 23.7348C32.8763 26.2236 31.9937 27.977 30.5739 28.8025L27.7075 30.4678C29.1294 29.6424 30.0106 27.889 30.0174 25.3995C30.1179 25.3417 30.2527 25.2633 30.3517 25.2048C31.0266 24.8134 31.6993 24.4227 32.3728 24.0306C32.5434 23.9322 32.7139 23.8325 32.8832 23.7348Z" fill="#F2F2F2"/>
<path d="M19.375 9.53295C20.8141 8.6958 22.8069 8.81137 25.0005 10.0785L22.1348 11.7445C19.9411 10.4767 17.9497 10.3619 16.5093 11.1976C17.3691 10.6989 18.5152 10.0324 19.375 9.53295Z" fill="#F2F2F2"/>
<path d="M16.3086 10.8454L19.1743 9.18074C20.6643 8.3147 22.7279 8.43439 25.0014 9.74687L22.1357 11.4116C19.8622 10.0991 17.7986 9.97938 16.3086 10.8454Z" fill="#BE1E2D"/>
<path d="M25 10.0789C29.3612 12.5966 32.8983 18.7235 32.8839 23.7348C32.282 24.0849 31.6787 24.4344 31.0768 24.7852C30.7232 24.9895 30.3717 25.1952 30.0181 25.3995C30.0326 20.3889 26.4955 14.2619 22.1343 11.7449C22.9941 11.2455 24.1415 10.579 25 10.0789Z" fill="#F2F2F2"/>
<path d="M30.7774 29.1514L27.9117 30.8168C29.3831 29.961 30.298 28.1443 30.3049 25.5641C30.3193 20.3699 26.6556 14.022 22.1362 11.4115L25.002 9.74684C29.5214 12.3567 33.1837 18.7045 33.1692 23.8987C33.1623 26.479 32.2488 28.2964 30.7774 29.1514Z" fill="#BE1E2D"/>
<path d="M22.0837 29.9213C26.4449 32.439 30.0047 30.4104 30.0185 25.3992C30.0329 20.3886 26.4958 14.2616 22.1346 11.7446C17.7748 9.22696 14.2143 11.2555 14.2012 16.2661C14.1861 21.2767 17.7225 27.4036 22.0837 29.9213ZM22.136 11.4117C26.6554 14.0222 30.3191 20.37 30.3046 25.5642C30.2895 30.7585 26.6031 32.8593 22.0823 30.2487C17.5623 27.6396 13.9 21.2959 13.9151 16.1017C13.9295 10.9075 17.6166 8.80254 22.136 11.4117Z" fill="#631018"/>
<path d="M13.9614 6.81334C14.9169 6.25822 15.8717 5.7031 16.8258 5.14797C18.9176 3.93317 21.8143 4.10514 25.0123 5.95005L22.1466 7.61542C18.95 5.77051 16.0533 5.59853 13.9614 6.81334Z" fill="#BE1E2D"/>
<path d="M14.627 1.35693C17.2856 -0.188745 20.9658 0.0251913 25.023 2.36675C24.1782 2.85722 23.3342 3.3463 22.4922 3.83813L22.1572 4.03143C18.1015 1.69056 14.4213 1.47662 11.7612 3.0223C12.6211 2.5229 13.7671 1.85634 14.627 1.35693Z" fill="#F2F2F2"/>
<path d="M33.1217 33.1861C32.1662 33.7413 31.2108 34.2957 30.256 34.8508C32.321 33.6512 33.6011 31.0998 33.6122 27.4733C33.6321 20.17 28.4984 11.2825 22.1465 7.61538L25.0122 5.95001C31.3642 9.61781 36.4978 18.5053 36.4765 25.8086C36.4669 29.4351 35.1853 31.9865 33.1217 33.1861Z" fill="#BE1E2D"/>
<path d="M28.2867 4.67622C31.0059 6.96344 33.4355 9.96055 35.3389 13.2583C34.3841 13.8141 33.4286 14.3692 32.4732 14.9236C30.5602 11.6094 28.1161 8.59854 25.3797 6.3065C25.2854 6.22808 25.1912 6.14898 25.0977 6.07263C26.0524 5.5175 27.0079 4.96306 27.9634 4.40794C28.0707 4.4953 28.1794 4.58542 28.2867 4.67622Z" fill="#F2F2F2"/>
<path d="M22.0725 34.0502C28.4237 37.7174 33.5904 34.7732 33.6125 27.4734C33.6324 20.1701 28.4987 11.2826 22.1468 7.61548C15.7955 3.94836 10.6268 6.88907 10.6068 14.1924C10.5869 21.4908 15.7192 30.3824 22.0725 34.0502ZM22.1571 4.0316C30.2184 8.6872 36.752 20.0091 36.7265 29.2729C36.7011 38.5346 30.1228 42.2835 22.0622 37.6293C14.0008 32.9751 7.46593 21.6566 7.49276 12.3935C7.51821 3.13046 14.0958 -0.621952 22.1571 4.0316Z" fill="#F2F2F2"/>
<path d="M39.5916 27.6062C39.5778 32.2088 37.9482 35.4495 35.3232 36.9752L32.4575 38.6399C35.0825 37.1142 36.7121 33.8735 36.7258 29.2723C36.7389 24.64 35.1121 19.494 32.4733 14.923C33.4288 14.3685 34.3843 13.8134 35.3391 13.2576C37.9764 17.8279 39.6033 22.9747 39.5916 27.6062Z" fill="#F2F2F2"/>
<path d="M26.3382 3.19433C26.8892 3.56923 27.4319 3.97508 27.9644 4.40776C27.0089 4.96288 26.0534 5.51733 25.0986 6.07245C24.5662 5.63977 24.0248 5.23392 23.4725 4.85902C23.0398 4.5646 22.6009 4.28807 22.1572 4.03149L25.023 2.36681C25.4666 2.62339 25.9041 2.89923 26.3382 3.19433Z" fill="#F2F2F2"/>
<path d="M25.0226 2.03963C20.8863 -0.3494 17.1319 -0.567459 14.4209 1.00849C13.4654 1.56292 12.5106 2.11873 11.5552 2.67385C14.2661 1.09791 18.0206 1.31597 22.1582 3.7043C30.3778 8.45072 37.0434 19.9927 37.0152 29.4395C37.0028 34.1309 35.3395 37.4361 32.6623 38.9915C33.617 38.437 34.5725 37.8819 35.528 37.3275C38.2052 35.7701 39.8672 32.4655 39.8809 27.7748C39.9077 18.3281 33.2435 6.78535 25.0226 2.03963Z" fill="#911722"/>
<path d="M22.0634 37.6292C30.124 42.2834 36.7023 38.5344 36.7277 29.2727C36.7532 20.009 30.2197 8.68709 22.1583 4.03148C14.097 -0.622063 7.51943 3.13035 7.49398 12.3934C7.46715 21.6565 14.0021 32.975 22.0634 37.6292ZM22.1597 3.70405C30.3792 8.45046 37.0449 19.9925 37.0167 29.4392C36.9898 38.8811 30.2829 42.7078 22.062 37.9614C13.8404 33.2157 7.17687 21.6689 7.20369 12.2269C7.23052 2.78022 13.9388 -1.04236 22.1597 3.70405Z" fill="#631018"/>
<path d="M22.0968 25.2377C19.9795 24.016 18.268 21.0512 18.2763 18.6188C18.2824 16.1858 20.0049 15.2035 22.1222 16.4266C24.2402 17.6489 25.9503 20.613 25.9434 23.0461C25.9365 25.4791 24.2141 26.4607 22.0968 25.2377ZM22.1346 11.7441C17.7748 9.22646 14.2143 11.255 14.2012 16.2656C14.1861 21.2761 17.7225 27.4031 22.0837 29.9208C26.4449 32.4385 30.0047 30.4099 30.0185 25.3986C30.0329 20.3881 26.4958 14.2611 22.1346 11.7441Z" fill="#F2F2F2"/>
<path d="M22.1219 16.4271C24.2399 17.6494 25.95 20.6135 25.9431 23.0466C25.9362 25.4796 24.2137 26.4612 22.0964 25.2382C19.9791 24.0165 18.2677 21.0517 18.2759 18.6193C18.2821 16.1863 20.0046 15.204 22.1219 16.4271Z" fill="#BE1E2D"/>
<path d="M22.0828 30.249C26.6036 32.8595 30.2899 30.7587 30.3051 25.5645C30.3195 20.3703 26.6558 14.0225 22.1364 11.4119C17.617 8.80278 13.93 10.9077 13.9155 16.1019C13.9004 21.2962 17.5627 27.6398 22.0828 30.249ZM22.1474 7.61549C28.4994 11.2826 33.6331 20.1701 33.6131 27.4734C33.5911 34.7732 28.4244 37.7174 22.0732 34.0502C15.7198 30.3824 10.5875 21.4908 10.6075 14.1924C10.6274 6.88908 15.7962 3.94837 22.1474 7.61549Z" fill="#BE1E2D"/>
<path d="M2.92073 35.8967L2.44678 35.0306L3.42083 31.845L3.8934 32.7118L2.92073 35.8967Z" fill="#757575"/>
<path d="M4.44816 29.7932L3.97559 28.9271L7.71012 28.4992L8.18338 29.366L4.44816 29.7932Z" fill="#757575"/>
<path d="M0.474643 32.3402L0 31.4735L3.97598 28.9276L4.44856 29.7937L0.474643 32.3402Z" fill="#757575"/>
<path d="M8.18326 29.3659L4.44804 29.7931L0.474121 32.3396L3.89292 32.7118L2.92025 35.8967L6.89622 33.3501L8.7432 30.2079L8.23416 29.3335L8.18326 29.3659Z" fill="#333333"/>
<path d="M21.7904 20.4254L7.65088 28.5246L8.17779 29.359L21.9823 20.6469C21.9183 20.5733 21.8523 20.5011 21.7904 20.4254Z" fill="#757575"/>
<path d="M21.9827 20.6472L8.17822 29.3593L8.71684 30.2095L22.1856 20.8708C22.1175 20.7965 22.0474 20.7243 21.9827 20.6472Z" fill="#333333"/>
</svg>
