<svg width="29" height="40" viewBox="0 0 29 40" fill="none" xmlns="http://www.w3.org/2000/svg">
<path d="M20.7304 34.5795L20.7266 36.0424C20.7227 37.0544 20.0572 38.0645 18.73 38.8364C16.0609 40.3878 11.7193 40.3878 9.03299 38.837C7.67837 38.0549 7.00137 37.0283 7.00391 36.0036L7.00901 34.54C7.00647 35.5654 7.68283 36.592 9.03618 37.3735C11.7231 38.9249 16.0647 38.9249 18.7338 37.3735C20.0623 36.6016 20.7266 35.5909 20.7304 34.5795Z" fill="#090B0E"/>
<path d="M18.7096 31.7532C21.3965 33.3046 21.4048 35.8215 18.7344 37.3735C16.0653 38.925 11.7238 38.925 9.03681 37.3735C6.34922 35.8221 6.33011 33.3046 8.99987 31.7532C11.6703 30.2011 16.0214 30.2011 18.7096 31.7532Z" fill="#BABABA"/>
<path d="M16.4243 32.55C17.779 33.3651 17.7331 34.6644 16.3212 35.4515C14.9092 36.2387 12.6668 36.2158 11.3122 35.4012C9.95884 34.5854 10.0047 33.2868 11.4166 32.4997C12.8286 31.7125 15.071 31.7348 16.4243 32.55Z" fill="#BABABA"/>
<path d="M12.9689 28.8478C13.0141 28.765 13.0956 28.6873 13.2115 28.6223C13.5822 28.416 14.1719 28.4217 14.5279 28.6357L16.4258 32.5505C15.0725 31.7353 12.83 31.7131 11.4181 32.5002C10.9761 32.7467 10.6679 33.0428 10.4946 33.3581C11.3194 31.8551 12.1441 30.3514 12.9689 28.8478Z" fill="#BABABA"/>
<path d="M17.241 33.3392C17.0818 33.0526 16.8105 32.7819 16.4252 32.5501L14.5273 28.6352C14.628 28.6964 14.6999 28.7671 14.7407 28.8429C15.5743 30.3421 16.408 31.8406 17.241 33.3392Z" fill="#BABABA"/>
<path d="M14.5269 28.6357C14.8823 28.8497 14.8702 29.1917 14.4995 29.398C14.1288 29.605 13.5391 29.5993 13.1831 29.3846C12.8277 29.1706 12.8398 28.8293 13.2105 28.6223C13.5811 28.416 14.1709 28.4217 14.5269 28.6357Z" fill="#BABABA"/>
<path d="M13.1829 29.3847C12.939 29.2376 12.8683 29.0307 12.9677 28.8479C12.1429 30.3515 11.3182 31.8552 10.4934 33.3582C10.1132 34.053 10.382 34.8414 11.3124 35.4019C12.0041 35.8178 12.9282 36.0248 13.8548 36.0254V29.5478C13.6109 29.5478 13.3657 29.4949 13.1829 29.3847Z" fill="#8F8F8F"/>
<path d="M17.2411 33.3397C16.408 31.8412 15.5744 30.3426 14.7407 28.8434C14.8464 29.0332 14.7662 29.2504 14.5 29.3981C14.3191 29.4987 14.0867 29.5472 13.8555 29.5478V36.0254C14.742 36.0254 15.6317 35.8369 16.3221 35.4522C17.3321 34.8886 17.6429 34.0626 17.2411 33.3397Z" fill="#737373"/>
<path d="M28.3035 37.4557C27.4144 37.9722 26.526 38.4887 25.6382 39.0052C25.9452 38.8256 26.1343 38.4607 26.1356 37.9423L28.8015 36.3927C28.8002 36.9118 28.6124 37.2767 28.3035 37.4557Z" fill="#DBDBDB"/>
<path d="M26.1394 35.9365L28.8047 34.387C28.8047 34.4323 28.8028 35.2831 28.8002 36.3932L26.1343 37.9427C26.1368 36.8326 26.1394 35.9811 26.1394 35.9365Z" fill="#DBDBDB"/>
<path d="M0.00537109 20.8468L2.67194 19.2973L28.8059 34.3867L26.1406 35.9362L0.00537109 20.8468Z" fill="#DBDBDB"/>
<path d="M26.1403 35.9357C26.1403 35.9803 26.1378 36.8318 26.1353 37.9419C26.1327 39.0513 25.2748 39.4576 24.2145 38.8462L1.9119 25.9693C0.852146 25.3573 -0.00380848 23.9619 1.27446e-05 22.8519L0.00511268 20.8463L26.1403 35.9357Z" fill="#DBDBDB"/>
<path d="M0.777344 20.4062L3.44265 18.8567L15.3445 25.7285L12.6785 27.278L0.777344 20.4062Z" fill="#090B0E"/>
<path d="M0.825747 2.87258L3.49233 1.32372L3.44265 18.8567L0.777344 20.4062L0.825747 2.87258Z" fill="#090B0E"/>
<path d="M12.6782 27.2784L15.3442 25.7289L28.0427 33.0605L25.3774 34.6094L12.6782 27.2784Z" fill="#090B0E"/>
<path d="M0.825684 2.87297L3.49227 1.32412L15.3941 8.19594L12.7282 9.74481L0.825684 2.87297Z" fill="#2CBCA5"/>
<path d="M25.4271 17.0763L28.0924 15.5268L28.0427 33.0605L25.3774 34.6094L25.4271 17.0763Z" fill="#2CBCA5"/>
<path d="M12.728 9.74453L15.394 8.19566L28.0925 15.5267L25.4272 17.0762L12.728 9.74453Z" fill="#2CBCA5"/>
<path d="M25.3783 34.6096L25.4279 17.0766L12.7288 9.74494L0.82629 2.8731L0.777887 20.4068L12.6791 27.2786L25.3783 34.6096ZM0.0601488 1.54906L26.1967 16.6391L26.1406 35.9362L0.00537109 20.8468L0.0601488 1.54906Z" fill="#090B0E"/>
<path d="M25.4274 17.0763L25.3777 34.6094L12.6785 27.2784L0.777344 20.4065L0.825747 2.87286L12.7282 9.7447L25.4274 17.0763Z" fill="#2CBCA5"/>
<path d="M0.0600586 1.54868L2.72535 -0.000196457L28.8619 15.0892L26.1966 16.6387L0.0600586 1.54868Z" fill="#8F8F8F"/>
<path d="M26.1967 16.6391L28.862 15.0895L28.8059 34.3867L26.1406 35.9362L26.1967 16.6391Z" fill="#4F4F4F"/>
<path d="M12.9685 29.6997C13.2748 29.8761 13.5194 30.3002 13.5188 30.6588C13.5175 31.0097 13.271 31.1504 12.9647 30.974C12.6603 30.7976 12.4087 30.3696 12.4087 30.0181C12.4112 29.6602 12.6628 29.5232 12.9685 29.6997Z" fill="#090B0E"/>
<path d="M2.13525 6.31556L13.4601 12.8027V19.707L2.13525 13.4453V6.31556Z" fill="white"/>
<path d="M14.6655 13.6558L23.988 19.1914V25.513L14.6655 20.3518V13.6558Z" fill="white"/>
<path d="M2.13525 15.0894L23.9882 27.2785V31.9238L2.13525 19.6093V15.0894Z" fill="white"/>
</svg>
