<svg width="42" height="42" viewBox="0 0 42 42" fill="none" xmlns="http://www.w3.org/2000/svg">
<g clip-path="url(#clip0_807_617)">
<path d="M19.2948 19.8083C17.482 18.9472 14.303 18.2132 10.4661 18.0372C4.4149 17.7596 -9.86718e-07 19.5173 -9.06908e-07 21.3432C-8.54998e-07 22.5307 1.98228 23.572 4.95868 24.155C3.82027 23.6759 3.19243 23.0661 3.19243 22.34C3.19243 20.7302 8.60568 17.6208 16.6562 19.2864C17.6166 19.4851 18.4941 19.657 19.2948 19.8083Z" fill="#C24A49"/>
<path d="M22.7052 22.3733C24.518 23.2344 27.697 23.9684 31.5339 24.1444C37.5851 24.422 42 22.6643 42 20.8385C42 19.6509 40.0177 18.6096 37.0413 18.0267C38.1797 18.5057 38.8076 19.1155 38.8076 19.8416C38.8076 21.4514 33.3943 24.5608 25.3438 22.8952C24.3834 22.6965 23.5059 22.5247 22.7052 22.3733Z" fill="#C24A49"/>
<path d="M22.2825 19.3856C23.1436 17.5728 23.8776 14.3938 24.0536 10.557C24.3312 4.50572 22.5735 0.0908207 20.7476 0.0908207C19.5601 0.0908207 18.5188 2.0731 17.9359 5.0495C18.4149 3.91109 19.0247 3.28325 19.7508 3.28325C21.3606 3.28325 24.47 8.6965 22.8044 16.747C22.6057 17.7075 22.4338 18.585 22.2825 19.3856Z" fill="#C24A49"/>
<path d="M19.7175 22.796C18.8564 24.6089 18.1224 27.7879 17.9464 31.6247C17.6688 37.6759 19.4265 42.0908 21.2524 42.0908C22.4399 42.0908 23.4812 40.1085 24.0641 37.1321C23.5851 38.2705 22.9753 38.8984 22.2492 38.8984C20.6394 38.8984 17.53 33.4851 19.1956 25.4347C19.3943 24.4742 19.5662 23.5967 19.7175 22.796Z" fill="#C24A49"/>
<path d="M20.7011 18.9782C20.0281 17.0874 18.2992 14.3205 15.7106 11.483C11.628 7.00786 7.26333 5.12896 5.97226 6.42003C5.13254 7.25975 5.79791 9.39775 7.49035 11.9146C7.02412 10.7709 7.01137 9.8957 7.52479 9.38228C8.6631 8.24397 14.6895 9.87304 19.2043 16.7433C19.7429 17.563 20.2419 18.305 20.7011 18.9782Z" fill="#C24A49"/>
<path d="M21.2988 23.2035C21.9719 25.0942 23.7007 27.8611 26.2893 30.6986C30.3719 35.1738 34.7366 37.0527 36.0276 35.7616C36.8674 34.9219 36.202 32.7839 34.5096 30.2671C34.9758 31.4108 34.9885 32.2859 34.4751 32.7994C33.3368 33.9377 27.3104 32.3086 22.7956 25.4383C22.257 24.6186 21.758 23.8766 21.2988 23.2035Z" fill="#C24A49"/>
<path d="M23.1126 20.7919C25.0033 20.1189 27.7703 18.3901 30.6078 15.8015C35.0829 11.7189 36.9618 7.3542 35.6707 6.06313C34.831 5.2234 32.693 5.88877 30.1762 7.58122C31.3199 7.11499 32.1951 7.10223 32.7085 7.61566C33.8468 8.75397 32.2177 14.7804 25.3474 19.2952C24.5277 19.8338 23.7857 20.3328 23.1126 20.7919Z" fill="#C24A49"/>
<path d="M18.8873 21.3897C16.9966 22.0627 14.2297 23.7916 11.3921 26.3802C6.91699 30.4627 5.03809 34.8274 6.32916 36.1185C7.16888 36.9582 9.30689 36.2929 11.8237 34.6004C10.68 35.0667 9.80483 35.0794 9.29141 34.566C8.1531 33.4277 9.78217 27.4013 16.6525 22.8865C17.4722 22.3478 18.2142 21.8489 18.8873 21.3897Z" fill="#C24A49"/>
<path d="M18.9338 20.5585C16.9294 20.4567 13.7115 20.9951 10.0994 22.3008C4.40258 24.36 0.996398 27.6735 1.69512 29.3603C2.14958 30.4575 4.37946 30.6609 7.35237 30.0605C6.11729 30.0535 5.30387 29.7304 5.02601 29.0596C4.40996 27.5723 8.22124 22.628 16.2963 21.0861C17.2597 20.9021 18.1362 20.7251 18.9338 20.5585Z" fill="#C24A49"/>
<path d="M23.0662 21.6232C25.0706 21.7249 28.2885 21.1865 31.9006 19.8809C37.5974 17.8216 41.0036 14.5082 40.3049 12.8213C39.8505 11.7242 37.6206 11.5207 34.6477 12.1212C35.8827 12.1281 36.6962 12.4512 36.974 13.1221C37.5901 14.6093 33.7788 19.5536 25.7037 21.0956C24.7403 21.2795 23.8638 21.4566 23.0662 21.6232Z" fill="#C24A49"/>
<path d="M21.5324 19.0246C21.6341 17.0203 21.0957 13.8024 19.7901 10.1902C17.7308 4.49339 14.4174 1.08721 12.7305 1.78593C11.6334 2.24039 11.4299 4.47027 12.0304 7.44318C12.0373 6.2081 12.3604 5.39468 13.0313 5.11682C14.5185 4.50077 19.4628 8.31205 21.0048 16.3871C21.1887 17.3505 21.3658 18.227 21.5324 19.0246Z" fill="#C24A49"/>
<path d="M20.4677 23.157C20.3659 25.1614 20.9043 28.3793 22.21 31.9914C24.2692 37.6883 27.5827 41.0944 29.2695 40.3957C30.3667 39.9413 30.5701 37.7114 29.9697 34.7385C29.9627 35.9736 29.6396 36.787 28.9688 37.0648C27.4815 37.6809 22.5372 33.8696 20.9953 25.7945C20.8113 24.8311 20.6343 23.9546 20.4677 23.157Z" fill="#C24A49"/>
<path d="M19.9154 19.2534C18.57 17.7641 15.9139 15.8694 12.4365 14.2385C6.95213 11.6663 2.20064 11.6008 1.50192 13.2876C1.04746 14.3848 2.48036 16.1054 5.00712 17.783C4.13869 16.9047 3.79201 16.1011 4.06987 15.4303C4.68592 13.943 10.877 13.1418 17.6773 17.7615C18.4886 18.3126 19.2336 18.8072 19.9154 19.2534Z" fill="#C24A49"/>
<path d="M22.0846 22.9283C23.4299 24.4175 26.086 26.3122 29.5634 27.9431C35.0478 30.5153 39.7993 30.5809 40.498 28.894C40.9525 27.7969 39.5196 26.0762 36.9928 24.3987C37.8612 25.2769 38.2079 26.0806 37.9301 26.7514C37.314 28.2387 31.1229 29.0398 24.3226 24.4202C23.5113 23.869 22.7664 23.3745 22.0846 22.9283Z" fill="#C24A49"/>
<path d="M22.8374 20.0062C24.3267 18.6609 26.2214 16.0048 27.8523 12.5274C30.4244 7.04299 30.49 2.2915 28.8032 1.59278C27.706 1.13832 25.9854 2.57122 24.3078 5.09798C25.186 4.22955 25.9897 3.88287 26.6605 4.16073C28.1478 4.77678 28.9489 10.9679 24.3293 17.7681C23.7782 18.5795 23.2836 19.3244 22.8374 20.0062Z" fill="#C24A49"/>
<path d="M19.1625 22.1754C17.6733 23.5208 15.7785 26.1769 14.1476 29.6543C11.5755 35.1386 11.5099 39.8901 13.1968 40.5889C14.2939 41.0433 16.0145 39.6104 17.6921 37.0837C16.8139 37.9521 16.0102 38.2988 15.3394 38.0209C13.8521 37.4049 13.051 31.2138 17.6706 24.4135C18.2217 23.6022 18.7163 22.8572 19.1625 22.1754Z" fill="#C24A49"/>
</g>
<defs>
<clipPath id="clip0_807_617">
<rect width="41.8182" height="41.8182" fill="white" transform="translate(0 0.0908203)"/>
</clipPath>
</defs>
</svg>
