<svg width="38" height="38" viewBox="0 0 38 38" fill="none" xmlns="http://www.w3.org/2000/svg">
<g clip-path="url(#clip0_895_637)">
<path d="M17.4572 17.9216C15.817 17.1426 12.9408 16.4785 9.46935 16.3192C3.99444 16.0681 -8.92745e-07 17.6584 -8.20536e-07 19.3104C-7.7357e-07 20.3848 1.79349 21.3269 4.48642 21.8544C3.45644 21.4209 2.88839 20.8692 2.88839 20.2122C2.88839 18.7558 7.78609 15.9425 15.0699 17.4495C15.9389 17.6293 16.7328 17.7848 17.4572 17.9216Z" fill="#11819B"/>
<path d="M20.5428 20.2424C22.183 21.0215 25.0592 21.6856 28.5306 21.8448C34.0056 22.096 38 20.5057 38 18.8537C38 17.7792 36.2065 16.8371 33.5136 16.3097C34.5436 16.7431 35.1116 17.2949 35.1116 17.9518C35.1116 19.4083 30.2139 22.2216 22.9301 20.7146C22.0611 20.5348 21.2672 20.3793 20.5428 20.2424Z" fill="#11819B"/>
<path d="M20.1604 17.5392C20.9394 15.899 21.6036 13.0228 21.7628 9.55139C22.014 4.07647 20.4236 0.0820309 18.7717 0.0820309C17.6972 0.0820309 16.7551 1.87553 16.2277 4.56846C16.6611 3.53847 17.2128 2.97042 17.8698 2.97042C19.3263 2.97042 22.1395 7.86812 20.6326 15.1519C20.4528 16.0209 20.2973 16.8148 20.1604 17.5392Z" fill="#11819B"/>
<path d="M17.8396 20.6248C17.0606 22.265 16.3964 25.1413 16.2372 28.6127C15.986 34.0876 17.5764 38.082 19.2283 38.082C20.3028 38.082 21.2449 36.2885 21.7723 33.5956C21.3389 34.6256 20.7872 35.1936 20.1302 35.1936C18.6737 35.1936 15.8605 30.2959 17.3674 23.0122C17.5472 22.1432 17.7027 21.3492 17.8396 20.6248Z" fill="#11819B"/>
<path d="M18.7295 17.1706C18.1206 15.4599 16.5564 12.9565 14.2144 10.3892C10.5206 6.3403 6.57159 4.64034 5.40348 5.80845C4.64372 6.56821 5.24572 8.50259 6.77698 10.7797C6.35515 9.74492 6.34362 8.95311 6.80814 8.48859C7.83804 7.45869 13.2905 8.93261 17.3753 15.1486C17.8627 15.8902 18.3141 16.5616 18.7295 17.1706Z" fill="#11819B"/>
<path d="M19.2704 20.9935C19.8793 22.7041 21.4435 25.2075 23.7855 27.7748C27.4793 31.8238 31.4283 33.5237 32.5964 32.3556C33.3562 31.5959 32.7542 29.6615 31.2229 27.3843C31.6448 28.4191 31.6563 29.211 31.1918 29.6755C30.1619 30.7054 24.7094 29.2315 20.6246 23.0155C20.1372 22.2738 19.6858 21.6025 19.2704 20.9935Z" fill="#11819B"/>
<path d="M20.9114 18.8116C22.6221 18.2027 25.1255 16.6385 27.6927 14.2964C31.7417 10.6027 33.4416 6.65366 32.2735 5.48555C31.5138 4.7258 29.5794 5.3278 27.3023 6.85905C28.3371 6.43723 29.1289 6.42569 29.5934 6.89021C30.6233 7.92012 29.1494 13.3726 22.9334 17.4574C22.1918 17.9447 21.5204 18.3962 20.9114 18.8116Z" fill="#11819B"/>
<path d="M17.0885 19.3524C15.3779 19.9614 12.8744 21.5256 10.3072 23.8676C6.25823 27.5614 4.55827 31.5104 5.72638 32.6785C6.48613 33.4383 8.42052 32.8363 10.6976 31.305C9.66284 31.7268 8.87104 31.7384 8.40651 31.2738C7.37661 30.2439 8.85053 24.7915 15.0665 20.7067C15.8081 20.2193 16.4795 19.7679 17.0885 19.3524Z" fill="#11819B"/>
<path d="M17.1306 18.6004C15.3171 18.5083 12.4057 18.9954 9.13757 20.1768C3.98329 22.0399 0.901503 25.0378 1.53368 26.564C1.94486 27.5566 3.96237 27.7407 6.65214 27.1974C5.53469 27.1912 4.79874 26.8988 4.54734 26.2919C3.98996 24.9462 7.43826 20.4729 14.7443 19.0777C15.6159 18.9113 16.4089 18.7511 17.1306 18.6004Z" fill="#11819B"/>
<path d="M20.8694 19.5637C22.6829 19.6557 25.5943 19.1686 28.8625 17.9873C34.0167 16.1242 37.0985 13.1263 36.4663 11.6001C36.0552 10.6074 34.0377 10.4234 31.3479 10.9666C32.4653 10.9729 33.2013 11.2653 33.4527 11.8722C34.0101 13.2178 30.5618 17.6912 23.2557 19.0863C22.3841 19.2528 21.5911 19.4129 20.8694 19.5637Z" fill="#11819B"/>
<path d="M19.4817 17.2126C19.5737 15.3991 19.0866 12.4877 17.9053 9.21959C16.0422 4.06531 13.0443 0.983524 11.5181 1.6157C10.5254 2.02688 10.3413 4.04439 10.8846 6.73416C10.8909 5.61671 11.1833 4.88076 11.7902 4.62936C13.1358 4.07198 17.6092 7.52028 19.0043 14.8263C19.1707 15.698 19.3309 16.491 19.4817 17.2126Z" fill="#11819B"/>
<path d="M18.5184 20.9515C18.4263 22.7649 18.9134 25.6764 20.0947 28.9445C21.9579 34.0988 24.9557 37.1805 26.4819 36.5484C27.4746 36.1372 27.6587 34.1197 27.1154 31.4299C27.1091 32.5474 26.8168 33.2833 26.2098 33.5347C24.8642 34.0921 20.3908 30.6438 18.9957 23.3378C18.8293 22.4661 18.6691 21.6731 18.5184 20.9515Z" fill="#11819B"/>
<path d="M18.0187 17.4196C16.8014 16.0722 14.3983 14.3579 11.2521 12.8823C6.29003 10.5551 1.99105 10.4958 1.35888 12.022C0.947702 13.0147 2.24413 14.5714 4.53025 16.0892C3.74453 15.2946 3.43086 14.5675 3.68226 13.9606C4.23964 12.6149 9.84112 11.8901 15.9937 16.0697C16.7278 16.5684 17.4018 17.0159 18.0187 17.4196Z" fill="#11819B"/>
<path d="M19.9813 20.7445C21.1985 22.0919 23.6016 23.8062 26.7479 25.2818C31.7099 27.6089 36.0089 27.6683 36.6411 26.1421C37.0522 25.1494 35.7558 23.5926 33.4697 22.0748C34.2554 22.8694 34.5691 23.5966 34.3177 24.2035C33.7603 25.5491 28.1588 26.274 22.0062 22.0943C21.2721 21.5957 20.5981 21.1482 19.9813 20.7445Z" fill="#11819B"/>
<path d="M20.6624 18.1007C22.0098 16.8835 23.7241 14.4804 25.1997 11.3341C27.5269 6.37209 27.5862 2.07312 26.06 1.44094C25.0673 1.02977 23.5106 2.3262 21.9928 4.61231C22.7874 3.8266 23.5145 3.51293 24.1214 3.76433C25.4671 4.32171 26.1919 9.92318 22.0123 16.0758C21.5136 16.8099 21.0661 17.4839 20.6624 18.1007Z" fill="#11819B"/>
<path d="M17.3375 20.0633C15.9901 21.2805 14.2758 23.6837 12.8002 26.8299C10.473 31.792 10.4137 36.0909 11.9399 36.7231C12.9326 37.1343 14.4894 35.8379 16.0072 33.5517C15.2126 34.3375 14.4854 34.6511 13.8785 34.3997C12.5329 33.8424 11.808 28.2409 15.9877 22.0883C16.4863 21.3542 16.9338 20.6802 17.3375 20.0633Z" fill="#11819B"/>
</g>
<defs>
<clipPath id="clip0_895_637">
<rect width="37.8355" height="37.8355" fill="white" transform="translate(0 0.0820312)"/>
</clipPath>
</defs>
</svg>
