<svg width="149" height="32" viewBox="0 0 149 32" fill="none" xmlns="http://www.w3.org/2000/svg">
<path d="M138.439 17.854C138.439 17.5457 138.516 17.1988 138.632 16.8904C138.786 16.5821 138.979 16.2738 139.248 16.004C139.518 15.7342 139.826 15.5029 140.25 15.3102C140.636 15.1175 141.098 15.0404 141.638 15.0404C142.178 15.0404 142.602 15.1175 142.987 15.3102C143.372 15.5029 143.681 15.7342 143.951 16.004C144.22 16.2738 144.375 16.5821 144.529 16.8904C144.644 17.2373 144.721 17.5457 144.721 17.854H138.439ZM146.841 22.3636C146.494 22.6334 145.955 22.9032 145.223 23.2501C144.49 23.597 143.527 23.7897 142.332 23.7897C141.137 23.7897 140.173 23.4813 139.48 22.9032C138.786 22.2865 138.439 21.5927 138.4 20.7833H149V20.0125C149 18.7791 148.846 17.6228 148.537 16.5821C148.229 15.5414 147.766 14.6549 147.111 13.8841C146.494 13.1518 145.724 12.5351 144.799 12.1111C143.874 11.6871 142.833 11.4944 141.638 11.4944C140.443 11.4944 139.364 11.7257 138.4 12.1496C137.437 12.5736 136.666 13.1518 136.011 13.8841C135.355 14.6164 134.854 15.4258 134.508 16.3894C134.161 17.353 133.968 18.3551 133.968 19.3958C133.968 20.5906 134.161 21.6698 134.508 22.6334C134.893 23.597 135.433 24.4449 136.126 25.1387C136.82 25.8325 137.707 26.3721 138.709 26.7575C139.711 27.1429 140.867 27.3357 142.139 27.3357C143.103 27.3357 143.951 27.2586 144.683 27.0659C145.415 26.8731 146.07 26.6804 146.61 26.4492C147.15 26.2179 147.574 25.9866 147.921 25.7554C148.267 25.5241 148.499 25.3314 148.691 25.2158L146.841 22.3636ZM96.3497 22.9032C96.0414 23.0959 95.7331 23.2886 95.3862 23.4428C95.0393 23.597 94.6538 23.6741 94.1913 23.6741C93.5746 23.6741 93.1121 23.4813 92.8423 23.0959C92.5725 22.7105 92.4183 22.1323 92.4183 21.4385V15.58H96.2341V11.9955H92.4183V8.02551H87.8317V11.9955H85.4806V15.58H87.8317V21.1687C87.8317 22.0938 87.9088 22.9417 88.1015 23.7126C88.2942 24.4835 88.6026 25.1387 89.0651 25.6783C89.489 26.2179 90.1057 26.6419 90.7995 26.9502C91.5318 27.2586 92.4183 27.4127 93.459 27.4127C95.1549 27.4127 96.6966 26.8346 98.1613 25.7168L96.3497 22.9032ZM135.818 6.71504C135.124 6.13689 134.392 5.75146 133.582 5.5202C132.773 5.28894 131.964 5.17331 131.154 5.17331C130.383 5.17331 129.651 5.28894 128.919 5.5202C128.186 5.75146 127.531 6.13689 126.953 6.63795C126.375 7.13901 125.912 7.75571 125.566 8.52657C125.219 9.29743 125.026 10.1839 125.026 11.2631V12.034H122.636V15.6185H125.026V26.9117H129.574V15.6185H133.081V11.9955H129.574V11.1861C129.574 10.4537 129.767 9.87558 130.152 9.49015C130.538 9.10472 131.039 8.87346 131.655 8.87346C132.041 8.87346 132.465 8.95055 132.812 9.06618C133.197 9.18181 133.544 9.37452 133.852 9.60578L135.818 6.71504ZM115.776 26.8731H120.324V11.9955H118.05H115.776V26.8731ZM99.8957 26.8731H113.81V22.9417H104.714V5.71291H99.9343V26.8731H99.8957ZM73.802 17.854C73.802 17.5457 73.879 17.1988 73.9947 16.8904C74.1488 16.5821 74.3416 16.2738 74.6114 16.004C74.8812 15.7342 75.1895 15.5029 75.6135 15.3102C75.9989 15.1175 76.4614 15.0404 77.001 15.0404C77.5406 15.0404 77.9646 15.1175 78.3501 15.3102C78.7355 15.5029 79.0438 15.7342 79.3136 16.004C79.5834 16.2738 79.7762 16.5821 79.8918 16.8904C80.0074 17.2373 80.0845 17.5457 80.0845 17.854H73.802ZM82.2044 22.3636C81.8575 22.6334 81.3179 22.9032 80.5856 23.2501C79.8532 23.597 78.8897 23.7897 77.6948 23.7897C76.5 23.7897 75.5364 23.4813 74.8426 22.9032C74.1488 22.2865 73.802 21.5927 73.7634 20.7833H84.3628V20.0125C84.3628 18.7791 84.2086 17.6228 83.9003 16.5821C83.5919 15.5414 83.1294 14.6549 82.4742 13.8841C81.8575 13.1518 81.0866 12.5351 80.1616 12.1111C79.2365 11.6871 78.1959 11.4944 77.001 11.4944C75.8062 11.4944 74.727 11.7257 73.7634 12.1496C72.7998 12.5736 72.029 13.1518 71.3737 13.8841C70.7185 14.6164 70.2174 15.4258 69.8705 16.3894C69.5237 17.353 69.3309 18.3551 69.3309 19.3958C69.3309 20.5906 69.5237 21.6698 69.8705 22.6334C70.256 23.597 70.7956 24.4449 71.4894 25.1387C72.1831 25.8325 73.0696 26.3721 74.0718 26.7575C75.0739 27.1429 76.2302 27.3357 77.5021 27.3357C78.4657 27.3357 79.3136 27.2586 80.046 27.0659C80.7783 26.8731 81.4335 26.6804 81.9731 26.4492C82.5127 26.2179 82.9367 25.9866 83.2836 25.7554C83.6305 25.5241 83.8617 25.3314 84.0545 25.2158L82.2044 22.3636ZM45.5112 26.8731H50.0593L50.5989 13.1518L55.2241 21.2844H57.6909L62.0463 13.0361L62.663 26.8346H67.4423L66.4787 5.71291H61.8921L56.496 15.6185L51.0229 5.71291H46.4748L45.5112 26.8731ZM118.05 10.2996C116.623 10.2996 115.467 9.14326 115.467 7.71716C115.467 6.29106 116.623 5.13477 118.05 5.13477C119.476 5.13477 120.632 6.25252 120.632 7.71716C120.632 9.14326 119.476 10.2996 118.05 10.2996Z" fill="#2CBCA5"/>
<path d="M17.3833 10.3838C20.9678 15.1246 23.0877 21.0602 23.0877 27.4584C23.0877 29.0001 22.9721 30.5419 22.7408 32.0065H33.1475C34.034 32.0065 34.7663 31.2742 34.7663 30.3492V1.63445C34.7663 0.555238 33.7642 -0.215625 32.7235 0.0541771C26.518 1.71154 21.122 5.41168 17.3833 10.3838Z" fill="#2CBCA5"/>
<path d="M12.0255 32.0065C11.7942 30.5419 11.6786 29.0001 11.6786 27.4584C11.6786 21.0602 13.7985 15.1246 17.383 10.3838C13.6058 5.41168 8.24825 1.71154 2.04279 0.0541771C1.00212 -0.215625 0 0.555238 0 1.63445V30.3492C0 31.2356 0.732321 32.0065 1.61882 32.0065H12.0255Z" fill="#2CBCA5"/>
<path d="M17.3831 10.3838C13.7986 15.1246 11.6787 21.0603 11.6787 27.4584C11.6787 29.0002 11.7943 30.5419 12.0256 32.0065H22.7406C22.9719 30.5419 23.0875 29.0002 23.0875 27.4584C23.0875 21.0603 20.9676 15.1246 17.3831 10.3838Z" fill="white"/>
</svg>
