<svg width="38" height="38" viewBox="0 0 38 38" fill="none" xmlns="http://www.w3.org/2000/svg">
<g clip-path="url(#clip0_895_637)">
<path d="M17.4572 17.8396C15.817 17.0606 12.9408 16.3964 9.46935 16.2372C3.99444 15.986 -8.92745e-07 17.5764 -8.20536e-07 19.2283C-7.7357e-07 20.3028 1.79349 21.2449 4.48642 21.7723C3.45644 21.3389 2.88839 20.7872 2.88839 20.1302C2.88839 18.6737 7.78609 15.8605 15.0699 17.3674C15.9389 17.5472 16.7328 17.7027 17.4572 17.8396Z" fill="#155FFF"/>
<path d="M20.5428 20.1604C22.183 20.9394 25.0592 21.6036 28.5306 21.7628C34.0056 22.014 38 20.4236 38 18.7717C38 17.6972 36.2065 16.7551 33.5136 16.2277C34.5436 16.6611 35.1116 17.2128 35.1116 17.8698C35.1116 19.3263 30.2139 22.1395 22.9301 20.6326C22.0611 20.4528 21.2672 20.2973 20.5428 20.1604Z" fill="#155FFF"/>
<path d="M20.1604 17.4572C20.9394 15.817 21.6036 12.9408 21.7628 9.46936C22.014 3.99444 20.4236 -3.43699e-07 18.7717 -3.43699e-07C17.6972 -3.43699e-07 16.7551 1.79349 16.2277 4.48642C16.6611 3.45644 17.2128 2.88839 17.8698 2.88839C19.3263 2.88839 22.1395 7.78609 20.6326 15.0699C20.4528 15.9389 20.2973 16.7328 20.1604 17.4572Z" fill="#155FFF"/>
<path d="M17.8396 20.5428C17.0606 22.183 16.3964 25.0592 16.2372 28.5306C15.986 34.0056 17.5764 38 19.2283 38C20.3028 38 21.2449 36.2065 21.7723 33.5136C21.3389 34.5436 20.7872 35.1116 20.1302 35.1116C18.6737 35.1116 15.8605 30.2139 17.3674 22.9301C17.5472 22.0611 17.7027 21.2672 17.8396 20.5428Z" fill="#155FFF"/>
<path d="M18.7295 17.0886C18.1206 15.3779 16.5564 12.8745 14.2144 10.3072C10.5206 6.25827 6.57159 4.55831 5.40348 5.72642C4.64372 6.48618 5.24572 8.42056 6.77698 10.6977C6.35515 9.66289 6.34362 8.87108 6.80814 8.40655C7.83804 7.37665 13.2905 8.85058 17.3753 15.0666C17.8627 15.8082 18.3141 16.4795 18.7295 17.0886Z" fill="#155FFF"/>
<path d="M19.2704 20.9114C19.8793 22.6221 21.4435 25.1255 23.7855 27.6928C27.4793 31.7417 31.4283 33.4417 32.5964 32.2736C33.3562 31.5138 32.7542 29.5794 31.2229 27.3023C31.6448 28.3371 31.6563 29.1289 31.1918 29.5934C30.1619 30.6233 24.7094 29.1494 20.6246 22.9334C20.1372 22.1918 19.6858 21.5205 19.2704 20.9114Z" fill="#155FFF"/>
<path d="M20.9114 18.7296C22.6221 18.1207 25.1255 16.5565 27.6927 14.2144C31.7417 10.5207 33.4416 6.57163 32.2735 5.40352C31.5138 4.64376 29.5794 5.24577 27.3023 6.77702C28.3371 6.3552 29.1289 6.34366 29.5934 6.80818C30.6233 7.83808 29.1494 13.2906 22.9334 17.3754C22.1918 17.8627 21.5204 18.3142 20.9114 18.7296Z" fill="#155FFF"/>
<path d="M17.0885 19.2704C15.3779 19.8793 12.8744 21.4435 10.3072 23.7856C6.25823 27.4793 4.55827 31.4284 5.72638 32.5965C6.48613 33.3562 8.42052 32.7542 10.6976 31.223C9.66284 31.6448 8.87104 31.6563 8.40651 31.1918C7.37661 30.1619 8.85053 24.7094 15.0665 20.6246C15.8081 20.1373 16.4795 19.6858 17.0885 19.2704Z" fill="#155FFF"/>
<path d="M17.1306 18.5184C15.3171 18.4263 12.4057 18.9134 9.13757 20.0947C3.98329 21.9578 0.901503 24.9557 1.53368 26.4819C1.94486 27.4746 3.96237 27.6587 6.65214 27.1154C5.53469 27.1091 4.79874 26.8168 4.54734 26.2098C3.98996 24.8642 7.43826 20.3908 14.7443 18.9957C15.6159 18.8293 16.4089 18.6691 17.1306 18.5184Z" fill="#155FFF"/>
<path d="M20.8694 19.4816C22.6829 19.5737 25.5943 19.0866 28.8625 17.9053C34.0167 16.0422 37.0985 13.0443 36.4663 11.5181C36.0552 10.5254 34.0377 10.3413 31.3479 10.8846C32.4653 10.8909 33.2013 11.1832 33.4527 11.7902C34.0101 13.1358 30.5618 17.6092 23.2557 19.0043C22.3841 19.1707 21.5911 19.3309 20.8694 19.4816Z" fill="#155FFF"/>
<path d="M19.4817 17.1306C19.5737 15.3171 19.0866 12.4057 17.9053 9.13756C16.0422 3.98328 13.0443 0.901493 11.5181 1.53367C10.5254 1.94485 10.3413 3.96236 10.8846 6.65213C10.8909 5.53468 11.1833 4.79873 11.7902 4.54733C13.1358 3.98995 17.6092 7.43825 19.0043 14.7443C19.1707 15.6159 19.3309 16.4089 19.4817 17.1306Z" fill="#155FFF"/>
<path d="M18.5184 20.8694C18.4263 22.6829 18.9134 25.5943 20.0947 28.8624C21.9579 34.0167 24.9557 37.0985 26.4819 36.4663C27.4746 36.0552 27.6587 34.0376 27.1154 31.3479C27.1091 32.4653 26.8168 33.2013 26.2098 33.4527C24.8642 34.0101 20.3908 30.5618 18.9957 23.2557C18.8293 22.3841 18.6691 21.5911 18.5184 20.8694Z" fill="#155FFF"/>
<path d="M18.0187 17.3375C16.8014 15.9901 14.3983 14.2759 11.2521 12.8003C6.29003 10.4731 1.99105 10.4138 1.35888 11.94C0.947702 12.9326 2.24413 14.4894 4.53025 16.0072C3.74453 15.2126 3.43086 14.4855 3.68226 13.8785C4.23964 12.5329 9.84112 11.8081 15.9937 15.9877C16.7278 16.4864 17.4018 16.9339 18.0187 17.3375Z" fill="#155FFF"/>
<path d="M19.9813 20.6625C21.1985 22.0099 23.6016 23.7241 26.7479 25.1997C31.7099 27.5269 36.0089 27.5862 36.6411 26.06C37.0522 25.0674 35.7558 23.5106 33.4697 21.9928C34.2554 22.7874 34.5691 23.5145 34.3177 24.1215C33.7603 25.4671 28.1588 26.1919 22.0062 22.0123C21.2721 21.5136 20.5981 21.0661 19.9813 20.6625Z" fill="#155FFF"/>
<path d="M20.6624 18.0187C22.0098 16.8015 23.7241 14.3983 25.1997 11.2521C27.5269 6.29006 27.5862 1.99109 26.06 1.35891C25.0673 0.947737 23.5106 2.24417 21.9928 4.53028C22.7874 3.74457 23.5145 3.4309 24.1214 3.6823C25.4671 4.23968 26.1919 9.84115 22.0123 15.9938C21.5136 16.7278 21.0661 17.4018 20.6624 18.0187Z" fill="#155FFF"/>
<path d="M17.3375 19.9813C15.9901 21.1985 14.2758 23.6017 12.8002 26.7479C10.473 31.7099 10.4137 36.0089 11.9399 36.6411C12.9326 37.0523 14.4894 35.7558 16.0072 33.4697C15.2126 34.2554 14.4854 34.5691 13.8785 34.3177C12.5329 33.7603 11.808 28.1588 15.9877 22.0062C16.4863 21.2722 16.9338 20.5982 17.3375 19.9813Z" fill="#155FFF"/>
</g>
<defs>
<clipPath id="clip0_895_637">
<rect width="37.8355" height="37.8355" fill="white"/>
</clipPath>
</defs>
</svg>
