<svg width="21" height="34" viewBox="0 0 21 34" fill="none" xmlns="http://www.w3.org/2000/svg">
<path d="M10.2812 14.0724C10.2195 14.1592 10.1301 14.2 10.0235 14.2C9.95301 14.2 9.89217 14.179 9.83888 14.1429C9.78475 14.1055 9.74405 14.0527 9.71552 13.983C9.68656 13.9134 9.6748 13.8307 9.6748 13.7371C9.6748 13.6423 9.68656 13.5605 9.71552 13.4908C9.74405 13.4216 9.78475 13.3683 9.83888 13.3313C9.89217 13.294 9.95301 13.2781 10.0235 13.2781C10.1301 13.2781 10.2195 13.315 10.2812 13.3972C10.347 13.4791 10.3793 13.589 10.3793 13.7371C10.3793 13.8798 10.347 13.9956 10.2812 14.0724Z" stroke="#090B0E" stroke-width="0.545497" stroke-miterlimit="10" stroke-linecap="round" stroke-linejoin="round"/>
<path d="M8.20581 22.5089H12.9063V23.5046C12.9063 23.5088 12.9063 23.5172 12.9063 23.521H8.20581C8.20581 23.5172 8.20581 23.5088 8.20581 23.5046V22.5089Z" stroke="#090B0E" stroke-width="0.545497" stroke-miterlimit="10" stroke-linecap="round" stroke-linejoin="round"/>
<path d="M20.3002 30.7744C20.3002 32.037 19.3371 33 18.0749 33H10.6528V31.2615C11.062 31.2615 11.3947 30.9305 11.3947 30.5205C11.3947 30.1106 11.062 29.7786 10.6528 29.7786V28.5286H20.3002V30.7744Z" stroke="#090B0E" stroke-width="0.0681871" stroke-miterlimit="10"/>
<path d="M10.5581 21.5159H12.9063V22.5083H8.20581V21.5159H10.5552H10.5581Z" stroke="#090B0E" stroke-width="0.545497" stroke-miterlimit="10" stroke-linecap="round" stroke-linejoin="round"/>
<path d="M10.1897 25.4951C9.47261 25.4951 8.84486 25.1099 8.49658 24.5359H12.6155C12.2672 25.1099 11.6366 25.4951 10.9194 25.4951H10.1897Z" stroke="#090B0E" stroke-width="0.545497" stroke-miterlimit="10" stroke-linecap="round" stroke-linejoin="round"/>
<path d="M8.20581 23.5192H12.9063C12.9029 23.8922 12.7997 24.2413 12.6155 24.5359H8.49659C8.31238 24.2413 8.21001 23.8922 8.20581 23.5192Z" stroke="#090B0E" stroke-width="0.545497" stroke-miterlimit="10" stroke-linecap="round" stroke-linejoin="round"/>
<path d="M14.3834 19.0113C15.3825 18.0605 16.0303 16.7614 16.1327 15.3024L17.5749 15.4207H18.5585H20.3003V28.5286H10.653H1.00024V15.4207H2.55785H3.53806L4.97649 15.3024C5.07887 16.7614 5.73095 18.0605 6.73005 19.0113C7.43961 19.6919 8.02541 20.5731 8.20584 21.5152V22.5076V23.5033C8.20584 23.5075 8.20584 23.5159 8.20584 23.5196C8.21004 23.8927 8.31241 24.2418 8.49662 24.5364C8.8449 25.1104 9.47265 25.4956 10.1898 25.4956H10.9195C11.6366 25.4956 12.2673 25.1104 12.6155 24.5364C12.7998 24.2418 12.903 23.8927 12.9063 23.5196C12.9063 23.5159 12.9063 23.5075 12.9063 23.5033V22.5076V21.5152C13.0834 20.5731 13.6734 19.6919 14.3834 19.0113Z" stroke="#090B0E" stroke-width="0.545497" stroke-miterlimit="10" stroke-linecap="round" stroke-linejoin="round"/>
<path d="M1 28.5286H10.6528V29.7786C10.2428 29.7786 9.91048 30.1106 9.91048 30.5205C9.91048 30.9305 10.2428 31.2615 10.6528 31.2615V33H3.23024C1.96301 33 1 32.037 1 30.7744V28.5286Z" stroke="#090B0E" stroke-width="0.0681871" stroke-miterlimit="10"/>
<path d="M18.0751 0.333727C19.3373 0.333727 20.3003 1.30136 20.3003 2.55935V4.47363H1.00024V2.55935C1.00024 1.30136 1.96325 0.333727 3.23048 0.333727H18.0751Z" stroke="#090B0E" stroke-width="0.0681871" stroke-miterlimit="10"/>
<path d="M16.1327 15.3033C16.1571 14.9584 16.1529 14.6067 16.1122 14.2496C15.8214 11.6019 13.7023 9.48747 11.0546 9.19206C10.8779 9.19206 10.7348 9.16311 10.5582 9.16311C10.3782 9.16311 10.2342 9.16311 10.0542 9.19206C7.41067 9.48747 5.29204 11.6304 4.99706 14.2496C4.95635 14.6105 4.95089 14.9584 4.97649 15.3033L3.53806 15.4216H2.55785H1.00024V6.27784V5.11887V4.47478H20.3003V6.27784V15.4216H18.5585H17.5749L16.1327 15.3033Z" stroke="#090B0E" stroke-width="0.545497" stroke-miterlimit="10" stroke-linecap="round" stroke-linejoin="round"/>
<path d="M20.3001 4.47389V2.55961C20.3001 1.30161 19.3371 0.333985 18.0749 0.333985H3.23024C1.96301 0.333985 1 1.30161 1 2.55961V4.47389V5.11798V6.27696V15.4207V28.5286V30.7744C1 32.037 1.96301 33 3.23024 33H10.6528H18.0749C19.3371 33 20.3001 32.037 20.3001 30.7744V28.5286V15.4207V6.27696V4.47389Z" stroke="#090B0E" stroke-width="0.545497" stroke-miterlimit="2.61313" stroke-linecap="round" stroke-linejoin="round"/>
<path d="M10.6529 31.2617C11.0621 31.2617 11.3948 30.9307 11.3948 30.5207C11.3948 30.1107 11.0621 29.7788 10.6529 29.7788C10.243 29.7788 9.91064 30.1107 9.91064 30.5207C9.91064 30.9307 10.243 31.2617 10.6529 31.2617Z" stroke="#090B0E" stroke-width="0.545497" stroke-miterlimit="2.61313" stroke-linecap="round" stroke-linejoin="round"/>
<path d="M7.62817 2.56421L13.6773 2.5596" stroke="#090B0E" stroke-width="0.545497" stroke-miterlimit="2.61313" stroke-linecap="round" stroke-linejoin="round"/>
<path d="M1.00024 4.47363H20.3003" stroke="#090B0E" stroke-width="0.545497" stroke-miterlimit="2.61313" stroke-linecap="round" stroke-linejoin="round"/>
<path d="M1.00024 28.5286H20.3003" stroke="#090B0E" stroke-width="0.545497" stroke-miterlimit="2.61313" stroke-linecap="round" stroke-linejoin="round"/>
<path d="M12.9063 21.5156C13.0834 20.5736 13.6734 19.6924 14.3834 19.0118C15.3825 18.061 16.0303 16.7619 16.1327 15.3029C16.1571 14.9579 16.1529 14.6063 16.1122 14.2492C15.8214 11.6014 13.7023 9.48702 11.0546 9.19161C10.8779 9.19161 10.7348 9.16266 10.5582 9.16266C10.3782 9.16266 10.2342 9.16266 10.0542 9.19161C7.41066 9.48702 5.29204 11.63 4.99705 14.2492C4.95635 14.6101 4.95088 14.9579 4.97648 15.3029C5.07886 16.7619 5.73094 18.061 6.73004 19.0118C7.43961 19.6924 8.0254 20.5736 8.20584 21.5156" stroke="#090B0E" stroke-width="0.545497" stroke-miterlimit="2.61313" stroke-linecap="round" stroke-linejoin="round"/>
<path d="M7.63672 22.5083H13.4765" stroke="#090B0E" stroke-width="0.545497" stroke-miterlimit="2.61313" stroke-linecap="round" stroke-linejoin="round"/>
<path d="M7.63672 23.521H13.4765" stroke="#090B0E" stroke-width="0.545497" stroke-miterlimit="2.61313" stroke-linecap="round" stroke-linejoin="round"/>
<path d="M7.63672 24.5359H13.4765" stroke="#090B0E" stroke-width="0.545497" stroke-miterlimit="2.61313" stroke-linecap="round" stroke-linejoin="round"/>
<path d="M11.7181 16.9417L10.6112 21.3644L10.5549 21.5112" stroke="#090B0E" stroke-width="0.545497" stroke-miterlimit="2.61313" stroke-linecap="round" stroke-linejoin="round"/>
<path d="M8.23828 16.9423L10.555 21.5119V21.5156" stroke="#090B0E" stroke-width="0.545497" stroke-miterlimit="2.61313" stroke-linecap="round" stroke-linejoin="round"/>
<path d="M7.26709 16.2832C7.53312 16.2832 8.4143 15.3731 9.21786 16.1225C10.0168 16.8686 10.5292 15.9299 11.0377 15.9009C11.5459 15.8766 12.5622 16.3885 12.5622 16.3885" stroke="#090B0E" stroke-width="0.545497" stroke-miterlimit="2.61313" stroke-linecap="round" stroke-linejoin="round"/>
<path d="M8.20581 21.5147H12.9063V23.5028C12.9063 23.507 12.9063 23.5154 12.9063 23.5191C12.9029 23.8922 12.7997 24.2413 12.6155 24.5359C12.2672 25.1099 11.6366 25.4951 10.9194 25.4951H10.1897C9.47261 25.4951 8.84487 25.1099 8.49659 24.5359C8.31238 24.2413 8.21001 23.8922 8.20581 23.5191C8.20581 23.5154 8.20581 23.507 8.20581 23.5028V22.5071V21.5147Z" stroke="#090B0E" stroke-width="0.545497" stroke-miterlimit="2.61313" stroke-linecap="round" stroke-linejoin="round"/>
<path d="M10.5581 7.42232V8.4021" stroke="#090B0E" stroke-width="0.545497" stroke-miterlimit="2.61313" stroke-linecap="round" stroke-linejoin="round"/>
<path d="M14.5547 8.49506L14.0625 9.34351" stroke="#090B0E" stroke-width="0.545497" stroke-miterlimit="2.61313" stroke-linecap="round" stroke-linejoin="round"/>
<path d="M17.4843 11.4221L16.6367 11.9097" stroke="#090B0E" stroke-width="0.545497" stroke-miterlimit="2.61313" stroke-linecap="round" stroke-linejoin="round"/>
<path d="M18.5583 15.4216H17.5747" stroke="#090B0E" stroke-width="0.545497" stroke-miterlimit="2.61313" stroke-linecap="round" stroke-linejoin="round"/>
<path d="M17.4843 19.4211L16.6367 18.9294" stroke="#090B0E" stroke-width="0.545497" stroke-miterlimit="2.61313" stroke-linecap="round" stroke-linejoin="round"/>
<path d="M3.62769 19.4211L4.47992 18.9294" stroke="#090B0E" stroke-width="0.545497" stroke-miterlimit="2.61313" stroke-linecap="round" stroke-linejoin="round"/>
<path d="M2.55762 15.4216H3.53783" stroke="#090B0E" stroke-width="0.545497" stroke-miterlimit="2.61313" stroke-linecap="round" stroke-linejoin="round"/>
<path d="M3.62769 11.4221L4.47992 11.9097" stroke="#090B0E" stroke-width="0.545497" stroke-miterlimit="2.61313" stroke-linecap="round" stroke-linejoin="round"/>
<path d="M6.55835 8.49506L7.0451 9.34351" stroke="#090B0E" stroke-width="0.545497" stroke-miterlimit="2.61313" stroke-linecap="round" stroke-linejoin="round"/>
</svg>
