<svg width="32" height="32" viewBox="0 0 32 32" fill="none" xmlns="http://www.w3.org/2000/svg">
<path d="M16 27.8658L22.5996 21.2661C26.2445 17.6213 26.2445 11.7117 22.5996 8.06684C18.9548 4.42194 13.0452 4.42194 9.40033 8.06684C5.75544 11.7117 5.75544 17.6213 9.40033 21.2661L16 27.8658ZM16 31.637L7.51472 23.1518C2.82843 18.4654 2.82843 10.8675 7.51472 6.18122C12.201 1.49493 19.7989 1.49493 24.4853 6.18122C29.1716 10.8675 29.1716 18.4654 24.4853 23.1518L16 31.637ZM16 17.3332C17.4728 17.3332 18.6667 16.1393 18.6667 14.6665C18.6667 13.1937 17.4728 11.9998 16 11.9998C14.5272 11.9998 13.3333 13.1937 13.3333 14.6665C13.3333 16.1393 14.5272 17.3332 16 17.3332ZM16 19.9998C13.0545 19.9998 10.6667 17.612 10.6667 14.6665C10.6667 11.721 13.0545 9.33317 16 9.33317C18.9455 9.33317 21.3333 11.721 21.3333 14.6665C21.3333 17.612 18.9455 19.9998 16 19.9998Z" fill="#155FFF"/>
</svg>
