<svg width="26" height="26" viewBox="0 0 26 26" fill="none" xmlns="http://www.w3.org/2000/svg">
<path d="M11.3049 6.40625C11.1051 6.40625 10.9134 6.48565 10.772 6.62698C10.6307 6.76831 10.5513 6.96 10.5513 7.15987C10.5513 7.35975 10.6307 7.55143 10.772 7.69277C10.9134 7.8341 11.1051 7.9135 11.3049 7.9135H15.8267C16.0266 7.9135 16.2182 7.8341 16.3596 7.69277C16.5009 7.55143 16.5803 7.35975 16.5803 7.15987C16.5803 6.96 16.5009 6.76831 16.3596 6.62698C16.2182 6.48565 16.0266 6.40625 15.8267 6.40625H11.3049ZM9.7977 14.6961C9.7977 15.0959 9.6389 15.4792 9.35623 15.7619C9.07357 16.0446 8.6902 16.2034 8.29045 16.2034C7.8907 16.2034 7.50733 16.0446 7.22467 15.7619C6.942 15.4792 6.7832 15.0959 6.7832 14.6961C6.7832 14.2964 6.942 13.913 7.22467 13.6303C7.50733 13.3477 7.8907 13.1889 8.29045 13.1889C8.6902 13.1889 9.07357 13.3477 9.35623 13.6303C9.6389 13.913 9.7977 14.2964 9.7977 14.6961ZM9.7977 19.9715C9.7977 20.3712 9.6389 20.7546 9.35623 21.0373C9.07357 21.3199 8.6902 21.4787 8.29045 21.4787C7.8907 21.4787 7.50733 21.3199 7.22467 21.0373C6.942 20.7546 6.7832 20.3712 6.7832 19.9715C6.7832 19.5717 6.942 19.1883 7.22467 18.9057C7.50733 18.623 7.8907 18.4642 8.29045 18.4642C8.6902 18.4642 9.07357 18.623 9.35623 18.9057C9.6389 19.1883 9.7977 19.5717 9.7977 19.9715ZM13.5658 16.2034C13.9656 16.2034 14.3489 16.0446 14.6316 15.7619C14.9143 15.4792 15.0731 15.0959 15.0731 14.6961C15.0731 14.2964 14.9143 13.913 14.6316 13.6303C14.3489 13.3477 13.9656 13.1889 13.5658 13.1889C13.1661 13.1889 12.7827 13.3477 12.5 13.6303C12.2174 13.913 12.0586 14.2964 12.0586 14.6961C12.0586 15.0959 12.2174 15.4792 12.5 15.7619C12.7827 16.0446 13.1661 16.2034 13.5658 16.2034ZM15.0731 19.9715C15.0731 20.3712 14.9143 20.7546 14.6316 21.0373C14.3489 21.3199 13.9656 21.4787 13.5658 21.4787C13.1661 21.4787 12.7827 21.3199 12.5 21.0373C12.2174 20.7546 12.0586 20.3712 12.0586 19.9715C12.0586 19.5717 12.2174 19.1883 12.5 18.9057C12.7827 18.623 13.1661 18.4642 13.5658 18.4642C13.9656 18.4642 14.3489 18.623 14.6316 18.9057C14.9143 19.1883 15.0731 19.5717 15.0731 19.9715ZM18.8412 16.2034C19.2409 16.2034 19.6243 16.0446 19.907 15.7619C20.1896 15.4792 20.3484 15.0959 20.3484 14.6961C20.3484 14.2964 20.1896 13.913 19.907 13.6303C19.6243 13.3477 19.2409 13.1889 18.8412 13.1889C18.4414 13.1889 18.0581 13.3477 17.7754 13.6303C17.4927 13.913 17.3339 14.2964 17.3339 14.6961C17.3339 15.0959 17.4927 15.4792 17.7754 15.7619C18.0581 16.0446 18.4414 16.2034 18.8412 16.2034Z" fill="white"/>
<path fill-rule="evenodd" clip-rule="evenodd" d="M7.53708 0.753906C7.73695 0.753906 7.92864 0.833306 8.06997 0.974638C8.21131 1.11597 8.2907 1.30766 8.2907 1.50753V3.01478H18.8414V1.50753C18.8414 1.30766 18.9208 1.11597 19.0622 0.974638C19.2035 0.833306 19.3952 0.753906 19.5951 0.753906C19.7949 0.753906 19.9866 0.833306 20.1279 0.974638C20.2693 1.11597 20.3487 1.30766 20.3487 1.50753V3.0193C20.7174 3.02231 21.046 3.03537 21.3344 3.05849C21.8846 3.1037 22.3669 3.19866 22.813 3.42475C23.5218 3.78633 24.098 4.36302 24.4589 5.07217C24.6865 5.51831 24.7815 6.00063 24.8267 6.54927C24.8704 7.08434 24.8704 7.74301 24.8704 8.55994V20.0783C24.8704 20.8952 24.8704 21.5554 24.8267 22.0875C24.7815 22.6376 24.6865 23.1199 24.4589 23.5661C24.0977 24.2747 23.5216 24.8508 22.813 25.212C22.3669 25.4396 21.8846 25.5345 21.3359 25.5798C20.8008 25.6235 20.1422 25.6235 19.3268 25.6235H7.80688C6.98995 25.6235 6.32978 25.6235 5.79772 25.5798C5.24757 25.5345 4.76525 25.4396 4.31911 25.212C3.60996 24.8511 3.03327 24.2749 2.67169 23.5661C2.4456 23.1199 2.35065 22.6376 2.30543 22.089C2.26172 21.5539 2.26172 20.8937 2.26172 20.0768V8.56144C2.26172 7.8455 2.26172 7.25315 2.29186 6.75727L2.30543 6.55228C2.35065 6.00214 2.4456 5.51982 2.67169 5.07367C3.03301 4.36429 3.60973 3.78758 4.31911 3.42625C4.76525 3.20017 5.24757 3.10521 5.79621 3.05999C6.08661 3.03688 6.41569 3.02382 6.78346 3.02081V1.50753C6.78346 1.30766 6.86286 1.11597 7.00419 0.974638C7.14552 0.833306 7.33721 0.753906 7.53708 0.753906ZM6.78346 5.27565V4.52654C6.49528 4.52892 6.20725 4.54048 5.91981 4.56121C5.46462 4.59738 5.20236 4.66672 5.0034 4.7677C4.57761 4.98453 4.23147 5.33067 4.01465 5.75646C3.91366 5.95541 3.84433 6.21767 3.80815 6.67286C3.76897 7.1386 3.76897 7.73547 3.76897 8.59159V9.42057H23.3632V8.59159C23.3632 7.73547 23.3632 7.1386 23.324 6.67286C23.2878 6.21767 23.2185 5.95541 23.1175 5.75646C22.9007 5.33067 22.5545 4.98453 22.1287 4.7677C21.9298 4.66672 21.6675 4.59738 21.2123 4.56121C20.9249 4.54048 20.6369 4.52892 20.3487 4.52654V5.27565C20.3487 5.47552 20.2693 5.66721 20.1279 5.80854C19.9866 5.94987 19.7949 6.02927 19.5951 6.02927C19.3952 6.02927 19.2035 5.94987 19.0622 5.80854C18.9208 5.66721 18.8414 5.47552 18.8414 5.27565V4.52202H8.2907V5.27565C8.2907 5.47552 8.21131 5.66721 8.06997 5.80854C7.92864 5.94987 7.73695 6.02927 7.53708 6.02927C7.33721 6.02927 7.14552 5.94987 7.00419 5.80854C6.86286 5.66721 6.78346 5.47552 6.78346 5.27565ZM23.3632 10.9278H3.76897V20.0467C3.76897 20.9028 3.76897 21.5012 3.80815 21.9654C3.84433 22.4206 3.91366 22.6828 4.01465 22.8818C4.23147 23.3076 4.57761 23.6537 5.0034 23.8705C5.20236 23.9715 5.46462 24.0409 5.91981 24.077C6.38554 24.1162 6.98241 24.1162 7.83853 24.1162H19.2936C20.1497 24.1162 20.7481 24.1162 21.2123 24.077C21.6675 24.0409 21.9298 23.9715 22.1287 23.8705C22.5545 23.6537 22.9007 23.3076 23.1175 22.8818C23.2185 22.6828 23.2878 22.4206 23.324 21.9654C23.3632 21.5012 23.3632 20.9028 23.3632 20.0467V10.9278Z" fill="white"/>
</svg>
