<svg width="24" height="25" viewBox="0 0 24 25" fill="none" xmlns="http://www.w3.org/2000/svg">
<path d="M3.77762 12.8435C2.8296 11.1904 2.37185 9.8406 2.09584 8.47233C1.68762 6.4487 2.62181 4.47193 4.16938 3.21059C4.82345 2.6775 5.57323 2.85964 5.96 3.55352L6.83318 5.12003C7.52529 6.36169 7.87134 6.98251 7.8027 7.64071C7.73407 8.29891 7.26737 8.83498 6.33397 9.90713L3.77762 12.8435ZM3.77762 12.8435C5.69651 16.1894 8.70784 19.2024 12.0576 21.1235M12.0576 21.1235C13.7107 22.0715 15.0605 22.5293 16.4288 22.8053C18.4524 23.2135 20.4292 22.2793 21.6905 20.7317C22.2236 20.0777 22.0415 19.3279 21.3476 18.9411L19.7811 18.0679C18.5394 17.3758 17.9186 17.0298 17.2604 17.0984C16.6022 17.167 16.0661 17.6337 14.994 18.5671L12.0576 21.1235Z" stroke="#090B0E" stroke-width="1.5" stroke-linejoin="round"/>
</svg>
