<svg width="40" height="40" viewBox="0 0 40 40" fill="none" xmlns="http://www.w3.org/2000/svg">
<path d="M21.3469 13.7401C21.3469 15.2068 21.7303 16.4385 22.4969 17.4351C23.0403 18.1218 23.7775 18.5729 24.7086 18.7885C25.6253 19.0018 26.4919 19.0168 27.2753 18.8351C27.5419 20.4185 27.1086 22.0951 26.0086 23.8718C24.9064 25.6473 23.4853 26.9823 21.7453 27.8768L24.3803 31.6685C25.7136 31.0085 26.9803 30.1718 28.1469 29.1601C29.3303 28.1485 30.3803 26.9851 31.3136 25.6701C32.2469 24.3551 32.9469 22.8701 33.3969 21.1868C33.8469 19.5035 33.9719 17.7868 33.7569 16.0201C33.4769 13.6868 32.7236 11.8201 31.4969 10.4368C30.2714 9.03568 28.7447 8.33512 26.9169 8.33512C25.3086 8.33512 23.9736 8.81845 22.9169 9.79845C21.8714 10.7585 21.3492 12.074 21.3503 13.7451L21.3469 13.7401ZM6.14026 13.7401C6.14026 15.2068 6.5236 16.4385 7.29026 17.4351C7.83471 18.1351 8.57193 18.589 9.50193 18.7968C10.4353 19.0023 11.2908 19.0146 12.0686 18.8335C12.3353 20.4001 11.9186 22.0835 10.8153 23.8668C9.71526 25.6335 8.29526 26.9668 6.55526 27.8668L9.1836 31.6685C10.518 31.0085 11.7736 30.1723 12.9503 29.1601C14.1443 28.1333 15.2048 26.9609 16.1069 25.6701C17.0336 24.3535 17.7236 22.8701 18.1736 21.1868C18.6307 19.5048 18.7536 17.7494 18.5353 16.0201C18.2586 13.6868 17.5086 11.8201 16.2853 10.4368C15.063 9.04568 13.5392 8.35012 11.7136 8.35012C10.1025 8.3479 8.76804 8.83512 7.71026 9.81179C6.66471 10.7718 6.14137 12.0873 6.14026 13.7585V13.7401Z" fill="#0C0723"/>
</svg>
