<svg width="38" height="42" viewBox="0 0 38 42" fill="none" xmlns="http://www.w3.org/2000/svg">
<path d="M14.9519 3.63309C20.623 4.19008 24.8046 9.28469 24.2522 14.9522C23.6993 20.6182 18.6058 24.8049 12.9388 24.2479C7.26765 23.695 3.08612 18.6004 3.63745 12.9395C4.19496 7.2674 9.2844 3.08638 14.9519 3.63309Z" stroke="#FD6543" stroke-width="0.506593" stroke-miterlimit="10" stroke-linecap="round" stroke-linejoin="round"/>
<path d="M12.6886 26.8262C5.55562 26.1289 0.365946 19.8104 1.0627 12.6821C1.76047 5.55475 8.07491 0.364565 15.2022 1.06234C22.3295 1.76012 27.5248 8.07454 26.8265 15.1962C26.1339 22.3286 19.8154 27.5188 12.6886 26.8262ZM3.63751 12.9384C3.08617 18.5993 7.2677 23.6939 12.9388 24.2468C18.6058 24.8038 23.6994 20.6171 24.2523 14.9511C24.8046 9.28358 20.6231 4.18897 14.952 3.63198C9.28446 3.08527 4.19501 7.26629 3.63751 12.9384Z" stroke="#FD6543" stroke-width="0.506593" stroke-miterlimit="10" stroke-linecap="round" stroke-linejoin="round"/>
<path d="M12.9388 24.2479C7.26765 23.695 3.08612 18.6004 3.63745 12.9395C4.19496 7.2674 9.2844 3.08638 14.9519 3.63309C20.623 4.19008 24.8046 9.28469 24.2522 14.9522C23.6993 20.6182 18.6058 24.8049 12.9388 24.2479Z" stroke="#FD6543" stroke-miterlimit="10" stroke-linecap="round" stroke-linejoin="round"/>
<path d="M15.2022 1.06234C8.07491 0.364565 1.76047 5.55475 1.0627 12.6821C0.365946 19.8104 5.55562 26.1289 12.6886 26.8262C19.8154 27.5188 26.1339 22.3286 26.8265 15.1962C27.5248 8.07454 22.3295 1.76012 15.2022 1.06234Z" stroke="#FD6543" stroke-miterlimit="10" stroke-linecap="round" stroke-linejoin="round"/>
<path d="M7.34441 19.5926C7.32078 19.5926 7.29612 19.5963 7.27248 19.6019C7.19592 19.6214 7.13066 19.6708 7.08853 19.7412C7.04845 19.8095 7.03663 19.8891 7.05513 19.9652C7.09007 20.0988 7.20773 20.1918 7.34441 20.1918C7.36908 20.1918 7.39426 20.1882 7.4179 20.1815C7.49703 20.162 7.56229 20.1131 7.60288 20.0458C7.6445 19.977 7.65527 19.8963 7.63575 19.8193C7.60286 19.6887 7.48006 19.5926 7.34441 19.5926ZM7.34441 20.9944C6.83983 20.9944 6.40102 20.6527 6.27719 20.1635C6.20423 19.8794 6.24688 19.5829 6.4 19.3285C6.55004 19.0762 6.78999 18.8964 7.07465 18.8245C7.65271 18.6775 8.26572 19.0429 8.41422 19.6194C8.48769 19.9051 8.44453 20.2021 8.29449 20.4554C8.14291 20.7092 7.90296 20.8875 7.61573 20.9599C7.52889 20.9831 7.43587 20.9944 7.34441 20.9944Z" stroke="#FD6543" stroke-width="0.2" stroke-miterlimit="10"/>
<path d="M10.7864 21.6419C10.7618 21.6419 10.7361 21.645 10.7099 21.6517C10.5532 21.6923 10.454 21.8582 10.493 22.0144C10.5336 22.1701 10.7006 22.2693 10.8573 22.2323C10.9354 22.2122 11.0007 22.1645 11.0408 22.0951C11.0819 22.0257 11.0932 21.9456 11.0737 21.869C11.0398 21.7334 10.9236 21.6419 10.7864 21.6419ZM10.7854 23.0452C10.2808 23.0452 9.84098 22.7024 9.71561 22.2128C9.56557 21.627 9.92215 21.0258 10.5115 20.8737C11.105 20.7211 11.7052 21.0921 11.8531 21.6712C11.9246 21.9553 11.8824 22.2513 11.7324 22.5046C11.5813 22.7579 11.3408 22.9373 11.0557 23.0107C10.9668 23.0328 10.8753 23.0452 10.7854 23.0452Z" stroke="#FD6543" stroke-width="0.2" stroke-miterlimit="10"/>
<path d="M16.106 12.7055C16.0798 12.7055 16.0536 12.7085 16.0284 12.7147C15.9503 12.7342 15.8876 12.7805 15.8476 12.8488C15.807 12.9177 15.7936 12.9988 15.8137 13.0775C15.8527 13.2301 16.0171 13.3318 16.18 13.2902C16.3408 13.2491 16.4333 13.0893 16.3927 12.9269C16.3588 12.7964 16.2417 12.7055 16.106 12.7055ZM16.1029 14.1021C15.5973 14.1021 15.157 13.7603 15.0347 13.2712C14.9643 12.9829 15.0085 12.6885 15.157 12.4378C15.3086 12.1824 15.5501 12.0051 15.8357 11.9357C15.9216 11.9131 16.013 11.9018 16.106 11.9018C16.608 11.9018 17.0463 12.242 17.1702 12.7286C17.3202 13.3184 16.9641 13.9186 16.3783 14.0676C16.2884 14.0912 16.1959 14.1021 16.1029 14.1021Z" stroke="#FD6543" stroke-width="0.2" stroke-miterlimit="10"/>
<path d="M13.2425 17.5136C13.2188 17.5136 13.1936 17.5167 13.1705 17.5223C13.0076 17.564 12.9095 17.7274 12.9485 17.8892C12.9881 18.0408 13.1535 18.1441 13.3149 18.1014C13.4731 18.0624 13.5708 17.8969 13.5317 17.7356C13.4994 17.6092 13.376 17.5136 13.2425 17.5136ZM13.2409 18.9143C12.7343 18.9143 12.2949 18.5741 12.1696 18.084C12.0247 17.4905 12.3849 16.8924 12.9717 16.7444C13.0595 16.7223 13.151 16.7095 13.2425 16.7095C13.7455 16.7095 14.1853 17.0522 14.3107 17.5403C14.4541 18.1333 14.097 18.7314 13.5132 18.8814C13.4233 18.903 13.3318 18.9143 13.2409 18.9143Z" stroke="#FD6543" stroke-width="0.2" stroke-miterlimit="10"/>
<path d="M16.7768 13.1484C16.6134 13.1484 16.4608 13.0487 16.4007 12.8869C16.3226 12.6788 16.4295 12.4486 16.6371 12.3715L21.3299 10.6296C21.5359 10.552 21.7682 10.6584 21.8452 10.8665C21.9218 11.0741 21.8165 11.3058 21.6089 11.3824L16.9161 13.1237C16.8704 13.1412 16.8236 13.1484 16.7768 13.1484ZM13.6014 17.611C13.5305 17.611 13.4601 17.5935 13.3959 17.555C13.2057 17.442 13.1431 17.1948 13.2566 17.0052L15.4131 13.375C15.5267 13.1839 15.7733 13.1222 15.964 13.2347C16.1546 13.3473 16.2173 13.5954 16.1032 13.7845L13.9456 17.4152C13.8711 17.5416 13.7381 17.611 13.6014 17.611ZM11.152 21.7237C11.0821 21.7237 11.0117 21.7057 10.9475 21.6677C10.7574 21.5541 10.6947 21.3085 10.8062 21.1189L12.5285 18.2199C12.6426 18.0298 12.8887 17.9661 13.0793 18.0791C13.2694 18.1922 13.3321 18.4388 13.2201 18.6299L11.4978 21.5279C11.4228 21.6538 11.2892 21.7237 11.152 21.7237ZM10.1659 21.9734C10.0971 21.9734 10.0267 21.9544 9.96142 21.9169L7.70419 20.5717C7.51356 20.4581 7.45086 20.2125 7.56442 20.0224C7.67849 19.8318 7.92462 19.7691 8.11525 19.8832L10.3725 21.2268C10.5626 21.3404 10.6253 21.586 10.5117 21.7771C10.4377 21.9025 10.3031 21.9734 10.1659 21.9734Z" stroke="#FD6543" stroke-width="0.2" stroke-miterlimit="10"/>
<path d="M22.1413 10.4706C22.1151 10.4706 22.0889 10.4742 22.0647 10.4803C21.9861 10.4999 21.9219 10.5471 21.8818 10.615C21.8412 10.6833 21.8299 10.7624 21.8479 10.8379C21.8885 10.9962 22.0514 11.0969 22.2106 11.0563C22.3751 11.0152 22.4691 10.8544 22.4285 10.692C22.3956 10.562 22.2774 10.4706 22.1413 10.4706ZM22.1372 11.8682C21.6326 11.8682 21.1943 11.5265 21.0705 11.0368C20.997 10.7527 21.0401 10.4562 21.1928 10.2023C21.3443 9.94954 21.5858 9.77125 21.8715 9.70085C21.9578 9.67979 22.0498 9.66796 22.1413 9.66796C22.6438 9.66796 23.0821 10.0071 23.207 10.4937C23.356 11.083 22.9983 11.6847 22.41 11.8337C22.3216 11.8564 22.2286 11.8682 22.1372 11.8682Z" stroke="#FD6543" stroke-width="0.2" stroke-miterlimit="10"/>
<path d="M21.1954 24.6712C21.8675 24.22 22.4898 23.7072 23.0678 23.1358L24.9397 25.4188L23.073 26.9541L21.1954 24.6712Z" stroke="#FD6543" stroke-width="0.506593" stroke-miterlimit="10" stroke-linecap="round" stroke-linejoin="round"/>
<path d="M31.2693 39.8267L22.6766 28.408C22.3652 28.0323 22.4155 27.5149 22.7963 27.203L25.2416 25.1914C25.6223 24.8795 26.1392 24.9299 26.4511 25.307L35.9775 36.0378C36.5242 36.6097 36.7852 37.5032 36.7107 38.276C36.5489 39.9074 35.0434 41.1468 33.413 40.9859C32.5487 40.9063 31.8155 40.4844 31.2693 39.8267Z" stroke="#FD6543" stroke-width="0.506593" stroke-miterlimit="10" stroke-linecap="round" stroke-linejoin="round"/>
<path d="M36.7107 38.276C36.5489 39.9074 35.0434 41.1468 33.413 40.9859C32.5487 40.9063 31.8155 40.4844 31.2693 39.8267L22.6766 28.408C22.3652 28.0323 22.4155 27.5149 22.7963 27.203L25.2416 25.1914C25.6223 24.8795 26.1392 24.9299 26.4511 25.307L35.9775 36.0378C36.5242 36.6097 36.7852 37.5032 36.7107 38.276Z" stroke="#FD6543" stroke-miterlimit="2.61313" stroke-linecap="round" stroke-linejoin="round"/>
<path d="M21.1954 24.6712L23.073 26.9541L24.9397 25.4188L23.0678 23.1358C22.4898 23.7072 21.8675 24.22 21.1954 24.6712Z" stroke="#FD6543" stroke-miterlimit="2.61313" stroke-linecap="round" stroke-linejoin="round"/>
</svg>
