<svg width="30" height="28" viewBox="0 0 30 28" fill="none" xmlns="http://www.w3.org/2000/svg">
<path d="M10.195 23.6822H19.8051L19.4848 22.7858H10.5153L10.195 23.6822ZM20.1629 24.1797C20.161 24.1797 20.1583 24.1797 20.1557 24.1797H9.84476C9.7644 24.1797 9.68897 24.1403 9.64273 24.0742C9.59686 24.0076 9.58549 23.9227 9.61278 23.847L10.1105 22.4531C10.1457 22.3541 10.2382 22.2883 10.3421 22.2883H19.658C19.7622 22.2883 19.8547 22.3541 19.89 22.4531L20.3683 23.7931C20.3945 23.8328 20.4096 23.8803 20.4096 23.9311C20.4096 24.0684 20.2994 24.1797 20.1629 24.1797Z" fill="#155FFF"/>
<path d="M21.6941 27.5025H22.5984L19.9349 20H19.009L21.6941 27.5025ZM22.9483 28H21.5212C21.4177 28 21.3249 27.9342 21.2896 27.8356L18.4264 19.8355C18.3991 19.7594 18.4105 19.6745 18.4563 19.6084C18.5026 19.5418 18.578 19.5024 18.6583 19.5024H20.1085C20.2124 19.5024 20.3053 19.5686 20.3405 19.6673L23.1803 27.6673C23.2072 27.7434 23.1958 27.8279 23.1496 27.8941C23.1037 27.9602 23.0286 28 22.9483 28Z" fill="#155FFF"/>
<path d="M7.40036 27.5025H8.30588L10.9902 20H10.0646L7.40036 27.5025ZM8.47872 28H7.05089C6.97054 28 6.89511 27.9602 6.84924 27.8941C6.803 27.8279 6.79163 27.7434 6.81854 27.6673L9.65867 19.6673C9.69392 19.5686 9.78678 19.5024 9.89101 19.5024H11.3412C11.4216 19.5024 11.4966 19.5418 11.5429 19.6084C11.5887 19.6745 11.6001 19.7594 11.5728 19.8355L8.71032 27.8356C8.67545 27.9342 8.58258 28 8.47872 28Z" fill="#155FFF"/>
<path d="M1.43807 3.28099V17.6619C1.43807 18.7113 2.22193 19.5025 3.26162 19.5025H26.7376C27.7773 19.5025 28.5612 18.7113 28.5612 17.6619V3.28099H1.43807ZM26.7376 20H3.26162C1.94106 20 0.944946 18.995 0.944946 17.6619V3.03203C0.944946 2.89475 1.05525 2.78347 1.1917 2.78347H28.8076C28.9436 2.78347 29.0539 2.89475 29.0539 3.03203V17.6619C29.0539 18.995 28.0578 20 26.7376 20Z" fill="#155FFF"/>
<path d="M0.493127 2.78372H29.5073V1.88659H0.493127V2.78372ZM29.7536 3.28125H0.246374C0.1103 3.28125 0 3.16996 0 3.03229V1.63802C0 1.50074 0.1103 1.38945 0.246374 1.38945H29.7536C29.8897 1.38945 30 1.50074 30 1.63802V3.03229C30 3.16996 29.8897 3.28125 29.7536 3.28125Z" fill="#155FFF"/>
<path d="M14.5533 1.38958H15.4433L15.4463 0.941782C15.4463 0.663769 15.2792 0.497042 14.9998 0.497042C14.7205 0.497042 14.5533 0.663762 14.5533 0.943687V1.38958ZM15.6881 1.88672H14.3069C14.1708 1.88672 14.0605 1.77544 14.0605 1.63815V0.943687C14.0605 0.387661 14.4468 -0.000484347 14.9998 -0.000484347C15.5528 -0.000484347 15.9394 0.387661 15.9394 0.943687L15.9345 1.64006C15.9334 1.77619 15.8234 1.88672 15.6881 1.88672Z" fill="#155FFF"/>
<path d="M28.7163 17.7031C28.7155 17.7031 28.7151 17.7031 28.7144 17.7031L28.2167 17.6993C27.8089 17.6936 27.4784 17.354 27.4784 16.9421L27.4848 16.1326C26.9629 16.006 26.4606 15.8045 25.9872 15.5314L25.441 16.0756C25.3004 16.2148 25.1147 16.2913 24.9164 16.2913C24.9142 16.2913 24.9123 16.2913 24.9096 16.2913C24.711 16.2897 24.526 16.2106 24.3884 16.0691L23.4162 15.0779C23.2771 14.9345 23.2017 14.7452 23.2028 14.5448C23.2036 14.3429 23.2817 14.1547 23.4234 14.0148L23.9359 13.5062C23.6448 13.0182 23.4287 12.4977 23.2926 11.9532L22.5914 11.9501C22.1809 11.9444 21.8485 11.606 21.8485 11.1956L21.8599 9.79944C21.8599 9.60059 21.938 9.41245 22.0797 9.27096C22.2222 9.12908 22.4186 9.05872 22.6107 9.0549L23.3112 9.05834C23.4537 8.51378 23.6758 7.99561 23.9734 7.51377L23.4666 6.99944C23.1797 6.70537 23.1839 6.2281 23.475 5.93403L24.4555 4.95698C24.5973 4.8174 24.7834 4.74053 24.9809 4.74053C24.9816 4.74053 24.9828 4.74053 24.9835 4.74053C25.1833 4.74129 25.3705 4.82008 25.5093 4.9631L26.0482 5.51377C26.5258 5.24723 27.0307 5.05182 27.5534 4.93136L27.5595 4.12027C27.5595 3.92218 27.6379 3.73402 27.7804 3.59176C27.923 3.44989 28.1288 3.3803 28.31 3.37533L28.8027 3.37953C28.9392 3.38068 29.0487 3.4931 29.0476 3.63C29.0464 3.76652 28.9361 3.87704 28.8008 3.87704C28.8 3.87704 28.7993 3.87704 28.7989 3.87704L28.3054 3.87284C28.2546 3.87666 28.175 3.89769 28.1265 3.94549C28.0787 3.99329 28.0526 4.05601 28.0526 4.12217L28.0446 5.13595C28.0435 5.2545 27.9597 5.3562 27.8441 5.378C27.2452 5.49273 26.6691 5.71491 26.1324 6.03843C26.035 6.09694 25.9107 6.08087 25.8307 5.99942L25.1579 5.31185C25.1116 5.26404 25.0491 5.23804 24.9816 5.23766C24.9816 5.23766 24.9813 5.23766 24.9809 5.23766C24.913 5.23766 24.8497 5.26367 24.8016 5.31147L23.8225 6.28699C23.7229 6.38719 23.7198 6.55048 23.8169 6.64991L24.4631 7.30574C24.5461 7.38987 24.5586 7.52181 24.4927 7.62009C24.136 8.15394 23.8843 8.74017 23.7445 9.36273C23.7187 9.47593 23.619 9.55661 23.5042 9.55661C23.5038 9.55661 23.5034 9.55661 23.503 9.55661L22.607 9.55204C22.5444 9.55127 22.4739 9.57727 22.4262 9.62469C22.3788 9.67173 22.353 9.73482 22.353 9.80174L22.3413 11.1979C22.3413 11.3356 22.4553 11.4507 22.5956 11.4526L23.4898 11.4568C23.6054 11.4576 23.705 11.5394 23.7293 11.6534C23.8616 12.2744 24.1064 12.8645 24.4563 13.4079C24.5204 13.5069 24.5059 13.6381 24.4229 13.7211L23.7683 14.37C23.7213 14.4163 23.6956 14.4786 23.6956 14.5471C23.6952 14.6163 23.7206 14.6805 23.7676 14.7291L24.7394 15.7203C24.786 15.7677 24.8475 15.7937 24.9138 15.7945C24.9149 15.7945 24.9157 15.7945 24.9164 15.7945C24.9843 15.7945 25.0476 15.7685 25.095 15.7215L25.7761 15.0427C25.8572 14.9624 25.9815 14.9482 26.0786 15.0079C26.6096 15.3383 27.1827 15.5677 27.7816 15.6897C27.8972 15.7134 27.9798 15.8159 27.9791 15.9352L27.9715 16.9437C27.9715 17.0836 28.084 17.1999 28.222 17.2018L28.7182 17.2056C28.8543 17.2067 28.9634 17.3188 28.9626 17.4561C28.9615 17.593 28.8512 17.7031 28.7163 17.7031Z" fill="#155FFF"/>
<path d="M28.7627 13.5703C28.7562 13.5703 28.7502 13.5699 28.7437 13.5695C27.1627 13.4506 25.9313 12.111 25.94 10.5198C25.9533 8.93128 27.2007 7.607 28.7801 7.50489C28.9128 7.49495 29.0333 7.59971 29.0416 7.73662C29.0507 7.8739 28.9476 7.99207 28.8119 8.00087C27.4884 8.08653 26.4437 9.19476 26.4331 10.5233C26.4255 11.8537 27.4565 12.9737 28.7809 13.0736C28.9162 13.0843 29.0181 13.2032 29.0079 13.3401C28.9984 13.4705 28.8904 13.5703 28.7627 13.5703Z" fill="#155FFF"/>
<path d="M7.22179 7.4113C4.94605 7.54094 3.13387 9.44918 3.13387 11.7769C3.13387 14.1888 5.07796 16.1509 7.46816 16.1509C9.77574 16.1509 11.6675 14.3222 11.796 12.0255H7.46816C7.33209 12.0255 7.22179 11.9142 7.22179 11.7769V7.4113ZM7.46816 16.6484C4.80657 16.6484 2.64075 14.463 2.64075 11.7769C2.64075 9.09162 4.80657 6.9069 7.46816 6.9069C7.60424 6.9069 7.71454 7.01818 7.71454 7.15584V11.528H12.0492C12.1853 11.528 12.2956 11.6392 12.2956 11.7769C12.2956 14.463 10.1301 16.6484 7.46816 16.6484Z" fill="#155FFF"/>
<path d="M8.4797 10.7603H12.5612C12.4372 8.54653 10.6739 6.76716 8.4797 6.64249V10.7603ZM12.8144 11.2578H8.23333C8.09687 11.2578 7.98657 11.1465 7.98657 11.0092V6.38706C7.98657 6.24977 8.09687 6.13849 8.23333 6.13849C10.8949 6.13849 13.0607 8.32319 13.0607 11.0092C13.0607 11.1465 12.9504 11.2578 12.8144 11.2578Z" fill="#155FFF"/>
<path d="M20.2048 16.6406H7.30655C7.17048 16.6406 7.06018 16.5293 7.06018 16.3921C7.06018 16.2548 7.17048 16.1435 7.30655 16.1435H20.2048C20.3409 16.1435 20.4512 16.2548 20.4512 16.3921C20.4512 16.5293 20.3409 16.6406 20.2048 16.6406Z" fill="#155FFF"/>
<path d="M20.205 14.6914H11.1957C11.0596 14.6914 10.9493 14.5801 10.9493 14.4424C10.9493 14.3052 11.0596 14.1939 11.1957 14.1939H20.205C20.3411 14.1939 20.4514 14.3052 20.4514 14.4424C20.4514 14.5801 20.3411 14.6914 20.205 14.6914Z" fill="#155FFF"/>
<path d="M20.205 13.0117H12.0454C11.9094 13.0117 11.7991 12.9004 11.7991 12.7632C11.7991 12.6255 11.9094 12.5142 12.0454 12.5142H20.205C20.341 12.5142 20.4513 12.6255 20.4513 12.7632C20.4513 12.9004 20.341 13.0117 20.205 13.0117Z" fill="#155FFF"/>
<path d="M20.205 11.2578H12.0454C11.9094 11.2578 11.7991 11.1465 11.7991 11.0092C11.7991 10.8716 11.9094 10.7603 12.0454 10.7603H20.205C20.341 10.7603 20.4513 10.8716 20.4513 11.0092C20.4513 11.1465 20.341 11.2578 20.205 11.2578Z" fill="#155FFF"/>
<path d="M20.2049 9.55078H12.4737C12.3376 9.55078 12.2273 9.4395 12.2273 9.30221C12.2273 9.16493 12.3376 9.05365 12.4737 9.05365H20.2049C20.341 9.05365 20.4513 9.16493 20.4513 9.30221C20.4513 9.4395 20.341 9.55078 20.2049 9.55078Z" fill="#155FFF"/>
<path d="M20.205 7.76953H11.1919C11.0559 7.76953 10.9456 7.65825 10.9456 7.52096C10.9456 7.3833 11.0559 7.27202 11.1919 7.27202H20.205C20.3411 7.27202 20.4514 7.3833 20.4514 7.52096C20.4514 7.65825 20.3411 7.76953 20.205 7.76953Z" fill="#155FFF"/>
</svg>
