<svg width="45" height="45" viewBox="0 0 45 45" fill="none" xmlns="http://www.w3.org/2000/svg">
<path d="M5.625 39.375C5.09375 39.375 4.64875 39.195 4.29 38.835C3.93125 38.475 3.75125 38.03 3.75 37.5V18.75C3.75 18.2188 3.93 17.7738 4.29 17.415C4.65 17.0563 5.095 16.8762 5.625 16.875H12.1875C12.7187 16.875 13.1644 17.055 13.5244 17.415C13.8844 17.775 14.0637 18.22 14.0625 18.75V37.5C14.0625 38.0312 13.8825 38.4769 13.5225 38.8369C13.1625 39.1969 12.7175 39.3762 12.1875 39.375H5.625ZM19.2188 39.375C18.6875 39.375 18.2425 39.195 17.8838 38.835C17.525 38.475 17.345 38.03 17.3438 37.5V7.5C17.3438 6.96875 17.5238 6.52375 17.8838 6.165C18.2438 5.80625 18.6888 5.62625 19.2188 5.625H25.7812C26.3125 5.625 26.7581 5.805 27.1181 6.165C27.4781 6.525 27.6575 6.97 27.6562 7.5V37.5C27.6562 38.0312 27.4762 38.4769 27.1162 38.8369C26.7562 39.1969 26.3112 39.3762 25.7812 39.375H19.2188ZM32.8125 39.375C32.2813 39.375 31.8363 39.195 31.4775 38.835C31.1188 38.475 30.9387 38.03 30.9375 37.5V22.5C30.9375 21.9688 31.1175 21.5238 31.4775 21.165C31.8375 20.8063 32.2825 20.6262 32.8125 20.625H39.375C39.9062 20.625 40.3519 20.805 40.7119 21.165C41.0719 21.525 41.2512 21.97 41.25 22.5V37.5C41.25 38.0312 41.07 38.4769 40.71 38.8369C40.35 39.1969 39.905 39.3762 39.375 39.375H32.8125Z" fill="#0587FF"/>
</svg>
