<svg width="39" height="36" viewBox="0 0 39 36" fill="none" xmlns="http://www.w3.org/2000/svg">
<path d="M3.8991 24.526C4.03357 24.8464 4.16566 25.1451 4.30062 25.4318C5.09209 25.4165 6.04443 25.3074 7.1351 25.1076C8.14029 24.9299 9.37313 24.6466 10.8 24.2653C15.6727 22.9369 21.7524 20.6345 27.9194 17.7812C28.745 17.4018 29.5485 17.0215 30.3121 16.6493L29.1667 14.3709C29.0087 14.0534 29.025 13.686 29.2099 13.3864C29.4294 13.031 29.829 12.8413 30.254 12.9162L36.8533 14.124C36.8903 14.1312 36.9263 14.1399 36.9613 14.1505C35.205 6.41535 28.2705 0.62434 20.0081 0.62434C10.4273 0.62434 2.63313 8.419 2.63313 17.9993C2.63313 19.0467 2.72727 20.0947 2.91409 21.1219C3.54852 20.5456 4.29676 19.9309 5.14682 19.2897C5.23327 19.224 5.34807 19.2081 5.4494 19.2484C5.55074 19.2883 5.62374 19.3776 5.64247 19.4847C5.79999 20.3857 6.00793 21.2694 6.25959 22.1113C6.29609 22.2333 6.25527 22.3649 6.15633 22.4441C5.22414 23.1919 4.46629 23.8916 3.8991 24.526ZM6.09872 28.409C9.37699 32.7813 14.5364 35.3752 20.0081 35.3752C29.5931 35.3752 37.3912 27.5805 37.3912 17.9993C37.3912 17.3759 37.358 16.7607 37.2937 16.1536L34.6239 21.5888C34.4496 21.9394 34.099 22.1564 33.709 22.1564C33.3234 22.1564 32.9776 21.9427 32.8061 21.5984L31.7073 19.4209C30.8889 19.8156 30.0585 20.2104 29.2166 20.5985C22.5218 23.6986 15.9787 26.1402 10.7933 27.4744C9.92593 27.6977 9.1748 27.8725 8.49714 28.0089C7.63363 28.1876 6.8292 28.3216 6.09872 28.409ZM20.0081 36C14.1551 36 8.64698 33.1343 5.27362 28.3355C5.20974 28.2438 5.19869 28.1256 5.24576 28.0248C5.29282 27.9234 5.38985 27.8552 5.50031 27.8447C6.34509 27.7669 7.31136 27.6165 8.37178 27.3975C9.0403 27.2626 9.78088 27.0902 10.6377 26.8692C15.7875 25.5452 22.2927 23.1165 28.9544 20.0322C29.8885 19.601 30.8077 19.163 31.7116 18.7254C31.8638 18.6524 32.0497 18.713 32.1265 18.8657L33.3642 21.3184C33.5001 21.5912 33.9294 21.583 34.0644 21.3121L37.0209 15.294C37.0756 15.184 37.0756 15.0591 37.0223 14.9511C36.9671 14.8392 36.8634 14.7614 36.739 14.7378L30.144 13.5309C29.9942 13.5026 29.828 13.5741 29.7411 13.7144C29.669 13.8306 29.6633 13.968 29.7247 14.0914L31.0118 16.6507C31.0493 16.7251 31.0555 16.8116 31.0291 16.8903C31.0022 16.9691 30.9456 17.0339 30.8706 17.0709C30.0182 17.4902 29.1129 17.9196 28.1807 18.3484C21.9844 21.2151 15.8692 23.5305 10.9628 24.868C9.51721 25.2546 8.2671 25.5413 7.24558 25.7219C6.02811 25.9447 4.97058 26.0581 4.10467 26.0581C3.98508 26.0581 3.87558 25.9894 3.82371 25.8814C3.62872 25.4775 3.43998 25.0538 3.24739 24.5851C3.20273 24.4766 3.2229 24.3522 3.29926 24.2629C3.87126 23.5987 4.64543 22.8682 5.60211 22.0892C5.41577 21.4432 5.25441 20.7752 5.12042 20.0951C4.27083 20.7541 3.53603 21.3789 2.9333 21.9581C2.85165 22.0368 2.73446 22.0652 2.62544 22.0316C2.51738 21.9984 2.43527 21.9096 2.41174 21.7986C2.14423 20.5548 2.0083 19.2763 2.0083 17.9993C2.0083 8.07466 10.083 0 20.0081 0C29.9375 0 38.0155 8.07466 38.0155 17.9993C38.0155 27.9249 29.9375 36 20.0081 36Z" fill="#090B0E"/>
<path d="M20.0078 0.62434C14.8061 0.62434 10.575 8.419 10.575 17.9993C10.575 20.1225 10.7811 22.1915 11.1888 24.1558C16.0212 22.8009 21.9462 20.5442 27.9192 17.7812L28.4874 17.5142C28.8034 17.3663 29.1184 17.2184 29.4311 17.0704C29.4128 16.254 29.3562 15.4111 29.2635 14.5596L29.1679 14.3728C29.0368 14.1029 29.0258 13.7994 29.13 13.5367C28.0307 5.92933 24.2865 0.62434 20.0078 0.62434ZM10.953 24.8569C10.8968 24.8569 10.8406 24.8416 10.7916 24.8123C10.7186 24.7681 10.6663 24.6956 10.648 24.612C10.1851 22.5089 9.9502 20.2839 9.9502 17.9993C9.9502 8.07466 14.4618 0 20.0078 0C24.6237 0 28.6339 5.56768 29.7615 13.5396C29.7706 13.6054 29.7586 13.6721 29.7279 13.7312C29.6683 13.8412 29.6683 13.9732 29.7265 14.0943L29.8451 14.3258C29.8624 14.3594 29.8734 14.3959 29.8777 14.4333C29.9844 15.3934 30.0458 16.3452 30.0598 17.2616C30.0612 17.3841 29.9916 17.496 29.8811 17.5483C29.5074 17.7255 29.1304 17.9023 28.7525 18.0795L28.1829 18.347C22.0466 21.1858 15.9578 23.494 11.0356 24.8459C11.0082 24.8536 10.9804 24.8569 10.953 24.8569ZM11.9995 27.1536C13.7203 32.2343 16.7709 35.3752 20.0078 35.3752C24.7067 35.3752 28.6728 29.0338 29.3485 20.5384L29.2159 20.5989C23.0671 23.4426 16.9692 25.7632 11.9995 27.1536ZM20.0078 36C16.4256 36 13.0901 32.5647 11.3031 27.0364C11.2772 26.9552 11.2848 26.8668 11.3252 26.7919C11.366 26.717 11.4357 26.6613 11.5178 26.6387C16.5115 25.269 22.704 22.9225 28.9547 20.0322L29.1765 19.9309C29.3067 19.8718 29.4378 19.8123 29.5656 19.7522C29.6645 19.7052 29.7822 19.7143 29.8734 19.7767C29.9647 19.8387 30.0161 19.9443 30.0088 20.0543C29.4369 29.1447 25.1371 36 20.0078 36Z" fill="#090B0E"/>
<path d="M5.39849 23.0778C6.19044 23.7468 7.13176 24.3586 8.20275 24.8999C9.01631 24.7222 9.88941 24.509 10.8 24.265C15.6727 22.9366 21.7524 20.6342 27.9194 17.781C28.745 17.4016 29.5485 17.0212 30.3121 16.649L29.1667 14.3706C29.0087 14.0532 29.025 13.6858 29.2099 13.3861C29.4294 13.0307 29.829 12.841 30.254 12.9159L35.6502 13.9014C32.748 10.6462 26.7409 8.57963 20.0081 8.57963C10.4273 8.57963 2.63313 12.805 2.63313 17.999C2.63313 18.9206 2.88239 19.8341 3.37562 20.7192C3.96394 20.213 4.54649 19.7428 5.14682 19.2895C5.23327 19.2237 5.34807 19.2078 5.4494 19.2482C5.55074 19.288 5.62374 19.3774 5.64247 19.4845C5.79999 20.3854 6.00745 21.2691 6.25959 22.111C6.29609 22.232 6.25575 22.3627 6.1573 22.4424C5.88355 22.6657 5.63046 22.8785 5.39849 23.0778ZM8.16143 25.5406C8.11388 25.5406 8.06586 25.5295 8.02216 25.5079C6.7365 24.8677 5.62325 24.1286 4.71508 23.3102C4.6488 23.2502 4.61135 23.1652 4.61183 23.0763C4.61231 22.9875 4.65071 22.9025 4.71747 22.8439C4.98017 22.6119 5.27554 22.3588 5.6026 22.0899C5.41578 21.4444 5.25488 20.7759 5.12089 20.0958C4.57771 20.5185 4.04559 20.9598 3.50434 21.4348C3.43518 21.4948 3.34296 21.5198 3.25363 21.5097C3.16286 21.4963 3.08266 21.4439 3.03416 21.3666C2.35363 20.2827 2.0083 19.1502 2.0083 17.999C2.0083 12.4606 10.083 7.9548 20.0081 7.9548C27.3662 7.9548 33.9083 10.3964 36.6746 14.1752C36.7505 14.2784 36.7553 14.4167 36.6876 14.5253C36.6194 14.6338 36.4916 14.6881 36.3668 14.667L30.144 13.5306C29.9942 13.5023 29.828 13.5739 29.7411 13.7141C29.669 13.8303 29.6633 13.9677 29.7247 14.0911L31.0118 16.6504C31.0493 16.7249 31.0555 16.8113 31.0291 16.8901C31.0022 16.9688 30.9456 17.0337 30.8706 17.0707C30.0182 17.4894 29.1134 17.9193 28.1807 18.3482C21.9844 21.2148 15.8692 23.5302 10.9628 24.8677C10.0004 25.1251 9.08065 25.3489 8.2277 25.5338C8.20561 25.5382 8.18352 25.5406 8.16143 25.5406ZM13.4703 26.7254C15.5431 27.1859 17.7374 27.4184 20.0081 27.4184C29.5931 27.4184 37.3912 23.1935 37.3912 17.999C37.3912 17.4803 37.3105 16.9612 37.1496 16.4492L34.6239 21.589C34.4496 21.9391 34.099 22.1562 33.709 22.1562C33.3234 22.1562 32.9776 21.9424 32.8061 21.5981L31.7073 19.4206C30.8889 19.8154 30.0585 20.2101 29.2166 20.5982C23.6624 23.1671 18.1226 25.3206 13.4703 26.7254ZM20.0081 28.0432C17.2691 28.0432 14.6383 27.7104 12.188 27.0544C12.0525 27.0179 11.9579 26.8959 11.9565 26.7552C11.9555 26.6149 12.0482 26.491 12.1832 26.4526C17.0208 25.0762 22.977 22.7959 28.9549 20.032C29.8885 19.6007 30.8077 19.1627 31.7116 18.7252C31.8638 18.6522 32.0497 18.7127 32.1265 18.8654L33.3642 21.3181C33.5001 21.5909 33.9294 21.5827 34.0644 21.3119L36.9051 15.5314C36.9585 15.4224 37.0545 15.3547 37.1904 15.3566C37.311 15.359 37.42 15.4306 37.4699 15.5405C37.8321 16.3426 38.0155 17.1701 38.0155 17.999C38.0155 23.5374 29.9375 28.0432 20.0081 28.0432Z" fill="#090B0E"/>
<path d="M28.1941 18.312H2.32047C2.14806 18.312 2.0083 18.1723 2.0083 17.9994C2.0083 17.8269 2.14806 17.6872 2.32047 17.6872H28.1941C28.367 17.6872 28.5068 17.8269 28.5068 17.9994C28.5068 18.1723 28.367 18.312 28.1941 18.312ZM37.7033 18.312H36.0412C35.8687 18.312 35.729 18.1723 35.729 17.9994C35.729 17.8269 35.8687 17.6872 36.0412 17.6872H37.7033C37.8758 17.6872 38.0155 17.8269 38.0155 17.9994C38.0155 18.1723 37.8758 18.312 37.7033 18.312Z" fill="#090B0E"/>
<path d="M20.008 21.8082C19.8356 21.8082 19.6958 21.6685 19.6958 21.4956V0.312172C19.6958 0.139755 19.8356 0 20.008 0C20.1809 0 20.3206 0.139755 20.3206 0.312172V21.4956C20.3206 21.6685 20.1809 21.8082 20.008 21.8082ZM20.008 36C19.8356 36 19.6958 35.8602 19.6958 35.6873V24.1495C19.6958 23.9766 19.8356 23.8369 20.008 23.8369C20.1809 23.8369 20.3206 23.9766 20.3206 24.1495V35.6873C20.3206 35.8602 20.1809 36 20.008 36Z" fill="#090B0E"/>
<path d="M5.12063 20.0968C3.82873 21.102 2.81202 22.0183 2.09355 22.8252C1.60416 23.3679 0.118229 25.0156 0.806925 26.5083C1.23628 27.4429 2.33655 27.9164 4.07606 27.9164H4.44538C5.50148 27.8886 6.7862 27.719 8.37298 27.3977C9.04007 27.2628 9.78063 27.0904 10.6374 26.8695C15.7873 25.5454 22.2924 23.1167 28.9542 20.0324C29.8883 19.6012 30.8075 19.1632 31.7113 18.7257C31.8636 18.6527 32.0494 18.7132 32.1263 18.8659L33.3639 21.3186C33.4998 21.5914 33.9292 21.5832 34.0641 21.3123L37.0206 15.2942C37.0754 15.1842 37.0754 15.0593 37.0221 14.9513C36.9668 14.8394 36.8631 14.7616 36.7387 14.738L30.1438 13.5311C29.9939 13.5028 29.8277 13.5744 29.7408 13.7146C29.6688 13.8308 29.663 13.9682 29.7245 14.0916L31.0116 16.6509C31.0491 16.7254 31.0553 16.8118 31.0289 16.8906C31.002 16.9693 30.9453 17.0342 30.8704 17.0711C30.0179 17.4904 29.1126 17.9198 28.1805 18.3486C21.9841 21.2153 15.8689 23.5307 10.9626 24.8682C9.51696 25.2548 8.26685 25.5415 7.24533 25.7221C5.99713 25.9454 4.93574 26.0583 4.09095 26.0583C3.86379 26.0583 3.66688 26.0501 3.49686 26.0362C3.19718 26.0074 2.94937 25.8316 2.82834 25.5651C2.7102 25.3033 2.74046 25.0075 2.91 24.7726C3.24954 24.2765 3.99491 23.4068 5.60235 22.0899C5.41553 21.4444 5.25463 20.7764 5.12063 20.0968ZM4.44972 28.5408H4.07606C2.07145 28.5408 0.780039 27.9448 0.239263 26.7696C-0.620887 24.9028 1.07252 23.0254 1.62914 22.4083C2.44511 21.4915 3.62895 20.4416 5.1461 19.2904C5.23303 19.2242 5.34828 19.2098 5.44866 19.2482C5.54999 19.288 5.62349 19.3778 5.64222 19.4849C5.79974 20.3859 6.00768 21.2696 6.25934 22.1115C6.29584 22.233 6.25551 22.3641 6.15658 22.4434C4.49583 23.7871 3.75237 24.6468 3.42051 25.1319C3.3648 25.2092 3.3821 25.275 3.39699 25.3076C3.41044 25.3369 3.45173 25.4047 3.55258 25.4143C3.70338 25.4267 3.88348 25.4344 4.09095 25.4344C4.89876 25.4344 5.92364 25.3245 7.13631 25.1079C8.14006 24.9302 9.37288 24.6468 10.7997 24.2655C15.6725 22.9371 21.7521 20.6347 27.9192 17.7814C28.7447 17.402 29.5482 17.0217 30.3119 16.6495L29.1664 14.3711C29.0084 14.0537 29.0247 13.6863 29.2096 13.3866C29.4291 13.0312 29.8287 12.8415 30.2537 12.9164L36.853 14.1243C37.1734 14.1852 37.438 14.3855 37.5816 14.6737C37.7228 14.9589 37.7223 15.286 37.5801 15.5713L34.6236 21.589C34.4493 21.9396 34.0987 22.1566 33.7088 22.1566C33.3231 22.1566 32.9773 21.9429 32.8058 21.5986L31.707 19.4211C30.8886 19.8158 30.0583 20.2106 29.2164 20.5987C22.5215 23.6988 15.9784 26.1404 10.793 27.4746C9.92568 27.6979 9.17455 27.8727 8.49689 28.0091C6.87265 28.3386 5.55143 28.512 4.45739 28.5403C4.45499 28.5408 4.4526 28.5408 4.44972 28.5408Z" fill="#090B0E"/>
</svg>
