<svg width="48" height="40" viewBox="0 0 48 40" fill="none" xmlns="http://www.w3.org/2000/svg">
<path d="M5.4 6.875C5.4 5.71468 5.8425 4.60188 6.63015 3.78141C7.4178 2.96094 8.48609 2.5 9.6 2.5C10.7139 2.5 11.7822 2.96094 12.5698 3.78141C13.3575 4.60188 13.8 5.71468 13.8 6.875C13.8 8.03532 13.3575 9.14812 12.5698 9.96859C11.7822 10.7891 10.7139 11.25 9.6 11.25C8.48609 11.25 7.4178 10.7891 6.63015 9.96859C5.8425 9.14812 5.4 8.03532 5.4 6.875ZM4.8 19.1953C4.05 20.0703 3.6 21.2344 3.6 22.5C3.6 23.7656 4.05 24.9297 4.8 25.8047V19.1875V19.1953ZM15.63 15.3437C13.4025 17.3984 12 20.4063 12 23.75C12 26.4297 12.9 28.8906 14.4 30.8203V32.5C14.4 33.8828 13.3275 35 12 35H7.2C5.8725 35 4.8 33.8828 4.8 32.5V30.4063C1.965 29 0 25.9922 0 22.5C0 17.6641 3.7575 13.75 8.4 13.75H10.8C12.6 13.75 14.265 14.3359 15.63 15.3359V15.3437ZM33.6 32.5V30.8203C35.1 28.8906 36 26.4297 36 23.75C36 20.4063 34.5975 17.3984 32.37 15.3359C33.735 14.3359 35.4 13.75 37.2 13.75H39.6C44.2425 13.75 48 17.6641 48 22.5C48 25.9922 46.035 29 43.2 30.4063V32.5C43.2 33.8828 42.1275 35 40.8 35H36C34.6725 35 33.6 33.8828 33.6 32.5ZM34.2 6.875C34.2 5.71468 34.6425 4.60188 35.4302 3.78141C36.2178 2.96094 37.2861 2.5 38.4 2.5C39.5139 2.5 40.5822 2.96094 41.3698 3.78141C42.1575 4.60188 42.6 5.71468 42.6 6.875C42.6 8.03532 42.1575 9.14812 41.3698 9.96859C40.5822 10.7891 39.5139 11.25 38.4 11.25C37.2861 11.25 36.2178 10.7891 35.4302 9.96859C34.6425 9.14812 34.2 8.03532 34.2 6.875ZM43.2 19.1953V25.8125C43.95 24.9297 44.4 23.7734 44.4 22.5078C44.4 21.2422 43.95 20.0781 43.2 19.2031V19.1953ZM24 2.5C25.273 2.5 26.4939 3.02678 27.3941 3.96447C28.2943 4.90215 28.8 6.17392 28.8 7.5C28.8 8.82608 28.2943 10.0979 27.3941 11.0355C26.4939 11.9732 25.273 12.5 24 12.5C22.727 12.5 21.5061 11.9732 20.6059 11.0355C19.7057 10.0979 19.2 8.82608 19.2 7.5C19.2 6.17392 19.7057 4.90215 20.6059 3.96447C21.5061 3.02678 22.727 2.5 24 2.5ZM18 23.75C18 25.0156 18.45 26.1719 19.2 27.0547V20.4375C18.45 21.3203 18 22.4766 18 23.7422V23.75ZM28.8 20.4453V27.0625C29.55 26.1797 30 25.0234 30 23.7578C30 22.4922 29.55 21.3281 28.8 20.4531V20.4453ZM33.6 23.75C33.6 27.2422 31.635 30.25 28.8 31.6563V35C28.8 36.3828 27.7275 37.5 26.4 37.5H21.6C20.2725 37.5 19.2 36.3828 19.2 35V31.6563C16.365 30.25 14.4 27.2422 14.4 23.75C14.4 18.9141 18.1575 15 22.8 15H25.2C29.8425 15 33.6 18.9141 33.6 23.75Z" fill="#0587FF"/>
</svg>
