<svg width="30" height="28" viewBox="0 0 30 28" fill="none" xmlns="http://www.w3.org/2000/svg">
<path d="M3.01527 19.0758C3.11927 19.325 3.22142 19.5573 3.32579 19.7803C3.93789 19.7684 4.6744 19.6836 5.5179 19.5282C6.29528 19.39 7.24872 19.1696 8.35222 18.873C12.1207 17.8398 16.8225 16.049 21.5919 13.8299C22.2304 13.5348 22.8518 13.2389 23.4423 12.9494L22.5565 11.1774C22.4343 10.9305 22.4469 10.6447 22.5899 10.4116C22.7596 10.1352 23.0687 9.98764 23.3974 10.0459L28.5011 10.9854C28.5297 10.991 28.5575 10.9977 28.5846 11.0059C27.2264 4.98972 21.8634 0.485598 15.4735 0.485598C8.06399 0.485598 2.03621 6.54811 2.03621 13.9994C2.03621 14.8141 2.10901 15.6292 2.25349 16.4282C2.74414 15.9799 3.3228 15.5018 3.98022 15.0031C4.04708 14.952 4.13586 14.9396 4.21423 14.971C4.2926 15.002 4.34905 15.0715 4.36354 15.1548C4.48536 15.8555 4.64618 16.5429 4.8408 17.1977C4.86903 17.2926 4.83746 17.3949 4.76095 17.4565C4.04002 18.0381 3.45392 18.5824 3.01527 19.0758ZM4.71639 22.0959C7.25171 25.4965 11.2419 27.514 15.4735 27.514C22.8863 27.514 28.9171 21.4515 28.9171 13.9994C28.9171 13.5146 28.8915 13.0361 28.8417 12.5639L26.7769 16.7913C26.6421 17.0639 26.371 17.2328 26.0694 17.2328C25.7711 17.2328 25.5037 17.0666 25.3711 16.7987L24.5213 15.1051C23.8884 15.4122 23.2462 15.7192 22.5951 16.021C17.4175 18.4322 12.3573 20.3313 8.34703 21.369C7.67624 21.5427 7.09534 21.6786 6.57126 21.7847C5.90345 21.9237 5.28132 22.0279 4.71639 22.0959ZM15.4735 28C10.947 28 6.68714 25.7711 4.07828 22.0387C4.02888 21.9674 4.02034 21.8755 4.05673 21.797C4.09313 21.7182 4.16817 21.6652 4.2536 21.657C4.90693 21.5964 5.65421 21.4795 6.47431 21.3092C6.99133 21.2042 7.56407 21.0701 8.22668 20.8983C12.2094 19.8685 17.2403 17.9795 22.3923 15.5806C23.1147 15.2452 23.8256 14.9045 24.5247 14.5642C24.6424 14.5075 24.7861 14.5545 24.8455 14.6733L25.8027 16.581C25.9078 16.7931 26.2399 16.7868 26.3442 16.5761L28.6307 11.8953C28.673 11.8098 28.673 11.7126 28.6318 11.6286C28.5891 11.5416 28.5089 11.4811 28.4127 11.4627L23.3123 10.524C23.1964 10.502 23.0679 10.5577 23.0007 10.6667C22.945 10.7571 22.9405 10.864 22.9881 10.96L23.9835 12.9505C24.0125 13.0084 24.0173 13.0757 23.9968 13.1369C23.976 13.1982 23.9322 13.2486 23.8743 13.2774C23.215 13.6035 22.5149 13.9374 21.794 14.271C17.0019 16.5006 12.2726 18.3015 8.47813 19.3418C7.36016 19.6425 6.39335 19.8655 5.60334 20.0059C4.66178 20.1792 3.84392 20.2674 3.17425 20.2674C3.08176 20.2674 2.99708 20.214 2.95696 20.1299C2.80616 19.8158 2.6602 19.4863 2.51126 19.1218C2.47671 19.0373 2.49232 18.9406 2.55137 18.8711C2.99374 18.3545 3.59246 17.7864 4.33233 17.1805C4.18821 16.6781 4.06343 16.1585 3.9598 15.6296C3.30275 16.142 2.73448 16.628 2.26835 17.0785C2.2052 17.1398 2.11457 17.1618 2.03026 17.1357C1.94669 17.1099 1.88319 17.0408 1.86499 16.9545C1.65811 15.987 1.55298 14.9927 1.55298 13.9994C1.55298 6.28029 7.79768 -1.90735e-06 15.4735 -1.90735e-06C23.1526 -1.90735e-06 29.3999 6.28029 29.3999 13.9994C29.3999 21.7193 23.1526 28 15.4735 28Z" fill="#155FFF"/>
<path d="M15.4736 0.485598C11.4507 0.485598 8.17854 6.54811 8.17854 13.9994C8.17854 15.6508 8.33787 17.26 8.65321 18.7878C12.3904 17.7341 16.9727 15.9788 21.592 13.8299L22.0314 13.6222C22.2758 13.5071 22.5195 13.3921 22.7613 13.277C22.7472 12.642 22.7033 11.9864 22.6316 11.3242L22.5577 11.1789C22.4563 10.9689 22.4478 10.7329 22.5284 10.5285C21.6782 4.6117 18.7826 0.485598 15.4736 0.485598ZM8.47084 19.3332C8.42738 19.3332 8.38393 19.3212 8.34604 19.2984C8.28959 19.2641 8.24911 19.2077 8.235 19.1427C7.87695 17.507 7.69531 15.7764 7.69531 13.9994C7.69531 6.28029 11.1844 -1.90735e-06 15.4736 -1.90735e-06C19.0433 -1.90735e-06 22.1447 4.33042 23.0168 10.5308C23.0239 10.5819 23.0146 10.6339 22.9908 10.6798C22.9448 10.7653 22.9448 10.8681 22.9897 10.9622L23.0814 11.1423C23.0948 11.1684 23.1034 11.1968 23.1067 11.2259C23.1892 11.9726 23.2367 12.713 23.2475 13.4257C23.2486 13.5209 23.1947 13.608 23.1093 13.6487C22.8203 13.7865 22.5288 13.924 22.2365 14.0618L21.796 14.2699C17.0503 16.4779 12.3414 18.2731 8.53473 19.3246C8.51356 19.3306 8.49201 19.3332 8.47084 19.3332ZM9.28016 21.1194C10.611 25.0711 12.9702 27.514 15.4736 27.514C19.1076 27.514 22.1748 22.5818 22.6974 15.9743L22.5949 16.0214C17.8396 18.2331 13.1236 20.038 9.28016 21.1194ZM15.4736 28C12.7032 28 10.1237 25.3281 8.7416 21.0283C8.72155 20.9652 8.72749 20.8964 8.75869 20.8382C8.79026 20.7799 8.84412 20.7366 8.90764 20.719C12.7697 19.6537 17.5588 17.8286 22.3928 15.5806L22.5644 15.5018C22.6651 15.4559 22.7665 15.4095 22.8653 15.3629C22.9418 15.3262 23.0328 15.3333 23.1034 15.3819C23.1739 15.4301 23.2137 15.5123 23.2081 15.5978C22.7657 22.6681 19.4404 28 15.4736 28Z" fill="#155FFF"/>
<path d="M4.17485 17.9485C4.78733 18.4689 5.51532 18.9448 6.34359 19.3657C6.97277 19.2275 7.648 19.0617 8.35222 18.8719C12.1207 17.8387 16.8225 16.048 21.5919 13.8288C22.2304 13.5337 22.8518 13.2379 23.4423 12.9484L22.5565 11.1763C22.4343 10.9294 22.4469 10.6436 22.5899 10.4106C22.7596 10.1341 23.0687 9.98659 23.3974 10.0449L27.5707 10.8114C25.3262 8.27953 20.6804 6.6722 15.4735 6.6722C8.06399 6.6722 2.03621 9.95858 2.03621 13.9984C2.03621 14.7152 2.22897 15.4257 2.61042 16.1141C3.06541 15.7204 3.51594 15.3547 3.98022 15.0021C4.04708 14.9509 4.13586 14.9386 4.21423 14.97C4.2926 15.001 4.34905 15.0704 4.36354 15.1537C4.48536 15.8545 4.6458 16.5418 4.8408 17.1966C4.86903 17.2908 4.83783 17.3924 4.76169 17.4544C4.54998 17.6281 4.35425 17.7935 4.17485 17.9485ZM6.31163 19.864C6.27486 19.864 6.23772 19.8555 6.20392 19.8387C5.20963 19.3407 4.34868 18.7659 3.64632 18.1293C3.59507 18.0826 3.5661 18.0165 3.56647 17.9474C3.56684 17.8783 3.59654 17.8122 3.64817 17.7666C3.85134 17.5862 4.07977 17.3894 4.33271 17.1802C4.18822 16.6781 4.06379 16.1582 3.96016 15.6292C3.54008 15.958 3.12856 16.3012 2.70997 16.6707C2.65649 16.7174 2.58516 16.7368 2.51608 16.729C2.44588 16.7185 2.38386 16.6778 2.34635 16.6176C1.82004 15.7746 1.55298 14.8938 1.55298 13.9984C1.55298 9.69075 7.79768 6.18623 15.4735 6.18623C21.164 6.18623 26.2235 8.08528 28.3629 11.0243C28.4216 11.1046 28.4253 11.2122 28.3729 11.2966C28.3202 11.381 28.2214 11.4232 28.1248 11.4068L23.3123 10.523C23.1964 10.501 23.0679 10.5566 23.0007 10.6657C22.945 10.7561 22.9405 10.8629 22.9881 10.9589L23.9835 12.9495C24.0125 13.0074 24.0173 13.0746 23.9968 13.1359C23.976 13.1971 23.9322 13.2476 23.8743 13.2763C23.215 13.6021 22.5153 13.9364 21.794 14.2699C17.0019 16.4996 12.2726 18.3004 8.47813 19.3407C7.73381 19.5409 7.02253 19.715 6.36288 19.8588C6.3458 19.8622 6.32872 19.864 6.31163 19.864ZM10.4173 20.7856C12.0204 21.1438 13.7174 21.3246 15.4735 21.3246C22.8863 21.3246 28.9171 18.0386 28.9171 13.9984C28.9171 13.595 28.8547 13.1912 28.7303 12.793L26.7769 16.7906C26.6421 17.0629 26.371 17.2317 26.0694 17.2317C25.7711 17.2317 25.5037 17.0655 25.3711 16.7977L24.5213 15.1041C23.8884 15.4111 23.2462 15.7182 22.5951 16.02C18.2996 18.018 14.0153 19.693 10.4173 20.7856ZM15.4735 21.8105C13.3553 21.8105 11.3206 21.5517 9.42564 21.0414C9.3209 21.0131 9.24772 20.9182 9.2466 20.8087C9.24586 20.6997 9.31755 20.6033 9.42192 20.5734C13.1632 19.5028 17.7696 17.7293 22.3927 15.5796C23.1147 15.2441 23.8256 14.9035 24.5247 14.5632C24.6424 14.5064 24.7861 14.5535 24.8455 14.6723L25.8027 16.5799C25.9078 16.7921 26.2399 16.7857 26.3442 16.575L28.5412 12.0792C28.5824 11.9944 28.6567 11.9417 28.7618 11.9432C28.855 11.9451 28.9394 12.0007 28.978 12.0863C29.258 12.7101 29.3999 13.3537 29.3999 13.9984C29.3999 18.306 23.1526 21.8105 15.4735 21.8105Z" fill="#155FFF"/>
<path d="M21.8044 14.2422H1.7944C1.66106 14.2422 1.55298 14.1335 1.55298 13.999C1.55298 13.8649 1.66106 13.7562 1.7944 13.7562H21.8044C21.9381 13.7562 22.0461 13.8649 22.0461 13.999C22.0461 14.1335 21.9381 14.2422 21.8044 14.2422ZM29.1585 14.2422H27.873C27.7397 14.2422 27.6316 14.1335 27.6316 13.999C27.6316 13.8649 27.7397 13.7562 27.873 13.7562H29.1585C29.2918 13.7562 29.3999 13.8649 29.3999 13.999C29.3999 14.1335 29.2918 14.2422 29.1585 14.2422Z" fill="#155FFF"/>
<path d="M15.4736 16.962C15.3403 16.962 15.2322 16.8533 15.2322 16.7188V0.242798C15.2322 0.108698 15.3403 -1.90735e-06 15.4736 -1.90735e-06C15.6073 -1.90735e-06 15.7154 0.108698 15.7154 0.242798V16.7188C15.7154 16.8533 15.6073 16.962 15.4736 16.962ZM15.4736 28C15.3403 28 15.2322 27.8913 15.2322 27.7568V18.783C15.2322 18.6485 15.3403 18.5398 15.4736 18.5398C15.6073 18.5398 15.7154 18.6485 15.7154 18.783V27.7568C15.7154 27.8913 15.6073 28 15.4736 28Z" fill="#155FFF"/>
<path d="M3.96015 15.6317C2.96103 16.4135 2.17474 17.1262 1.61909 17.7537C1.24061 18.1758 0.0914346 19.4575 0.624053 20.6184C0.956103 21.3453 1.80702 21.7136 3.15231 21.7136H3.43793C4.25469 21.692 5.24825 21.5601 6.47542 21.3102C6.99133 21.2052 7.56406 21.0711 8.22667 20.8993C12.2094 19.8695 17.2403 17.9805 22.3923 15.5816C23.1147 15.2462 23.8256 14.9055 24.5246 14.5652C24.6424 14.5085 24.7861 14.5555 24.8455 14.6743L25.8027 16.582C25.9078 16.7941 26.2399 16.7878 26.3442 16.5771L28.6307 11.8963C28.673 11.8108 28.673 11.7136 28.6318 11.6296C28.5891 11.5426 28.5089 11.4821 28.4127 11.4638L23.3123 10.5251C23.1964 10.503 23.0679 10.5587 23.0007 10.6677C22.945 10.7581 22.9405 10.865 22.9881 10.961L23.9835 12.9515C24.0124 13.0094 24.0173 13.0767 23.9968 13.1379C23.976 13.1992 23.9322 13.2496 23.8743 13.2784C23.215 13.6045 22.5149 13.9384 21.794 14.272C17.0019 16.5017 12.2726 18.3025 8.47812 19.3428C7.36015 19.6435 6.39334 19.8665 5.60333 20.0069C4.638 20.1806 3.81716 20.2684 3.16383 20.2684C2.98814 20.2684 2.83586 20.2621 2.70437 20.2512C2.47261 20.2288 2.28096 20.0921 2.18736 19.8848C2.09599 19.6812 2.1194 19.4511 2.25051 19.2684C2.5131 18.8826 3.08955 18.2061 4.3327 17.1819C4.18821 16.6798 4.06378 16.1602 3.96015 15.6317ZM3.44129 22.1992H3.15231C1.602 22.1992 0.60326 21.7357 0.185039 20.8216C-0.480176 19.3697 0.829453 17.9095 1.25993 17.4295C1.89097 16.7164 2.80653 15.8999 3.97985 15.0045C4.04707 14.953 4.13621 14.9418 4.21383 14.9716C4.2922 15.0026 4.34904 15.0725 4.36353 15.1558C4.48535 15.8565 4.64617 16.5439 4.84079 17.1987C4.86902 17.2932 4.83783 17.3952 4.76132 17.4568C3.47694 18.5019 2.90198 19.1706 2.64532 19.5479C2.60224 19.608 2.61562 19.6592 2.62713 19.6846C2.63753 19.7073 2.66947 19.76 2.74746 19.7675C2.86409 19.7772 3.00337 19.7832 3.16383 19.7832C3.78856 19.7832 4.58118 19.6976 5.51901 19.5292C6.29528 19.391 7.24871 19.1706 8.35221 18.874C12.1206 17.8408 16.8225 16.05 21.5919 13.8309C22.2304 13.5358 22.8518 13.2399 23.4423 12.9504L22.5565 11.1784C22.4343 10.9315 22.4469 10.6457 22.5899 10.4126C22.7596 10.1362 23.0687 9.98865 23.3974 10.0469L28.5011 10.9864C28.7488 11.0338 28.9535 11.1896 29.0645 11.4137C29.1737 11.6356 29.1733 11.89 29.0634 12.1118L26.7769 16.7923C26.6421 17.0649 26.371 17.2338 26.0694 17.2338C25.7711 17.2338 25.5037 17.0676 25.3711 16.7997L24.5213 15.1061C23.8884 15.4132 23.2462 15.7202 22.5951 16.022C17.4175 18.4332 12.3573 20.3323 8.34702 21.37C7.67623 21.5437 7.09533 21.6796 6.57125 21.7857C5.31511 22.042 4.29331 22.1768 3.44722 22.1988C3.44536 22.1992 3.44351 22.1992 3.44129 22.1992Z" fill="#155FFF"/>
</svg>
