<svg width="48" height="48" viewBox="0 0 48 48" fill="none" xmlns="http://www.w3.org/2000/svg">
<g clip-path="url(#clip0_1364_38281)">
<path d="M24 4.5C13.2281 4.5 4.5 13.2281 4.5 24V27.75C4.5 28.9969 3.49688 30 2.25 30C1.00312 30 0 28.9969 0 27.75V24C0 10.7438 10.7438 0 24 0C37.2562 0 48 10.7438 48 24V37.5094C48 42.0656 44.3062 45.7594 39.7406 45.7594L29.4 45.75C28.6219 47.0906 27.1688 48 25.5 48H22.5C20.0156 48 18 45.9844 18 43.5C18 41.0156 20.0156 39 22.5 39H25.5C27.1688 39 28.6219 39.9094 29.4 41.25L39.75 41.2594C41.8219 41.2594 43.5 39.5812 43.5 37.5094V24C43.5 13.2281 34.7719 4.5 24 4.5ZM13.5 19.5H15C16.6594 19.5 18 20.8406 18 22.5V33C18 34.6594 16.6594 36 15 36H13.5C10.1906 36 7.5 33.3094 7.5 30V25.5C7.5 22.1906 10.1906 19.5 13.5 19.5ZM34.5 19.5C37.8094 19.5 40.5 22.1906 40.5 25.5V30C40.5 33.3094 37.8094 36 34.5 36H33C31.3406 36 30 34.6594 30 33V22.5C30 20.8406 31.3406 19.5 33 19.5H34.5Z" fill="#0587FF"/>
</g>
<defs>
<clipPath id="clip0_1364_38281">
<rect width="48" height="48" fill="white"/>
</clipPath>
</defs>
</svg>
