<svg width="28" height="51" viewBox="0 0 28 51" fill="none" xmlns="http://www.w3.org/2000/svg">
<path d="M6.79387 36.5805L6.07855 40.4791C6.038 40.6972 5.93779 40.8494 5.79932 40.9297L7.17639 40.1295C7.31563 40.0484 7.41584 39.8969 7.45485 39.6789L8.17171 35.7803L6.79387 36.5805Z" fill="white"/>
<path d="M4.72266 35.3839L6.09896 34.5837L8.17146 35.7802L6.79362 36.5804L4.72266 35.3839Z" fill="#594A42"/>
<path d="M6.79343 36.5803L6.07811 40.479C5.98401 40.9908 5.55787 41.1369 5.07513 40.8584L4.88847 40.7314C4.33534 40.2923 3.9712 39.4699 4.07754 38.8946L4.72246 35.3838L6.79343 36.5803Z" fill="white"/>
<path d="M23.2945 48.3934L22.671 44.1513L21.2939 44.9515L21.9167 49.1937C21.9794 49.6236 21.8632 49.9403 21.6359 50.0727L23.0138 49.2725C23.2402 49.1401 23.3573 48.8234 23.2945 48.3934Z" fill="white"/>
<path d="M19.2227 43.7562L20.6005 42.956L22.6714 44.151L21.2944 44.9512L19.2227 43.7562Z" fill="#594A42"/>
<path d="M21.2944 44.9515L21.9171 49.1936C22.0189 49.8898 21.6509 50.2899 21.0985 50.0902L20.9103 50.0023C20.4291 49.723 20.0015 49.0819 19.915 48.4684L19.2227 43.7565L21.2944 44.9515Z" fill="white"/>
<path d="M6.79346 36.5805L8.17129 35.7803L20.6001 42.9564L19.2223 43.7566L6.79346 36.5805Z" fill="#2CC971"/>
<path d="M6.0752 29.2956L7.45303 28.4954L9.62804 29.7516L8.25096 30.5518L6.0752 29.2956Z" fill="#F2F2F2"/>
<path d="M6.08973 24.2968L7.46603 23.4958L7.45303 28.4954L6.0752 29.2956L6.08973 24.2968Z" fill="#F2F2F2"/>
<path d="M9.00781 30.9884L10.3841 30.1882L12.5591 31.4444L11.182 32.2446L9.00781 30.9884Z" fill="#F2F2F2"/>
<path d="M4.11377 18.4833L5.49161 17.6831L6.41042 19.6071L5.03335 20.4081L4.11377 18.4833Z" fill="#F2F2F2"/>
<path d="M6.08984 24.2969L7.46615 23.4959L9.64347 24.7521L8.2641 25.5531L6.08984 24.2969Z" fill="#006838"/>
<path d="M8.26448 25.5531L9.64385 24.7521L9.62854 29.7516L8.25146 30.5518L8.26448 25.5531Z" fill="#006838"/>
<path d="M11.9395 32.6817L13.3173 31.8815L15.4915 33.1377L14.1152 33.9379L11.9395 32.6817Z" fill="#F2F2F2"/>
<path d="M9.02388 24.8999L10.4017 24.0989L10.3841 30.1887L9.00781 30.9889L9.02388 24.8999Z" fill="#F2F2F2"/>
<path d="M11.2007 26.1557L12.5785 25.3547L12.5602 31.4444L11.1831 32.2446L11.2007 26.1557Z" fill="#006838"/>
<path d="M9.0249 24.8998L10.4027 24.0988L12.5785 25.355L11.2007 26.156L9.0249 24.8998Z" fill="#006838"/>
<path d="M14.8735 34.3755L16.2514 33.5737L18.4256 34.8299L17.0478 35.6301L14.8735 34.3755Z" fill="#F2F2F2"/>
<path d="M11.9601 25.0733L13.3379 24.2723L13.3173 31.8814L11.9395 32.6816L11.9601 25.0733Z" fill="#F2F2F2"/>
<path d="M17.8052 36.068L19.183 35.267L21.358 36.5232L19.9809 37.3234L17.8052 36.068Z" fill="#F2F2F2"/>
<path d="M14.1364 26.3281L15.5142 25.5278L15.492 33.1377L14.1157 33.9379L14.1364 26.3281Z" fill="#009444"/>
<path d="M11.9609 25.0734L13.3388 24.2724L15.5146 25.5278L14.1367 26.3281L11.9609 25.0734Z" fill="#009444"/>
<path d="M14.1359 26.3281L14.1152 33.9379L11.9395 32.6817L11.9601 25.0734L14.1359 26.3281Z" fill="#911722"/>
<path d="M0.570312 31.2927L1.94738 30.4924L26.8326 44.8599L25.4548 45.6601L0.570312 31.2927Z" fill="#594A42"/>
<path d="M0.650645 2.95552L2.02848 2.15528L1.94738 30.4924L0.570312 31.2926L0.650645 2.95552Z" fill="#594A42"/>
<path d="M14.9003 24.7009L16.2782 23.8999L16.2514 33.5738L14.8735 34.3755L14.9003 24.7009Z" fill="#F2F2F2"/>
<path d="M5.03418 20.4081L6.41125 19.6071L12.7833 17.7137L11.4054 18.5131L5.03418 20.4081Z" fill="#F2F2F2"/>
<path d="M17.0757 25.957L18.4535 25.156L18.4252 34.8307L17.0474 35.6301L17.0757 25.957Z" fill="#39B54A"/>
<path d="M14.9004 24.7009L16.2782 23.8999L18.454 25.1561L17.0762 25.9571L14.9004 24.7009Z" fill="#39B54A"/>
<path d="M11.4048 18.5131L12.7826 17.7137L17.0286 21.7929L15.6515 22.5923L11.4048 18.5131Z" fill="#F2F2F2"/>
<path d="M11.1284 16.3917L12.5047 15.5907L16.7308 19.6531L15.3545 20.4541L11.1284 16.3917Z" fill="#006838"/>
<path d="M17.8411 23.4591L19.219 22.6589L19.183 35.2668L17.8052 36.0677L17.8411 23.4591Z" fill="#F2F2F2"/>
<path d="M20.0164 24.7163L21.392 23.9153L21.3575 36.5232L19.9805 37.3234L20.0164 24.7163Z" fill="#8DC63F"/>
<path d="M17.8408 23.459L19.2187 22.6588L21.3921 23.915L20.0166 24.716L17.8408 23.459Z" fill="#8DC63F"/>
<path d="M19.645 21.2712L21.0229 20.4709L21.286 21.7478L19.9097 22.548L19.645 21.2712Z" fill="#F2F2F2"/>
<path d="M15.6523 22.5923L17.0294 21.7929L21.0237 20.4709L19.6459 21.2711L15.6523 22.5923Z" fill="#F2F2F2"/>
<path d="M15.354 20.4541L16.7303 19.6531L20.0789 18.5469L18.7011 19.3471L15.354 20.4541Z" fill="#006838"/>
<path d="M17.814 18.2735L19.191 17.4733L20.0793 18.5466L18.7014 19.3469L17.814 18.2735Z" fill="#F2F2F2"/>
<path d="M22.0212 19.3632L23.3982 18.5629L21.286 21.7478L19.9097 22.548L22.0212 19.3632Z" fill="#006838"/>
<path d="M22.021 19.3631L19.9095 22.548L19.6448 21.2711L15.6513 22.5923L11.4046 18.5131L5.03335 20.4082L4.11377 18.4833L11.1277 16.3917L15.3537 20.4541L18.7008 19.347L17.8133 18.2737L22.021 19.3631Z" fill="#FDC63A"/>
<path d="M17.814 18.2737L19.191 17.4735L23.3988 18.5629L22.0217 19.3631L17.814 18.2737Z" fill="#006838"/>
<path d="M8.25054 30.5521L8.26356 25.5533L6.0893 24.2971L6.07477 29.2959L8.25054 30.5521ZM11.1822 32.2451L11.1998 26.1562L9.024 24.9L9.00794 30.9889L11.1822 32.2451ZM14.1153 33.9382L14.136 26.3283L11.9602 25.0736L11.9396 32.682L14.1153 33.9382ZM17.047 35.6304L17.0753 25.9573L14.8995 24.7011L14.8727 34.3758L17.047 35.6304ZM19.9801 37.3235L20.0161 24.7164L17.8403 23.4594L17.8044 36.068L19.9801 37.3235ZM19.9098 22.5482L22.0213 19.3634L17.8135 18.274L18.701 19.3473L15.3539 20.4543L11.1279 16.392L4.11398 18.4836L5.03356 20.4084L11.4048 18.5134L15.6515 22.5926L19.6451 21.2714L19.9098 22.5482ZM0.650645 2.95557L25.5351 17.323L25.4548 45.6601L0.570312 31.2927L0.650645 2.95557Z" fill="#F2F2F2"/>
<path d="M8.26398 25.5531L8.25096 30.5518L6.0752 29.2956L6.08973 24.2969L8.26398 25.5531Z" fill="#FDA014"/>
<path d="M11.1996 26.1557L11.182 32.2446L9.00781 30.9884L9.02388 24.8995L11.1996 26.1557Z" fill="#BE1E2D"/>
<path d="M17.0761 25.957L17.0478 35.6301L14.8735 34.3755L14.9003 24.7008L17.0761 25.957Z" fill="#C1D64B"/>
<path d="M20.0169 24.7163L19.9809 37.3234L17.8052 36.068L17.8411 23.4594L20.0169 24.7163Z" fill="#9FB603"/>
<path d="M12.4146 8.96752L13.7924 8.16652C13.7909 8.59724 14.0984 9.12359 14.4679 9.33704L13.0916 10.1373C12.7206 9.92382 12.4146 9.39747 12.4146 8.96752Z" fill="#594A42"/>
<path d="M14.9547 9.38651L13.5776 10.1875C13.4544 10.2587 13.2815 10.248 13.0918 10.1378L14.4681 9.33756C14.6594 9.44772 14.8323 9.45843 14.9547 9.38651Z" fill="#594A42"/>
<path d="M0.0898438 0.941801L1.46692 0.141572L13.7963 7.25873L12.4185 8.05896L0.0898438 0.941801Z" fill="#16485E"/>
<path d="M14.9552 9.38613L13.5781 10.1871C13.7005 10.116 13.7747 9.96603 13.7747 9.75259L15.1526 8.95159C15.1526 9.1658 15.0768 9.31498 14.9552 9.38613Z" fill="#594A42"/>
<path d="M0.650879 2.95548L2.02872 2.15525L26.9132 16.5227L25.5353 17.3229L0.650879 2.95548Z" fill="#F2F2F2"/>
<path d="M12.4176 8.05897L13.7955 7.25874L13.7924 8.16684L12.4146 8.96783L12.4176 8.05897Z" fill="#594A42"/>
<path d="M13.777 8.84477L15.1548 8.04454L15.1518 8.95187L13.7739 9.75287L13.777 8.84477Z" fill="#594A42"/>
<path d="M13.785 6.245L15.1628 5.44401L15.1552 8.04438L13.7773 8.8446L13.785 6.245Z" fill="#0F303F"/>
<path d="M13.1046 5.07213C13.4833 5.29017 13.7863 5.81422 13.7847 6.24493L13.7771 8.84454L13.774 9.75264C13.7725 10.1834 13.4695 10.3555 13.0916 10.1375C12.7206 9.92401 12.4146 9.39766 12.4146 8.96771L12.4176 8.05884L12.4253 5.46C12.4268 5.02852 12.7359 4.85868 13.1046 5.07213Z" fill="#1C5975"/>
<path d="M14.4836 4.27137C14.2969 4.16427 14.1248 4.15432 14.0008 4.227L12.6245 5.02723C12.7492 4.95532 12.9191 4.96374 13.1057 5.07238C13.4844 5.29041 13.7874 5.81446 13.7858 6.24518L15.1637 5.44418C15.1652 5.01423 14.8615 4.49017 14.4836 4.27137Z" fill="#0F303F"/>
<path d="M25.5349 17.323L26.9128 16.5228L26.8324 44.8599L25.4546 45.6601L25.5349 17.323Z" fill="#F2F2F2"/>
<path d="M13.7773 8.84475L15.1552 8.04452L27.4838 15.1624L26.1052 15.9619L13.7773 8.84475Z" fill="#0F303F"/>
<path d="M13.7776 8.84437L26.1055 15.9615L26.0152 47.6778L21.2941 44.9512L19.2224 43.7562L6.79356 36.5801L4.72259 35.3836L0 32.6578L0.0895037 0.941513L12.4181 8.05867L12.4151 8.96754C12.4151 9.3975 12.7211 9.92384 13.0921 10.1373L0.65105 2.95509L0.570717 31.2922L25.4552 45.6596L25.5355 17.3225L13.0921 10.1373C13.47 10.3553 13.773 10.1832 13.7745 9.75247L13.7776 8.84437Z" fill="#1C5975"/>
<path d="M26.1054 15.9615L27.484 15.1621L27.393 46.8783L26.0151 47.6778L26.1054 15.9615Z" fill="#0F303F"/>
</svg>
