<svg width="39" height="41" viewBox="0 0 39 41" fill="none" xmlns="http://www.w3.org/2000/svg">
<path d="M34.319 30.6567L34.3157 31.8442L15.666 21.0764L15.6694 19.8891L34.319 30.6567Z" fill="#E8E8E8"/>
<path d="M15.2861 19.5807C15.0848 19.5385 14.9081 19.5214 14.6952 19.5219C14.5 19.5258 14.3394 19.5442 14.1565 19.5831C13.9408 19.6336 13.779 19.6947 13.6117 19.7891C13.6106 20.1455 13.6095 20.6204 13.6084 20.9767C13.7679 20.8838 13.9547 20.8149 14.1537 20.7704C14.326 20.732 14.5084 20.7109 14.6907 20.7092C14.892 20.707 15.0926 20.7265 15.2827 20.7682C15.2827 20.6632 15.2827 20.5585 15.2827 20.454C15.2839 20.1629 15.285 19.8721 15.2861 19.5807Z" fill="white"/>
<path d="M15.4562 19.6252C15.4 19.608 15.3433 19.5935 15.2861 19.5807C15.2849 19.8721 15.2827 20.1629 15.2827 20.454C15.2827 20.5585 15.2827 20.6632 15.2827 20.7682C15.34 20.7804 15.3978 20.796 15.4534 20.8125C15.5924 20.8542 15.7224 20.9094 15.8397 20.9767L15.8431 19.7891C15.7202 19.7196 15.6085 19.6719 15.4562 19.6252Z" fill="white"/>
<path d="M2.68834 26.2349L2.68501 27.4222L2.60107 27.3738L2.6044 26.1864L2.68834 26.2349Z" fill="#E8E8E8"/>
<path d="M8.57355 23.3773L8.57021 24.5653L7.63965 25.1056L7.64299 23.9182L8.57355 23.3773Z" fill="#2C5871"/>
<path d="M7.06134 24.2563L7.058 25.4441L6.12744 25.985L6.13078 24.7977L7.06134 24.2563Z" fill="#2C5871"/>
<path d="M2.77462 26.285L2.77017 27.4723L2.68457 27.4224L2.6879 26.235L2.77462 26.285Z" fill="#E8E8E8"/>
<path d="M2.38428 28.013L2.38762 26.8256C2.38873 26.63 2.51658 26.4343 2.77507 26.2847L2.77062 27.4721C2.51324 27.6221 2.38539 27.818 2.38428 28.013Z" fill="#E8E8E8"/>
<path d="M15.6667 21.0764C15.3865 20.9153 15.0141 20.8402 14.6494 20.8508C14.6505 20.4545 14.6527 20.0593 14.6527 19.6635C15.0174 19.6528 15.3899 19.7279 15.67 19.8891C15.6689 20.2454 15.6678 20.7208 15.6667 21.0764Z" fill="#E8E8E8"/>
<path d="M15.5958 20.4285L15.5924 21.6155L14.6157 21.0517L14.6191 19.8644L15.5958 20.4285Z" fill="#2C5871"/>
<path d="M14.6496 20.851L14.5596 20.8553C14.5618 20.4591 14.5629 20.0634 14.564 19.6676L14.653 19.6636C14.653 20.0595 14.6507 20.4547 14.6496 20.851Z" fill="#E8E8E8"/>
<path d="M14.5593 20.8554C14.2736 20.8749 13.9967 20.9484 13.7788 21.0756L13.7821 19.8878C14.0001 19.761 14.2769 19.6876 14.5637 19.6677C14.5626 20.0635 14.5615 20.4591 14.5593 20.8554Z" fill="#E8E8E8"/>
<path d="M14.6193 19.8644L14.616 21.0518L13.6865 21.5927L13.6899 20.4058L14.6193 19.8644Z" fill="#2C5871"/>
<path d="M15.5964 20.4284L15.5931 21.6153L14.6631 22.1562L14.6664 20.9689L15.5964 20.4284Z" fill="white"/>
<path d="M14.666 20.9689L14.6627 22.1562L13.6865 21.5925L13.6899 20.4056L14.666 20.9689Z" fill="white"/>
<path d="M14.6954 19.5218C14.512 19.524 14.3296 19.5442 14.1567 19.583C14.3396 19.5442 14.5003 19.5257 14.6954 19.5218Z" fill="#2C5871"/>
<path d="M13.1077 20.7431L13.1044 21.9311L12.1738 22.4709L12.1772 21.284L13.1077 20.7431Z" fill="#2C5871"/>
<path d="M14.084 21.3075L14.0806 22.4941L13.1045 21.9311L13.1078 20.7431L14.084 21.3075Z" fill="#2C5871"/>
<path d="M13.1533 21.8474L13.15 23.0348L12.1738 22.4706L12.1772 21.2837L13.1533 21.8474Z" fill="white"/>
<path d="M14.0838 21.3072L14.0805 22.4939L13.1499 23.0348L13.1532 21.8474L14.0838 21.3072Z" fill="white"/>
<path d="M17.5081 21.5325L17.5048 22.7199L16.5742 23.2608L16.5787 22.0733L17.5081 21.5325Z" fill="#2C5871"/>
<path d="M18.4821 22.0946L18.4788 23.2819L17.5049 22.72L17.5082 21.5326L18.4821 22.0946Z" fill="#2C5871"/>
<path d="M14.5515 21.5769L14.5487 22.7649L13.6182 23.3052L13.6215 22.1185L14.5515 21.5769Z" fill="#2C5871"/>
<path d="M15.5277 22.141L15.5244 23.3284L14.5488 22.7646L14.5516 21.5766L15.5277 22.141Z" fill="#2C5871"/>
<path d="M11.5955 21.6219L11.5911 22.8099L10.6616 23.3495L10.6649 22.1628L11.5955 21.6219Z" fill="#2C5871"/>
<path d="M12.5714 22.1861L12.5681 23.3735L11.5908 22.81L11.5953 21.622L12.5714 22.1861Z" fill="#2C5871"/>
<path d="M18.4818 22.0944L18.4784 23.2817L17.5479 23.8226L17.5512 22.6352L18.4818 22.0944Z" fill="white"/>
<path d="M17.5515 22.6352L17.5481 23.8226L16.5742 23.2606L16.5787 22.0731L17.5515 22.6352Z" fill="white"/>
<path d="M15.5277 22.1412L14.5972 22.6814L13.6216 22.1183L14.5516 21.5768L15.5277 22.1412Z" fill="white"/>
<path d="M15.5281 22.1411L15.5247 23.3284L14.5947 23.8687L14.5975 22.6813L15.5281 22.1411Z" fill="white"/>
<path d="M14.5971 22.6813L14.5943 23.8687L13.6182 23.3049L13.6215 22.1182L14.5971 22.6813Z" fill="white"/>
<path d="M12.5711 22.1862L12.5678 23.3736L11.6372 23.9135L11.6405 22.7261L12.5711 22.1862Z" fill="white"/>
<path d="M11.6411 22.7261L11.6378 23.9135L10.6616 23.3497L10.6649 22.163L11.6411 22.7261Z" fill="white"/>
<path d="M18.9529 22.3666L18.9501 23.554L18.0195 24.0942L18.0229 22.9073L18.9529 22.3666Z" fill="#2C5871"/>
<path d="M19.9258 22.9283L19.923 24.115L18.9502 23.5537L18.953 22.3663L19.9258 22.9283Z" fill="#2C5871"/>
<path d="M15.9969 22.4114L15.9936 23.5987L15.063 24.139L15.0663 22.9523L15.9969 22.4114Z" fill="#2C5871"/>
<path d="M16.9698 22.9732L16.9665 24.1602L15.9937 23.5986L15.997 22.4113L16.9698 22.9732Z" fill="#2C5871"/>
<path d="M13.0394 22.4557L13.036 23.6437L12.1055 24.1833L12.1088 22.9966L13.0394 22.4557Z" fill="#2C5871"/>
<path d="M14.0156 23.02L14.0123 24.207L13.0361 23.6439L13.0395 22.4559L14.0156 23.02Z" fill="#2C5871"/>
<path d="M11.062 23.063L11.0587 24.251L10.0825 23.6868L10.0859 22.4992L11.062 23.063Z" fill="#2C5871"/>
<path d="M19.9258 22.9285L18.9958 23.4688L18.0229 22.9072L18.953 22.3665L19.9258 22.9285Z" fill="white"/>
<path d="M18.9957 23.4685L18.9923 24.6565L18.0195 24.0939L18.0229 22.9069L18.9957 23.4685Z" fill="white"/>
<path d="M19.926 22.9282L19.9232 24.1149L18.9927 24.6565L18.996 23.4685L19.926 22.9282Z" fill="white"/>
<path d="M16.97 22.9735L16.9667 24.1604L16.0361 24.7013L16.0395 23.5137L16.97 22.9735Z" fill="white"/>
<path d="M16.0391 23.5137L16.0358 24.7013L15.063 24.1391L15.0663 22.9524L16.0391 23.5137Z" fill="white"/>
<path d="M16.9693 22.9733L16.0387 23.5136L15.0659 22.9523L15.9965 22.4114L16.9693 22.9733Z" fill="white"/>
<path d="M13.0861 23.5601L13.0827 24.7477L12.1055 24.1833L12.1088 22.9966L13.0861 23.5601Z" fill="white"/>
<path d="M14.0151 23.0202L13.0857 23.5604L12.1084 22.9969L13.039 22.456L14.0151 23.0202Z" fill="white"/>
<path d="M14.0153 23.0199L14.012 24.2068L13.0825 24.7477L13.0859 23.5601L14.0153 23.0199Z" fill="white"/>
<path d="M10.1318 23.6035L10.1284 24.7904L9.15283 24.2271L9.15561 23.0398L10.1318 23.6035Z" fill="white"/>
<path d="M11.0623 23.0626L11.059 24.2506L10.1284 24.7904L10.1318 23.6035L11.0623 23.0626Z" fill="white"/>
<path d="M20.3948 23.1985L20.3915 24.3859L19.4609 24.9268L19.4643 23.7399L20.3948 23.1985Z" fill="#2C5871"/>
<path d="M21.3711 23.7628L21.3678 24.9496L20.3916 24.386L20.3949 23.1986L21.3711 23.7628Z" fill="#2C5871"/>
<path d="M17.4412 23.245L17.4379 24.4323L16.5073 24.9733L16.5107 23.7859L17.4412 23.245Z" fill="#2C5871"/>
<path d="M18.4148 23.8077L18.4114 24.9944L17.4375 24.4324L17.4408 23.245L18.4148 23.8077Z" fill="#2C5871"/>
<path d="M14.4841 23.2902L14.4802 24.4777L13.5508 25.018L13.5541 23.8311L14.4841 23.2902Z" fill="#2C5871"/>
<path d="M15.4572 23.8527L15.4538 25.04L14.4805 24.4776L14.4844 23.2901L15.4572 23.8527Z" fill="#2C5871"/>
<path d="M11.5301 23.3324L11.5268 24.5204L10.5962 25.0612L10.5995 23.8738L11.5301 23.3324Z" fill="#2C5871"/>
<path d="M12.5068 23.8968L12.5035 25.0848L11.5273 24.5206L11.5307 23.3326L12.5068 23.8968Z" fill="#2C5871"/>
<path d="M21.3709 23.7625L21.3676 24.9494L20.437 25.4907L20.4404 24.3029L21.3709 23.7625Z" fill="white"/>
<path d="M20.4404 24.3029L20.4371 25.4907L19.4609 24.9266L19.4643 23.7397L20.4404 24.3029Z" fill="white"/>
<path d="M21.3706 23.7627L20.44 24.3031L19.4639 23.7398L20.3944 23.1985L21.3706 23.7627Z" fill="white"/>
<path d="M18.4153 23.8079L18.412 24.9946L17.4814 25.5355L17.4848 24.3475L18.4153 23.8079Z" fill="white"/>
<path d="M18.4152 23.8079L17.4847 24.3475L16.5107 23.7861L17.4413 23.2452L18.4152 23.8079Z" fill="white"/>
<path d="M17.4846 24.3475L17.4812 25.5355L16.5073 24.9736L16.5107 23.7862L17.4846 24.3475Z" fill="white"/>
<path d="M15.4566 23.8527L15.4533 25.0401L14.5244 25.5803L14.5272 24.3925L15.4566 23.8527Z" fill="white"/>
<path d="M14.5275 24.3925L14.5247 25.5803L13.5508 25.0179L13.5541 23.831L14.5275 24.3925Z" fill="white"/>
<path d="M15.4565 23.8528L14.5271 24.3926L13.5537 23.8311L14.4837 23.2902L15.4565 23.8528Z" fill="white"/>
<path d="M11.5757 24.4383L11.5723 25.6251L10.5962 25.0613L10.5995 23.874L11.5757 24.4383Z" fill="white"/>
<path d="M12.5063 23.8967L11.5758 24.4382L10.5996 23.8739L11.5302 23.3325L12.5063 23.8967Z" fill="white"/>
<path d="M12.5067 23.8968L12.5033 25.0848L11.5728 25.6251L11.5761 24.4383L12.5067 23.8968Z" fill="white"/>
<path d="M21.839 24.0329L21.8357 25.2209L20.9062 25.7607L20.9096 24.5737L21.839 24.0329Z" fill="#2C5871"/>
<path d="M22.8165 24.5965L22.8132 25.7839L21.8359 25.2208L21.8393 24.0328L22.8165 24.5965Z" fill="#2C5871"/>
<path d="M18.8831 24.0778L18.8803 25.2651L17.9497 25.8054L17.953 24.618L18.8831 24.0778Z" fill="#2C5871"/>
<path d="M19.8583 24.6415L19.855 25.8282L18.8794 25.2652L18.8822 24.0778L19.8583 24.6415Z" fill="#2C5871"/>
<path d="M15.9285 24.124L15.9252 25.3116L14.9946 25.8519L14.998 24.6649L15.9285 24.124Z" fill="#2C5871"/>
<path d="M16.9014 24.6861L16.8981 25.8738L15.9253 25.3114L15.9286 24.1239L16.9014 24.6861Z" fill="#2C5871"/>
<path d="M12.9753 24.1669L12.9726 25.3549L12.042 25.8958L12.0453 24.7078L12.9753 24.1669Z" fill="#2C5871"/>
<path d="M13.9482 24.7292L13.9455 25.9166L12.9727 25.3546L12.9754 24.1666L13.9482 24.7292Z" fill="#2C5871"/>
<path d="M10.9946 24.7756L10.9912 25.963L8.57031 24.5654L8.57365 23.3774L10.9946 24.7756Z" fill="#2C5871"/>
<path d="M10.0639 25.3166L10.0606 26.5033L7.63965 25.1058L7.64299 23.9184L10.0639 25.3166Z" fill="white"/>
<path d="M8.03869 24.8198L8.03537 26.0078L7.05811 25.4441L7.06144 24.2563L8.03869 24.8198Z" fill="#2C5871"/>
<path d="M21.8857 25.1373L21.8824 26.3246L20.9062 25.7605L20.9096 24.5735L21.8857 25.1373Z" fill="white"/>
<path d="M22.8162 24.5964L22.8129 25.7837L21.8823 26.3246L21.8857 25.1373L22.8162 24.5964Z" fill="white"/>
<path d="M18.9286 25.182L18.9259 26.3693L17.9497 25.8057L17.953 24.6183L18.9286 25.182Z" fill="white"/>
<path d="M19.8581 24.6417L19.8548 25.8284L18.9248 26.3693L18.9276 25.182L19.8581 24.6417Z" fill="white"/>
<path d="M19.8588 24.6414L18.9282 25.1817L17.9526 24.618L18.8826 24.0777L19.8588 24.6414Z" fill="white"/>
<path d="M15.9719 25.2264L15.9686 26.4138L14.9946 25.8518L14.998 24.6649L15.9719 25.2264Z" fill="white"/>
<path d="M16.9011 24.6862L16.8977 25.8739L15.9683 26.4138L15.9716 25.2264L16.9011 24.6862Z" fill="white"/>
<path d="M16.9009 24.6862L15.9715 25.2265L14.9976 24.6649L15.9281 24.1241L16.9009 24.6862Z" fill="white"/>
<path d="M13.0193 25.2697L13.0159 26.4573L12.042 25.8958L12.0453 24.7078L13.0193 25.2697Z" fill="white"/>
<path d="M13.9479 24.7294L13.9451 25.9168L13.0156 26.4573L13.019 25.2697L13.9479 24.7294Z" fill="white"/>
<path d="M13.9477 24.7294L13.0188 25.2697L12.0449 24.7077L12.9749 24.1668L13.9477 24.7294Z" fill="white"/>
<path d="M10.995 24.7755L10.0645 25.3165L7.64355 23.9182L8.57412 23.3773L10.995 24.7755Z" fill="white"/>
<path d="M10.9944 24.7757L10.9911 25.9631L10.0605 26.5033L10.0639 25.3166L10.9944 24.7757Z" fill="white"/>
<path d="M7.10803 25.3614L7.1047 26.5481L6.12744 25.985L6.13078 24.7977L7.10803 25.3614Z" fill="white"/>
<path d="M8.03838 24.8198L8.03506 26.0078L7.10449 26.5481L7.10782 25.3614L8.03838 24.8198Z" fill="white"/>
<path d="M8.03867 24.8197L7.10811 25.3613L6.13086 24.7976L7.06142 24.2562L8.03867 24.8197Z" fill="white"/>
<path d="M20.3276 24.9116L20.3231 26.099L19.3926 26.6393L19.3959 25.4526L20.3276 24.9116Z" fill="#2C5871"/>
<path d="M21.3038 25.476L21.3005 26.6629L20.3232 26.0992L20.3277 24.9118L21.3038 25.476Z" fill="#2C5871"/>
<path d="M17.3704 24.9562L17.3671 26.1439L16.4365 26.6849L16.4399 25.4971L17.3704 24.9562Z" fill="#2C5871"/>
<path d="M18.3467 25.5204L18.3433 26.7077L17.3672 26.144L17.3705 24.9562L18.3467 25.5204Z" fill="#2C5871"/>
<path d="M14.4193 25.0007L14.4159 26.1883L13.4854 26.7297L13.4887 25.5423L14.4193 25.0007Z" fill="#2C5871"/>
<path d="M15.3928 25.563L15.3895 26.7504L14.4155 26.188L14.4189 25.0004L15.3928 25.563Z" fill="#2C5871"/>
<path d="M11.4627 25.0458L11.4594 26.2332L10.5288 26.774L10.5321 25.5867L11.4627 25.0458Z" fill="#2C5871"/>
<path d="M12.4367 25.6079L12.4334 26.7952L11.4595 26.2333L11.4628 25.0459L12.4367 25.6079Z" fill="#2C5871"/>
<path d="M8.50575 25.0901L8.50296 26.2775L7.57129 26.8188L7.57463 25.6309L8.50575 25.0901Z" fill="#2C5871"/>
<path d="M9.48282 25.6543L9.4795 26.8416L8.50391 26.2775L8.50669 25.0901L9.48282 25.6543Z" fill="#2C5871"/>
<path d="M21.3045 25.476L21.3012 26.6629L20.3706 27.2032L20.3739 26.0159L21.3045 25.476Z" fill="white"/>
<path d="M20.3732 26.0159L20.3698 27.2032L19.3926 26.6395L19.3959 25.4528L20.3732 26.0159Z" fill="white"/>
<path d="M17.4171 26.0602L17.4138 27.248L16.4365 26.6845L16.4399 25.4971L17.4171 26.0602Z" fill="white"/>
<path d="M18.3464 25.5204L18.343 26.7077L17.4136 27.248L17.4169 26.0602L18.3464 25.5204Z" fill="white"/>
<path d="M18.3467 25.5205L17.4172 26.0603L16.4399 25.4972L17.3705 24.9563L18.3467 25.5205Z" fill="white"/>
<path d="M14.4626 26.1043L14.4593 27.2911L13.4854 26.7296L13.4887 25.5422L14.4626 26.1043Z" fill="white"/>
<path d="M15.3933 25.5634L14.4627 26.1043L13.4888 25.5423L14.4193 25.0008L15.3933 25.5634Z" fill="white"/>
<path d="M15.3934 25.5633L15.39 26.7507L14.4595 27.2911L14.4628 26.1043L15.3934 25.5633Z" fill="white"/>
<path d="M11.5061 26.149L11.5016 27.3359L10.5288 26.7739L10.5321 25.5866L11.5061 26.149Z" fill="white"/>
<path d="M12.437 25.6077L12.4336 26.795L11.502 27.3359L11.5064 26.149L12.437 25.6077Z" fill="white"/>
<path d="M12.4367 25.6078L11.5062 26.1491L10.5322 25.5867L11.4628 25.0458L12.4367 25.6078Z" fill="white"/>
<path d="M9.48245 25.6542L8.55189 26.1951L7.5752 25.6307L8.50631 25.09L9.48245 25.6542Z" fill="white"/>
<path d="M8.55132 26.1954L8.54855 27.3828L7.57129 26.819L7.57463 25.631L8.55132 26.1954Z" fill="white"/>
<path d="M9.48265 25.6545L9.47932 26.8418L8.54932 27.3828L8.55209 26.1954L9.48265 25.6545Z" fill="white"/>
<path d="M24.7259 25.6993L24.7214 26.8869L23.792 27.4271L23.7953 26.2402L24.7259 25.6993Z" fill="#2C5871"/>
<path d="M25.7018 26.263L25.6985 27.4503L24.7212 26.8869L24.7256 25.6993L25.7018 26.263Z" fill="#2C5871"/>
<path d="M21.7718 25.7455L21.7685 26.9335L20.8379 27.4731L20.8412 26.2864L21.7718 25.7455Z" fill="#2C5871"/>
<path d="M22.7458 26.3075L22.7425 27.4955L21.7686 26.9336L21.7719 25.7455L22.7458 26.3075Z" fill="#2C5871"/>
<path d="M18.8152 25.7905L18.8118 26.9785L17.8818 27.5187L17.8852 26.331L18.8152 25.7905Z" fill="#2C5871"/>
<path d="M19.7915 26.3548L19.7882 27.5415L18.812 26.9784L18.8154 25.7904L19.7915 26.3548Z" fill="#2C5871"/>
<path d="M15.8616 25.8332L15.8583 27.0206L14.9277 27.5615L14.9311 26.3741L15.8616 25.8332Z" fill="#2C5871"/>
<path d="M16.8369 26.3978L16.8336 27.5851L15.8574 27.0207L15.8607 25.8334L16.8369 26.3978Z" fill="#2C5871"/>
<path d="M12.907 25.88L12.9042 27.0676L11.9736 27.6083L11.9781 26.4205L12.907 25.88Z" fill="#2C5871"/>
<path d="M13.881 26.4421L13.8782 27.6295L12.9043 27.0675L12.9071 25.8799L13.881 26.4421Z" fill="#2C5871"/>
<path d="M9.9505 25.9244L9.94716 27.1118L9.0166 27.6526L9.01994 26.4653L9.9505 25.9244Z" fill="#2C5871"/>
<path d="M10.9245 26.4873L10.9212 27.6747L9.94727 27.1121L9.9506 25.9247L10.9245 26.4873Z" fill="#2C5871"/>
<path d="M24.7715 26.8037L24.7681 27.991L23.792 27.4273L23.7953 26.2404L24.7715 26.8037Z" fill="white"/>
<path d="M25.7024 26.2632L25.6991 27.4505L24.7686 27.991L24.7719 26.8037L25.7024 26.2632Z" fill="white"/>
<path d="M22.7454 26.3074L22.7421 27.4954L21.8115 28.035L21.8149 26.8476L22.7454 26.3074Z" fill="white"/>
<path d="M22.7458 26.3074L21.8152 26.8477L20.8413 26.2864L21.7719 25.7454L22.7458 26.3074Z" fill="white"/>
<path d="M21.8152 26.8476L21.8118 28.035L20.8379 27.473L20.8412 26.2863L21.8152 26.8476Z" fill="white"/>
<path d="M19.7914 26.355L18.8608 26.8946L17.8853 26.3311L18.8153 25.7906L19.7914 26.355Z" fill="white"/>
<path d="M18.8608 26.8946L18.858 28.0826L17.8818 27.5189L17.8852 26.3311L18.8608 26.8946Z" fill="white"/>
<path d="M19.7917 26.355L19.7884 27.5417L18.8584 28.0826L18.8612 26.8946L19.7917 26.355Z" fill="white"/>
<path d="M16.8379 26.3978L15.9084 26.9381L14.9312 26.3744L15.8617 25.8335L16.8379 26.3978Z" fill="white"/>
<path d="M16.8376 26.3978L16.8342 27.5852L15.9048 28.125L15.9081 26.9381L16.8376 26.3978Z" fill="white"/>
<path d="M15.9083 26.9381L15.905 28.125L14.9277 27.5617L14.9311 26.3744L15.9083 26.9381Z" fill="white"/>
<path d="M13.8806 26.4421L13.8778 27.6295L12.9473 28.1697L12.9506 26.9824L13.8806 26.4421Z" fill="white"/>
<path d="M12.9509 26.9824L12.9476 28.1697L11.9736 27.6082L11.9781 26.4204L12.9509 26.9824Z" fill="white"/>
<path d="M10.9246 26.4869L10.9213 27.6743L9.99072 28.2145L9.99406 27.0272L10.9246 26.4869Z" fill="white"/>
<path d="M9.99386 27.0272L9.99053 28.2145L9.0166 27.6526L9.01994 26.4653L9.99386 27.0272Z" fill="white"/>
<path d="M26.1707 26.5328L26.1674 27.7208L25.2368 28.261L25.2402 27.0741L26.1707 26.5328Z" fill="#2C5871"/>
<path d="M27.146 27.0968L27.1427 28.2842L26.1665 27.7207L26.1698 26.5327L27.146 27.0968Z" fill="#2C5871"/>
<path d="M23.2131 26.5779L23.2103 27.7659L22.2798 28.3062L22.2831 27.1188L23.2131 26.5779Z" fill="#2C5871"/>
<path d="M24.1894 27.142L24.186 28.3293L23.2104 27.7656L23.2132 26.5776L24.1894 27.142Z" fill="#2C5871"/>
<path d="M20.2596 26.6243L20.2562 27.8116L19.3257 28.3525L19.329 27.1652L20.2596 26.6243Z" fill="#2C5871"/>
<path d="M21.2325 27.1872L21.2292 28.3746L20.2563 27.8119L20.2597 26.6246L21.2325 27.1872Z" fill="#2C5871"/>
<path d="M17.306 26.6671L17.3015 27.8551L16.3721 28.3953L16.3754 27.208L17.306 26.6671Z" fill="#2C5871"/>
<path d="M18.2823 27.2316L18.2795 28.4189L17.3022 27.8553L17.3067 26.6673L18.2823 27.2316Z" fill="#2C5871"/>
<path d="M14.3489 26.7122L14.3455 27.8996L13.4155 28.4405L13.4183 27.2525L14.3489 26.7122Z" fill="#2C5871"/>
<path d="M15.3258 27.276L15.3225 28.4633L14.3452 27.8996L14.3485 26.7123L15.3258 27.276Z" fill="#2C5871"/>
<path d="M11.3955 26.7582L11.3921 27.9456L10.4604 28.4865L10.4649 27.2992L11.3955 26.7582Z" fill="#2C5871"/>
<path d="M12.3682 27.3205L12.3649 28.5085L11.3921 27.9459L11.3954 26.7585L12.3682 27.3205Z" fill="#2C5871"/>
<path d="M2.14161 28.0151L2.14493 26.8277C2.14493 27.0629 2.29892 27.2985 2.61078 27.478L2.60744 28.6656C2.29614 28.486 2.1405 28.2502 2.14161 28.0151Z" fill="#E8E8E8"/>
<path d="M27.1464 27.0971L26.217 27.638L25.2397 27.0743L26.1703 26.5329L27.1464 27.0971Z" fill="white"/>
<path d="M27.1463 27.097L27.143 28.2843L26.2124 28.8253L26.2168 27.6379L27.1463 27.097Z" fill="white"/>
<path d="M26.2174 27.6379L26.213 28.8253L25.2368 28.2611L25.2402 27.0742L26.2174 27.6379Z" fill="white"/>
<path d="M24.1894 27.1422L23.2599 27.6824L22.2832 27.1187L23.2132 26.5778L24.1894 27.1422Z" fill="white"/>
<path d="M24.1897 27.142L24.1864 28.3294L23.2563 28.8696L23.2602 27.6822L24.1897 27.142Z" fill="white"/>
<path d="M23.2598 27.6822L23.2559 28.8696L22.2798 28.3059L22.2831 27.1186L23.2598 27.6822Z" fill="white"/>
<path d="M21.2326 27.1868L21.2293 28.3742L20.2998 28.9144L20.3031 27.7271L21.2326 27.1868Z" fill="white"/>
<path d="M20.3029 27.7271L20.2996 28.9144L19.3257 28.3525L19.329 27.1651L20.3029 27.7271Z" fill="white"/>
<path d="M21.2325 27.1869L20.303 27.7272L19.3291 27.1652L20.2597 26.6243L21.2325 27.1869Z" fill="white"/>
<path d="M18.282 27.2316L18.2792 28.419L17.3486 28.9592L17.352 27.7725L18.282 27.2316Z" fill="white"/>
<path d="M18.2826 27.2315L17.3526 27.7724L16.3765 27.2081L17.307 26.6672L18.2826 27.2315Z" fill="white"/>
<path d="M17.3515 27.7725L17.3482 28.9592L16.3721 28.3955L16.3754 27.2082L17.3515 27.7725Z" fill="white"/>
<path d="M15.326 27.2761L15.3227 28.4635L14.3921 29.0044L14.3954 27.8168L15.326 27.2761Z" fill="white"/>
<path d="M14.3956 27.8168L14.3922 29.0044L13.4155 28.44L13.4183 27.2527L14.3956 27.8168Z" fill="white"/>
<path d="M15.3258 27.2761L14.3952 27.8168L13.418 27.2527L14.3485 26.7124L15.3258 27.2761Z" fill="white"/>
<path d="M12.8357 27.5906L12.8329 28.7786L11.9023 29.3195L11.9057 28.1321L12.8357 27.5906Z" fill="#2C5871"/>
<path d="M15.7938 27.5461L15.7904 28.7334L14.8599 29.2748L14.8632 28.0874L15.7938 27.5461Z" fill="#2C5871"/>
<path d="M16.7705 28.1098L16.7672 29.2975L15.791 28.7334L15.7943 27.546L16.7705 28.1098Z" fill="#2C5871"/>
<path d="M16.7703 28.11L16.767 29.2978L15.8364 29.8383L15.8409 28.6506L16.7703 28.11Z" fill="white"/>
<path d="M15.8405 28.6506L15.836 29.8383L14.8599 29.275L14.8632 28.0872L15.8405 28.6506Z" fill="white"/>
<path d="M17.238 28.3799L17.2353 29.5677L16.3047 30.1082L16.308 28.9208L17.238 28.3799Z" fill="#2C5871"/>
<path d="M18.7498 27.5011L18.7465 28.6891L17.8159 29.23L17.8193 28.0427L18.7498 27.5011Z" fill="#2C5871"/>
<path d="M19.7238 28.0638L19.7205 29.2512L18.7466 28.6892L18.7499 27.5012L19.7238 28.0638Z" fill="#2C5871"/>
<path d="M18.7932 28.6045L18.7887 29.7914L17.8159 29.2299L17.8193 28.0426L18.7932 28.6045Z" fill="white"/>
<path d="M18.2111 28.9421L18.2083 30.1302L17.2344 29.568L17.2371 28.3802L18.2111 28.9421Z" fill="#2C5871"/>
<path d="M18.2117 28.9418L18.2089 30.1298L17.2783 30.67L17.2816 29.4832L18.2117 28.9418Z" fill="white"/>
<path d="M17.2819 29.4832L17.2786 30.67L16.3047 30.1081L16.308 28.9208L17.2819 29.4832Z" fill="white"/>
<path d="M18.6794 29.2119L18.6761 30.3999L17.7461 30.9408L17.7489 29.7532L18.6794 29.2119Z" fill="#2C5871"/>
<path d="M19.7241 28.0636L19.7207 29.2509L18.7891 29.7914L18.7935 28.6045L19.7241 28.0636Z" fill="white"/>
<path d="M20.1922 28.3339L20.1889 29.5213L19.2583 30.0622L19.2616 28.8749L20.1922 28.3339Z" fill="#2C5871"/>
<path d="M21.7015 27.457L21.697 28.6443L20.7676 29.1852L20.7709 27.9979L21.7015 27.457Z" fill="#2C5871"/>
<path d="M22.6774 28.021L22.674 29.2084L21.6968 28.6446L21.7012 27.4573L22.6774 28.021Z" fill="#2C5871"/>
<path d="M21.7471 28.561L21.7437 29.7483L20.7676 29.1852L20.7709 27.9979L21.7471 28.561Z" fill="white"/>
<path d="M21.1696 28.8976L21.1651 30.085L20.189 29.5212L20.1923 28.3339L21.1696 28.8976Z" fill="#2C5871"/>
<path d="M20.2389 29.4383L20.2345 30.6252L19.2583 30.062L19.2616 28.8746L20.2389 29.4383Z" fill="white"/>
<path d="M19.6553 29.7764L19.6519 30.964L18.6758 30.4003L18.6791 29.2123L19.6553 29.7764Z" fill="#2C5871"/>
<path d="M18.725 30.3174L18.7217 31.5047L17.7461 30.9412L17.7489 29.7536L18.725 30.3174Z" fill="white"/>
<path d="M18.1445 30.6553L18.1412 31.8427L12.8335 28.7785L12.8363 27.5905L18.1445 30.6553Z" fill="#2C5871"/>
<path d="M17.2133 31.1962L17.2106 32.3829L11.9023 29.3195L11.9057 28.1321L17.2133 31.1962Z" fill="white"/>
<path d="M11.906 28.1318L12.3674 27.8639L12.3685 27.3202L11.4379 27.8617L11.4346 29.0484L11.9049 28.7755L11.906 28.1318Z" fill="white"/>
<path d="M11.4377 27.8617L11.4344 29.0484L10.4604 28.4864L10.4649 27.2991L11.4377 27.8617Z" fill="white"/>
<path d="M27.6155 27.3669L27.6116 28.555L26.6821 29.0952L26.6855 27.9079L27.6155 27.3669Z" fill="#2C5871"/>
<path d="M28.588 27.9299L28.5853 29.1172L27.6113 28.5552L27.6152 27.3672L28.588 27.9299Z" fill="#2C5871"/>
<path d="M24.6575 27.4124L24.6542 28.5997L23.7236 29.14L23.727 27.9527L24.6575 27.4124Z" fill="#2C5871"/>
<path d="M25.6349 27.9759L25.6315 29.1632L24.6543 28.5995L24.6576 27.4121L25.6349 27.9759Z" fill="#2C5871"/>
<path d="M27.6583 28.4694L27.6549 29.6575L26.6821 29.0952L26.6855 27.9079L27.6583 28.4694Z" fill="white"/>
<path d="M28.5876 27.9296L28.5849 29.117L27.6543 29.6575L27.6576 28.4694L28.5876 27.9296Z" fill="white"/>
<path d="M28.5879 27.9297L27.6579 28.4694L26.6851 27.9079L27.6151 27.367L28.5879 27.9297Z" fill="white"/>
<path d="M24.7042 28.5161L24.7009 29.7035L23.7236 29.1398L23.727 27.9524L24.7042 28.5161Z" fill="white"/>
<path d="M25.6346 27.9759L25.6312 29.1632L24.7007 29.7035L24.704 28.5161L25.6346 27.9759Z" fill="white"/>
<path d="M25.6349 27.976L24.7043 28.5162L23.7271 27.9526L24.6576 27.4123L25.6349 27.976Z" fill="white"/>
<path d="M22.6777 28.0208L21.7471 28.561L20.771 27.998L21.7016 27.4571L22.6777 28.0208Z" fill="white"/>
<path d="M22.6771 28.0207L22.6737 29.2081L21.7432 29.7483L21.7465 28.561L22.6771 28.0207Z" fill="white"/>
<path d="M19.7238 28.0637L18.7932 28.6046L17.8193 28.0427L18.7499 27.5011L19.7238 28.0637Z" fill="white"/>
<path d="M29.0559 28.1992L29.0526 29.3869L28.1226 29.9274L28.1253 28.7401L29.0559 28.1992Z" fill="#2C5871"/>
<path d="M30.0328 28.7633L30.0295 29.951L29.0522 29.3873L29.0556 28.1995L30.0328 28.7633Z" fill="#2C5871"/>
<path d="M26.1028 28.2462L26.0995 29.4335L25.1689 29.9738L25.1723 28.7871L26.1028 28.2462Z" fill="#2C5871"/>
<path d="M27.0758 28.808L27.0724 29.9954L26.0996 29.4334L26.1029 28.2461L27.0758 28.808Z" fill="#2C5871"/>
<path d="M23.1448 28.2902L23.142 29.4782L22.2114 30.019L22.2148 28.831L23.1448 28.2902Z" fill="#2C5871"/>
<path d="M24.121 28.8547L24.1177 30.0427L23.1421 29.4783L23.1449 28.2903L24.121 28.8547Z" fill="#2C5871"/>
<path d="M30.0328 28.763L29.1023 29.3036L28.125 28.7402L29.0556 28.1993L30.0328 28.763Z" fill="white"/>
<path d="M29.1026 29.3037L29.0982 30.4913L28.1226 29.9276L28.1253 28.7403L29.1026 29.3037Z" fill="white"/>
<path d="M30.0332 28.7631L30.0298 29.9508L29.0981 30.4913L29.1026 29.3037L30.0332 28.7631Z" fill="white"/>
<path d="M27.076 28.8078L27.0727 29.9952L26.1421 30.5361L26.1454 29.3481L27.076 28.8078Z" fill="white"/>
<path d="M27.0758 28.8082L26.1452 29.3484L25.1724 28.7871L26.1029 28.2462L27.0758 28.8082Z" fill="white"/>
<path d="M26.1451 29.3481L26.1418 30.5361L25.1689 29.9735L25.1723 28.7867L26.1451 29.3481Z" fill="white"/>
<path d="M24.1207 28.8545L24.1174 30.0425L23.1885 30.5821L23.1913 29.3948L24.1207 28.8545Z" fill="white"/>
<path d="M23.1915 29.3948L23.1887 30.5821L22.2114 30.019L22.2148 28.831L23.1915 29.3948Z" fill="white"/>
<path d="M24.121 28.8546L23.1916 29.3948L22.2148 28.8311L23.1449 28.2902L24.121 28.8546Z" fill="white"/>
<path d="M21.1694 28.8974L21.1649 30.0847L20.2344 30.6252L20.2388 29.4383L21.1694 28.8974Z" fill="white"/>
<path d="M18.212 28.9418L17.282 29.4832L16.3081 28.9208L17.2381 28.3799L18.212 28.9418Z" fill="white"/>
<path d="M30.5008 29.0334L30.4975 30.2207L29.5669 30.7612L29.5702 29.5743L30.5008 29.0334Z" fill="#2C5871"/>
<path d="M31.477 29.5981L31.4737 30.7849L30.4976 30.2211L30.5009 29.0338L31.477 29.5981Z" fill="#2C5871"/>
<path d="M27.5433 29.0782L27.5399 30.2655L26.6094 30.8065L26.6127 29.6191L27.5433 29.0782Z" fill="#2C5871"/>
<path d="M28.5201 29.6421L28.5167 30.8297L27.54 30.2653L27.5434 29.078L28.5201 29.6421Z" fill="#2C5871"/>
<path d="M24.5901 29.1252L24.5857 30.3126L23.6562 30.8528L23.6596 29.6648L24.5901 29.1252Z" fill="#2C5871"/>
<path d="M25.5632 29.6875L25.5599 30.8748L24.5859 30.3129L24.5904 29.1255L25.5632 29.6875Z" fill="#2C5871"/>
<path d="M21.6365 29.1677L21.6332 30.3551L20.7026 30.896L20.706 29.7087L21.6365 29.1677Z" fill="#2C5871"/>
<path d="M22.6133 29.7319L22.6106 30.9193L21.6333 30.3549L21.6366 29.1675L22.6133 29.7319Z" fill="#2C5871"/>
<path d="M31.4774 29.5979L31.474 30.7846L30.5435 31.3251L30.5468 30.1375L31.4774 29.5979Z" fill="white"/>
<path d="M30.5464 30.1375L30.543 31.3251L29.5669 30.7614L29.5702 29.5745L30.5464 30.1375Z" fill="white"/>
<path d="M27.59 30.1819L27.5866 31.3699L26.6094 30.8063L26.6127 29.6189L27.59 30.1819Z" fill="white"/>
<path d="M28.521 29.6425L27.591 30.1823L26.6138 29.6192L27.5443 29.0784L28.521 29.6425Z" fill="white"/>
<path d="M28.5207 29.6421L28.5174 30.8297L27.5874 31.3699L27.5907 30.1819L28.5207 29.6421Z" fill="white"/>
<path d="M25.5635 29.6873L24.6341 30.2275L23.6602 29.6649L24.5907 29.1253L25.5635 29.6873Z" fill="white"/>
<path d="M25.5627 29.6876L25.5593 30.8749L24.6299 31.4147L24.6332 30.2278L25.5627 29.6876Z" fill="white"/>
<path d="M24.6335 30.2278L24.6302 31.4147L23.6562 30.8532L23.6596 29.6652L24.6335 30.2278Z" fill="white"/>
<path d="M22.6133 29.732L21.6833 30.2723L20.7061 29.7086L21.6366 29.1677L22.6133 29.732Z" fill="white"/>
<path d="M21.6832 30.2721L21.6799 31.4595L20.7026 30.8958L20.706 29.7085L21.6832 30.2721Z" fill="white"/>
<path d="M22.613 29.7319L22.6103 30.9193L21.6797 31.4595L21.683 30.2721L22.613 29.7319Z" fill="white"/>
<path d="M19.6557 29.7761L18.7252 30.3171L17.749 29.7533L18.6796 29.212L19.6557 29.7761Z" fill="white"/>
<path d="M19.6556 29.7764L19.6522 30.964L18.7217 31.5047L18.725 30.3174L19.6556 29.7764Z" fill="white"/>
<path d="M31.9456 29.8673L31.9417 31.0553L31.0122 31.5951L31.0155 30.4082L31.9456 29.8673Z" fill="#2C5871"/>
<path d="M32.9224 30.432L32.9191 31.6187L31.9424 31.0557L31.9463 29.8677L32.9224 30.432Z" fill="#2C5871"/>
<path d="M28.9886 29.9126L28.9853 31.1L28.0547 31.6403L28.058 30.4529L28.9886 29.9126Z" fill="#2C5871"/>
<path d="M29.9655 30.476L29.961 31.6635L28.9849 31.0998L28.9882 29.9125L29.9655 30.476Z" fill="#2C5871"/>
<path d="M26.0309 29.9575L26.0276 31.1448L25.0981 31.6851L25.1015 30.4973L26.0309 29.9575Z" fill="#2C5871"/>
<path d="M27.0089 30.5213L27.0056 31.7087L26.0283 31.1449L26.0317 29.9576L27.0089 30.5213Z" fill="#2C5871"/>
<path d="M23.0809 30.0023L23.0775 31.1896L22.147 31.7299L22.1503 30.5425L23.0809 30.0023Z" fill="#2C5871"/>
<path d="M24.0543 30.564L24.0509 31.7514L23.0781 31.1894L23.0815 30.0021L24.0543 30.564Z" fill="#2C5871"/>
<path d="M20.1234 30.0464L20.12 31.2338L19.1895 31.7747L19.1939 30.5867L20.1234 30.0464Z" fill="#2C5871"/>
<path d="M21.1012 30.6102L21.0979 31.7979L20.1206 31.2341L20.1239 30.0468L21.1012 30.6102Z" fill="#2C5871"/>
<path d="M18.1443 30.6553L18.1409 31.8427L17.2109 32.3829L17.2137 31.1962L18.1443 30.6553Z" fill="white"/>
<path d="M18.6121 30.9248L18.6088 32.1128L17.6782 32.6537L17.6815 31.4664L18.6121 30.9248Z" fill="#2C5871"/>
<path d="M20.17 31.1512L20.1667 32.3386L19.1895 31.7751L19.1939 30.5871L20.17 31.1512Z" fill="white"/>
<path d="M19.5884 31.4893L19.585 32.6773L18.6089 32.113L18.6122 30.9249L19.5884 31.4893Z" fill="#2C5871"/>
<path d="M18.6577 32.0302L18.6544 33.2176L17.6782 32.6539L17.6815 31.4665L18.6577 32.0302Z" fill="white"/>
<path d="M18.6124 32.599L18.609 33.7864L12.3652 30.182L12.3686 28.9946L18.6124 32.599Z" fill="#2C5871"/>
<path d="M18.6128 32.5994L18.6095 33.7867L15.7422 35.4532L15.7455 34.2652L18.6128 32.5994Z" fill="white"/>
<path d="M15.7452 34.2652L15.7418 35.4532L9.49805 31.8485L9.50083 30.6608L15.7452 34.2652Z" fill="white"/>
<path d="M10.0108 31.5499L12.3656 30.1819L12.3689 28.9945L9.50104 30.6604L9.50049 31.2555L10.0108 31.5499Z" fill="#2C5871"/>
<path d="M34.8496 32.0662C34.8507 31.6699 34.8529 31.2746 34.8541 30.8788C34.8529 31.2746 34.8518 31.6699 34.8507 32.0662H34.8496Z" fill="#2C5871"/>
<path d="M31.9911 30.9721L31.9884 32.1594L31.0122 31.5953L31.0155 30.4084L31.9911 30.9721Z" fill="white"/>
<path d="M32.9221 30.4318L32.9188 31.6185L31.9888 32.1594L31.9916 30.9721L32.9221 30.4318Z" fill="white"/>
<path d="M32.9218 30.4319L31.9912 30.9722L31.0156 30.4084L31.9456 29.8676L32.9218 30.4319Z" fill="white"/>
<path d="M29.0342 31.0165L29.0308 32.2038L28.0547 31.6401L28.058 30.4527L29.0342 31.0165Z" fill="white"/>
<path d="M29.9653 30.476L29.9608 31.6635L29.0303 32.2038L29.0336 31.0165L29.9653 30.476Z" fill="white"/>
<path d="M27.0086 30.5214L27.0053 31.7087L26.0747 32.249L26.078 31.0616L27.0086 30.5214Z" fill="white"/>
<path d="M26.0776 31.0616L26.0743 32.249L25.0981 31.6852L25.1015 30.4975L26.0776 31.0616Z" fill="white"/>
<path d="M24.0539 30.5641L24.0505 31.7515L23.1211 32.2917L23.1244 31.1044L24.0539 30.5641Z" fill="white"/>
<path d="M23.1242 31.1044L23.1209 32.2917L22.147 31.7298L22.1503 30.5425L23.1242 31.1044Z" fill="white"/>
<path d="M24.0538 30.5642L23.1243 31.1045L22.1504 30.5425L23.081 30.0023L24.0538 30.5642Z" fill="white"/>
<path d="M21.1009 30.6103L21.0976 31.7979L20.167 32.3386L20.1703 31.1512L21.1009 30.6103Z" fill="white"/>
<path d="M21.101 30.6099L20.1705 31.1509L19.1943 30.5867L20.1238 30.0465L21.101 30.6099Z" fill="white"/>
<path d="M34.71 32.3935C34.7111 32.1957 34.58 31.9959 34.3159 31.8443L34.3192 30.6568C34.5833 30.8086 34.7145 31.0081 34.7134 31.2062C34.7123 31.5625 34.7111 32.0372 34.71 32.3935Z" fill="#E8E8E8"/>
<path d="M33.39 30.7015L33.3866 31.8895L32.4561 32.4297L32.4594 31.243L33.39 30.7015Z" fill="#2C5871"/>
<path d="M34.3629 31.264L34.3595 32.4513L33.3867 31.8893L33.3901 30.7013L34.3629 31.264Z" fill="#2C5871"/>
<path d="M34.7101 32.3935L34.7012 32.4819C34.7023 32.086 34.7034 31.6902 34.7045 31.2945L34.7134 31.2062C34.7123 31.5625 34.7112 32.0372 34.7101 32.3935Z" fill="#2C5871"/>
<path d="M30.4344 30.7466L30.4311 31.934L29.5005 32.4753L29.5038 31.2876L30.4344 30.7466Z" fill="#2C5871"/>
<path d="M31.4097 31.3102L31.4063 32.4982L30.4302 31.934L30.4335 30.7467L31.4097 31.3102Z" fill="#2C5871"/>
<path d="M27.4763 30.7914L27.4735 31.9788L26.543 32.5197L26.5463 31.3323L27.4763 30.7914Z" fill="#2C5871"/>
<path d="M28.4537 31.3553L28.4492 32.5433L27.4736 31.9789L27.4764 30.7916L28.4537 31.3553Z" fill="#2C5871"/>
<path d="M24.5233 30.8343L24.5188 32.0216L23.5894 32.5621L23.5927 31.3745L24.5233 30.8343Z" fill="#2C5871"/>
<path d="M25.4991 31.3979L25.4958 32.5853L24.5186 32.0215L24.523 30.8342L25.4991 31.3979Z" fill="#2C5871"/>
<path d="M34.3631 31.264L34.3598 32.4513L33.4292 32.9916L33.4337 31.8042L34.3631 31.264Z" fill="white"/>
<path d="M33.4333 31.8042L33.4289 32.9916L32.4561 32.4296L32.4594 31.2429L33.4333 31.8042Z" fill="white"/>
<path d="M34.3628 31.2641L33.4334 31.8044L32.4595 31.243L33.39 30.7015L34.3628 31.2641Z" fill="white"/>
<path d="M34.9564 31.2072L34.9536 32.3946C34.9536 32.6275 34.8002 32.8592 34.4961 33.036L34.4994 31.8493C34.8035 31.6719 34.9564 31.4395 34.9564 31.2072Z" fill="#E8E8E8"/>
<path d="M31.4095 31.3098L31.4061 32.4978L30.4756 33.038L30.4789 31.8502L31.4095 31.3098Z" fill="white"/>
<path d="M30.48 31.8502L30.4766 33.038L29.5005 32.475L29.5038 31.2872L30.48 31.8502Z" fill="white"/>
<path d="M31.4101 31.3098L30.4796 31.8503L29.5034 31.2873L30.434 30.7463L31.4101 31.3098Z" fill="white"/>
<path d="M28.4534 31.3552L28.4489 32.5432L27.52 33.0828L27.5228 31.8961L28.4534 31.3552Z" fill="white"/>
<path d="M27.523 31.8961L27.5202 33.0828L26.543 32.5198L26.5463 31.3324L27.523 31.8961Z" fill="white"/>
<path d="M25.4993 31.3979L25.496 32.5853L24.5654 33.1255L24.5688 31.9389L25.4993 31.3979Z" fill="white"/>
<path d="M24.5688 31.9389L24.5655 33.1255L23.5894 32.5621L23.5927 31.3745L24.5688 31.9389Z" fill="white"/>
<path d="M19.5887 31.4893L19.5854 32.6773L18.6548 33.2176L18.6581 32.0302L19.5887 31.4893Z" fill="white"/>
<path d="M31.8772 31.5801L31.8744 32.7675L30.9438 33.3083L30.9472 32.121L31.8772 31.5801Z" fill="#2C5871"/>
<path d="M32.8517 32.1422L32.8484 33.33L31.875 32.7676L31.8778 31.5802L32.8517 32.1422Z" fill="#2C5871"/>
<path d="M28.9212 31.6253L28.9179 32.8126L27.9873 33.3536L27.9906 32.1662L28.9212 31.6253Z" fill="#2C5871"/>
<path d="M29.8974 32.1896L29.8941 33.3772L28.918 32.8128L28.9213 31.6255L29.8974 32.1896Z" fill="#2C5871"/>
<path d="M25.9671 31.6681L25.9638 32.8554L25.0332 33.3963L25.0365 32.209L25.9671 31.6681Z" fill="#2C5871"/>
<path d="M26.9428 32.2315L26.94 33.4195L25.9639 32.8552L25.9672 31.6678L26.9428 32.2315Z" fill="#2C5871"/>
<path d="M23.0105 31.7126L23.0072 32.9L22.0771 33.4415L22.0799 32.2535L23.0105 31.7126Z" fill="#2C5871"/>
<path d="M23.9868 32.2765L23.9835 33.4639L23.0073 32.8997L23.0107 31.7124L23.9868 32.2765Z" fill="#2C5871"/>
<path d="M20.0569 31.7597L20.0536 32.9472L19.123 33.4875L19.1275 32.3002L20.0569 31.7597Z" fill="#2C5871"/>
<path d="M21.03 32.3217L21.0267 33.5091L20.0527 32.9471L20.0561 31.7595L21.03 32.3217Z" fill="#2C5871"/>
<path d="M31.9211 32.6832L31.9178 33.8706L30.9438 33.3086L30.9472 32.1213L31.9211 32.6832Z" fill="white"/>
<path d="M32.8512 32.1421L31.9212 32.683L30.9473 32.121L31.8773 31.5801L32.8512 32.1421Z" fill="white"/>
<path d="M32.8513 32.1423L32.848 33.3301L31.918 33.8706L31.9213 32.6832L32.8513 32.1423Z" fill="white"/>
<path d="M28.9668 32.7302L28.9635 33.9171L27.9873 33.3534L27.9906 32.166L28.9668 32.7302Z" fill="white"/>
<path d="M29.8978 32.1892L29.8944 33.3768L28.9639 33.9171L28.9672 32.7302L29.8978 32.1892Z" fill="white"/>
<path d="M29.8974 32.1893L28.9669 32.7302L27.9907 32.1661L28.9213 31.6252L29.8974 32.1893Z" fill="white"/>
<path d="M26.9435 32.2318L26.9407 33.4198L26.0112 33.9594L26.0146 32.7727L26.9435 32.2318Z" fill="white"/>
<path d="M26.0138 32.7727L26.0105 33.9594L25.0332 33.3963L25.0365 32.209L26.0138 32.7727Z" fill="white"/>
<path d="M23.0561 32.8176L23.0527 34.0046L22.0771 33.4415L22.0799 32.2535L23.0561 32.8176Z" fill="white"/>
<path d="M23.9866 32.2768L23.9833 33.4641L23.0527 34.0046L23.0561 32.8176L23.9866 32.2768Z" fill="white"/>
<path d="M21.0306 32.3218L21.0272 33.5092L20.0967 34.0494L20.1 32.862L21.0306 32.3218Z" fill="white"/>
<path d="M21.0303 32.3219L20.0998 32.8621L19.127 32.3002L20.0564 31.7597L21.0303 32.3219Z" fill="white"/>
<path d="M20.1003 32.862L20.097 34.0494L19.123 33.4874L19.1275 32.3001L20.1003 32.862Z" fill="white"/>
<path d="M30.366 32.4597L30.3627 33.6473L29.4321 34.1882L29.4355 33.0002L30.366 32.4597Z" fill="#2C5871"/>
<path d="M31.338 33.0217L31.3346 34.209L30.3618 33.647L30.3652 32.4595L31.338 33.0217Z" fill="#2C5871"/>
<path d="M27.4119 32.5021L27.4085 33.6894L26.4785 34.231L26.4813 33.043L27.4119 32.5021Z" fill="#2C5871"/>
<path d="M28.3877 33.0658L28.3843 34.2534L27.4082 33.689L27.4115 32.5017L28.3877 33.0658Z" fill="#2C5871"/>
<path d="M21.4984 32.5914L21.495 33.7794L20.5645 34.3197L20.5678 33.1323L21.4984 32.5914Z" fill="#2C5871"/>
<path d="M22.474 33.1556L22.4713 34.343L21.4951 33.7792L21.4985 32.5912L22.474 33.1556Z" fill="#2C5871"/>
<path d="M31.3386 33.0217L31.3352 34.209L30.4058 34.7493L30.4091 33.5626L31.3386 33.0217Z" fill="white"/>
<path d="M30.4094 33.5626L30.4061 34.7493L29.4321 34.188L29.4355 32.9999L30.4094 33.5626Z" fill="white"/>
<path d="M27.4574 33.6068L27.4541 34.7944L26.4785 34.2307L26.4813 33.0427L27.4574 33.6068Z" fill="white"/>
<path d="M28.3886 33.0659L27.4581 33.6068L26.4819 33.0427L27.4125 32.5018L28.3886 33.0659Z" fill="white"/>
<path d="M28.388 33.0659L28.3847 34.2535L27.4541 34.7944L27.4574 33.6068L28.388 33.0659Z" fill="white"/>
<path d="M21.5439 33.6967L21.5406 34.884L20.5645 34.3197L20.5678 33.1323L21.5439 33.6967Z" fill="white"/>
<path d="M22.4739 33.1558L22.4711 34.3431L21.5405 34.884L21.5439 33.6967L22.4739 33.1558Z" fill="white"/>
<path d="M28.8563 33.3366L28.8529 34.5239L27.9224 35.0648L27.9257 33.8775L28.8563 33.3366Z" fill="#2C5871"/>
<path d="M29.8303 33.8982L29.827 35.0856L28.853 34.5236L28.8564 33.3362L29.8303 33.8982Z" fill="#2C5871"/>
<path d="M25.8997 33.3806L25.8969 34.5686L24.9663 35.1096L24.9696 33.9216L25.8997 33.3806Z" fill="#2C5871"/>
<path d="M26.8759 33.945L26.8726 35.1324L25.897 34.5687L25.8998 33.3807L26.8759 33.945Z" fill="#2C5871"/>
<path d="M22.9428 33.4258L22.9384 34.6131L22.0078 35.154L22.0123 33.9667L22.9428 33.4258Z" fill="#2C5871"/>
<path d="M23.9191 33.9894L23.9157 35.1772L22.9385 34.6131L22.9429 33.4257L23.9191 33.9894Z" fill="#2C5871"/>
<path d="M18.6121 32.5992L15.7448 34.2651L9.50049 30.6607L12.3683 28.9948L18.6121 32.5992Z" fill="white"/>
<path d="M29.8299 33.8984L29.8266 35.0858L28.896 35.6266L28.8993 34.4393L29.8299 33.8984Z" fill="white"/>
<path d="M28.8996 34.4393L28.8963 35.6266L27.9224 35.0647L27.9257 33.8774L28.8996 34.4393Z" fill="white"/>
<path d="M29.8298 33.8985L28.8992 34.4394L27.9253 33.8774L28.8559 33.3365L29.8298 33.8985Z" fill="white"/>
<path d="M25.9464 34.486L25.9436 35.6727L24.9663 35.1096L24.9696 33.9216L25.9464 34.486Z" fill="white"/>
<path d="M26.8756 33.945L26.8723 35.1324L25.9434 35.6727L25.9461 34.486L26.8756 33.945Z" fill="white"/>
<path d="M22.9884 34.5306L22.9851 35.7179L22.0078 35.1542L22.0123 33.9668L22.9884 34.5306Z" fill="white"/>
<path d="M23.9193 33.9896L23.9159 35.1774L22.9854 35.7179L22.9887 34.5306L23.9193 33.9896Z" fill="white"/>
<path d="M27.3434 34.2145L27.3401 35.402L26.4106 35.9434L26.414 34.756L27.3434 34.2145Z" fill="#2C5871"/>
<path d="M28.3171 34.7768L28.3138 35.9646L27.3398 35.4021L27.3432 34.2146L28.3171 34.7768Z" fill="#2C5871"/>
<path d="M24.387 34.2596L24.3837 35.4469L23.4531 35.9878L23.4565 34.8005L24.387 34.2596Z" fill="#2C5871"/>
<path d="M25.3649 34.8237L25.3615 36.011L24.3843 35.4469L24.3876 34.2595L25.3649 34.8237Z" fill="#2C5871"/>
<path d="M27.3868 35.318L27.3835 36.5053L26.4106 35.9434L26.414 34.756L27.3868 35.318Z" fill="white"/>
<path d="M28.3177 34.7766L28.3144 35.9644L27.3838 36.5053L27.3871 35.318L28.3177 34.7766Z" fill="white"/>
<path d="M28.3174 34.7767L27.3869 35.3181L26.4141 34.756L27.3435 34.2145L28.3174 34.7767Z" fill="white"/>
<path d="M24.4337 35.3648L24.4304 36.5521L23.4531 35.9879L23.4565 34.8006L24.4337 35.3648Z" fill="white"/>
<path d="M25.3646 34.8239L25.3612 36.0112L24.4307 36.5521L24.434 35.3648L25.3646 34.8239Z" fill="white"/>
<path d="M25.3644 34.8239L24.4338 35.3649L23.4565 34.8007L24.3871 34.2598L25.3644 34.8239Z" fill="white"/>
<path d="M25.8324 35.0938L25.8296 36.2811L24.8979 36.822L24.9024 35.6342L25.8324 35.0938Z" fill="#2C5871"/>
<path d="M26.8052 35.6561L26.8024 36.8436L25.8296 36.2815L25.8324 35.0941L26.8052 35.6561Z" fill="#2C5871"/>
<path d="M26.8049 35.6558L26.8021 36.8434L25.8716 37.3843L25.8749 36.1963L26.8049 35.6558Z" fill="white"/>
<path d="M25.8752 36.1963L25.8719 37.3843L24.8979 36.8221L24.9024 35.6343L25.8752 36.1963Z" fill="white"/>
<path d="M26.8047 35.6558L25.8747 36.1963L24.9019 35.6343L25.8319 35.0938L26.8047 35.6558Z" fill="white"/>
<path d="M23.4908 38.2458L23.4881 39.4333C22.8755 39.7896 21.8743 39.7896 21.2578 39.4333L21.2612 38.2458C21.8776 38.6023 22.8788 38.6023 23.4908 38.2458Z" fill="#E8E8E8"/>
<path d="M34.7764 30.7796C34.7035 30.699 34.609 30.6239 34.4923 30.5568L15.8427 19.789L15.8393 20.9765L34.4039 31.6946L34.3261 31.7485L23.3189 38.1458C22.7974 38.448 21.9575 38.448 21.4327 38.1458L2.78365 27.3786C2.71305 27.3376 2.65302 27.2925 2.60077 27.2453C2.60188 26.9083 2.60298 26.502 2.60409 26.1863C2.49014 26.2519 2.39786 26.3253 2.32726 26.4036L2.24944 26.5014C2.18107 26.6065 2.14493 26.7172 2.14493 26.8277L2.1416 28.0151C2.1416 27.9046 2.17773 27.7938 2.2461 27.6894L2.32282 27.591L2.38508 27.5337L2.38396 28.013C2.38396 28.2131 2.51516 28.4131 2.78032 28.5656L21.4294 39.3325C21.9542 39.6354 22.7947 39.6354 23.3155 39.3325L34.3228 32.9365C34.5418 32.8086 34.668 32.6479 34.7013 32.4818V32.414C34.7013 32.3154 34.7013 32.2182 34.7024 32.1204V32.0438V31.9658V31.902L34.773 31.9665L34.8492 32.066C34.8503 31.6697 34.8525 31.2744 34.8536 30.8786L34.7764 30.7796Z" fill="white"/>
<path d="M34.8534 30.8788C34.8523 31.0994 34.8523 31.3196 34.8512 31.5403C34.8512 31.6275 34.8512 31.7148 34.8501 31.8032C34.8501 31.8705 34.8501 31.9378 34.8501 32.0045V32.0662C34.9196 32.1724 34.9546 32.2835 34.9535 32.3947L34.9563 31.2073C34.9574 31.0962 34.9229 30.9844 34.8534 30.8788Z" fill="white"/>
<path d="M21.2615 38.2459L21.2582 39.4335L2.60742 28.6659L2.61076 27.4783L21.2615 38.2459Z" fill="#E8E8E8"/>
<path d="M34.5001 31.8494L23.3183 38.3332C22.7029 38.5989 21.8235 38.5701 21.2621 38.2459L2.61134 27.4783C1.99152 27.1209 1.99151 26.5428 2.60466 26.1865L13.6119 19.7892C14.2256 19.4335 15.2229 19.4317 15.8432 19.7892L34.4929 30.557C35.1094 30.9133 35.1127 31.4931 34.5001 31.8494ZM36.8148 30.8087L15.3991 18.445C15.0211 18.2266 14.4101 18.2272 14.0344 18.445L0.282698 26.4366C-0.0930854 26.6558 -0.0886312 27.0081 0.289931 27.2259L21.7051 39.5902C22.0826 39.8087 22.6918 39.8102 23.0676 39.5913L27.9795 36.7374L34.4968 33.0361V32.9499L36.8193 31.6004C37.195 31.3819 37.1928 31.0277 36.8148 30.8087Z" fill="#00B2CC"/>
<path d="M15.5961 20.4284L14.6661 20.9689L13.6899 20.4056L14.6194 19.8643L15.5961 20.4284Z" fill="white"/>
<path d="M12.5718 22.1859L11.6412 22.7258L10.665 22.1627L11.5956 21.6218L12.5718 22.1859Z" fill="white"/>
<path d="M21.4987 32.5912L22.4743 33.1555L21.5443 33.6965L20.5682 33.1321L21.4987 32.5912ZM19.1273 32.3L20.0568 31.7595L21.0307 32.3217L20.1001 32.8619L19.1273 32.3ZM17.682 31.4662L18.6126 30.9246L19.5887 31.4889L18.6581 32.0298L17.682 31.4662ZM15.7453 34.2649L9.50092 30.6605L12.3688 28.9946L18.6126 32.599L15.7453 34.2649ZM9.95064 25.9244L10.9246 26.487L9.994 27.0272L9.02007 26.4653L9.95064 25.9244ZM7.57531 25.6308L8.50643 25.0901L9.48257 25.6542L8.552 26.1951L7.57531 25.6308ZM6.1311 24.7976L7.06167 24.2562L8.03892 24.8197L7.10835 25.3613L6.1311 24.7976ZM8.57425 23.3773L10.9952 24.7754L10.0646 25.3164L7.64368 23.9181L8.57425 23.3773ZM10.0863 22.4989L11.0624 23.0626L10.1319 23.6035L9.15571 23.0398L10.0863 22.4989ZM11.5955 21.6219L12.5717 22.186L11.6411 22.7258L10.6649 22.1627L11.5955 21.6219ZM13.1081 20.7428L14.0842 21.3072L13.1537 21.8474L12.1775 21.2838L13.1081 20.7428ZM14.6196 19.8641L15.5963 20.4282L14.6663 20.9687L13.6901 20.405L14.6196 19.8641ZM15.9971 22.4112L16.9699 22.9731L16.0393 23.5134L15.0665 22.9521L15.9971 22.4112ZM17.5085 21.5324L18.4825 22.0944L17.5519 22.6353L16.5791 22.0731L17.5085 21.5324ZM19.9261 22.9282L18.9961 23.4685L18.0233 22.9069L18.9533 22.3662L19.9261 22.9282ZM21.3714 23.7625L20.4409 24.3029L19.4647 23.7396L20.3953 23.1983L21.3714 23.7625ZM22.8168 24.5963L21.8862 25.1372L20.91 24.5735L21.8395 24.0326L22.8168 24.5963ZM24.1898 27.1419L23.2604 27.6821L22.2837 27.1185L23.2137 26.5775L24.1898 27.1419ZM24.7263 25.6992L25.7024 26.2629L24.7718 26.8034L23.7957 26.2401L24.7263 25.6992ZM27.1466 27.0967L26.2171 27.6377L25.2399 27.0739L26.1705 26.5326L27.1466 27.0967ZM28.588 27.9295L27.6591 28.4693L26.6852 27.9078L27.6152 27.3668L28.588 27.9295ZM30.0334 28.7629L29.1028 29.3036L28.1255 28.7401L29.0561 28.1992L30.0334 28.7629ZM31.4776 29.5978L30.547 30.1374L29.5708 29.5743L30.5014 29.0335L31.4776 29.5978ZM32.9223 30.4316L31.9918 30.9719L31.0162 30.4082L31.9462 29.8673L32.9223 30.4316ZM34.3632 31.2638L33.4337 31.804L32.4598 31.2427L33.3904 30.7011L34.3632 31.2638ZM31.9217 32.683L30.9478 32.1211L31.8778 31.5801L32.8517 32.1421L31.9217 32.683ZM30.4091 33.5625L29.4352 32.9998L30.3658 32.4594L31.3386 33.0215L30.4091 33.5625ZM28.8999 34.4391L27.926 33.8771L28.8565 33.3362L29.8304 33.8982L28.8999 34.4391ZM27.3873 35.3179L26.4145 34.7559L27.3439 34.2143L28.3179 34.7765L27.3873 35.3179ZM25.8753 36.1962L24.9025 35.6342L25.8325 35.0937L26.8053 35.6557L25.8753 36.1962ZM23.4571 34.8004L24.3877 34.2595L25.365 34.8236L24.4344 35.3646L23.4571 34.8004ZM23.0108 31.7124L23.9869 32.2765L23.0564 32.8174L22.0802 32.2533L23.0108 31.7124ZM20.706 29.7084L21.6366 29.1674L22.6133 29.7318L21.6833 30.272L20.706 29.7084ZM20.124 30.0465L21.1013 30.6099L20.1707 31.1509L19.1946 30.5867L20.124 30.0465ZM17.7493 29.7533L18.6798 29.212L19.6559 29.7761L18.7254 30.317L17.7493 29.7533ZM12.8363 27.5903L18.1445 30.6551L17.2139 31.196L11.9063 28.1319L12.8363 27.5903ZM12.3688 27.3202L11.4382 27.8618L10.4654 27.2991L11.396 26.7582L12.3688 27.3202ZM12.4371 25.6076L11.5066 26.1484L10.5327 25.5865L11.4632 25.0456L12.4371 25.6076ZM12.5066 23.8965L11.5761 24.438L10.5999 23.8737L11.5305 23.3323L12.5066 23.8965ZM14.0159 23.0198L13.0864 23.5601L12.1092 22.9966L13.0397 22.4557L14.0159 23.0198ZM13.6218 22.1182L14.5518 21.5767L15.5279 22.1411L14.5973 22.6813L13.6218 22.1182ZM14.5278 24.3924L13.5545 23.8309L14.4845 23.29L15.4573 23.8526L14.5278 24.3924ZM16.9015 24.686L15.9721 25.2263L14.9981 24.6647L15.9287 24.1238L16.9015 24.686ZM17.4846 24.3472L16.5107 23.7859L17.4413 23.245L18.4152 23.8076L17.4846 24.3472ZM18.9283 25.1817L17.9527 24.618L18.8827 24.0777L19.8589 24.6415L18.9283 25.1817ZM20.3736 26.0156L19.3964 25.4525L20.328 24.9116L21.3042 25.4758L20.3736 26.0156ZM20.8417 26.2864L21.7722 25.7454L22.7462 26.3074L21.8156 26.8477L20.8417 26.2864ZM20.1924 28.3336L21.1697 28.8973L20.2391 29.4382L19.2618 28.8745L20.1924 28.3336ZM17.8198 28.0424L18.7504 27.5009L19.7243 28.0635L18.7938 28.6044L17.8198 28.0424ZM17.2378 28.3798L18.2117 28.9418L17.2817 29.4832L16.3078 28.9208L17.2378 28.3798ZM15.7942 27.546L16.7703 28.1097L15.8409 28.6504L14.8636 28.0873L15.7942 27.546ZM14.3488 26.7122L15.3261 27.2759L14.3955 27.8166L13.4183 27.2524L14.3488 26.7122ZM13.8808 26.4421L12.9508 26.9823L11.978 26.4203L12.9069 25.8798L13.8808 26.4421ZM13.0192 25.2695L12.0452 24.7075L12.9752 24.1666L13.9481 24.7292L13.0192 25.2695ZM14.4628 26.104L13.4889 25.542L14.4194 25.0004L15.3934 25.563L14.4628 26.104ZM16.8376 26.3975L15.9081 26.9378L14.9309 26.3741L15.8614 25.8332L16.8376 26.3975ZM17.4174 26.0601L16.4401 25.497L17.3707 24.9561L18.3468 25.5203L17.4174 26.0601ZM18.2823 27.2314L17.3523 27.7723L16.3762 27.2079L17.3067 26.667L18.2823 27.2314ZM20.2597 26.6242L21.2325 27.1868L20.303 27.7271L19.3291 27.1652L20.2597 26.6242ZM18.861 26.8943L17.8854 26.3309L18.8154 25.7904L19.7916 26.3547L18.861 26.8943ZM21.7472 28.561L20.7711 27.9979L21.7016 27.457L22.6778 28.0207L21.7472 28.561ZM24.1214 28.8545L23.192 29.3948L22.2153 28.8311L23.1453 28.2902L24.1214 28.8545ZM24.7046 28.516L23.7273 27.9523L24.6579 27.412L25.6351 27.9758L24.7046 28.516ZM26.1454 29.3481L25.1726 28.7868L26.1032 28.2459L27.076 28.8078L26.1454 29.3481ZM27.5908 30.1819L26.6135 29.6189L27.5441 29.078L28.5208 29.6421L27.5908 30.1819ZM29.0344 31.0164L28.0583 30.4527L28.9888 29.9124L29.9661 30.4759L29.0344 31.0164ZM29.5036 31.2872L30.4342 30.7463L31.4103 31.3098L30.4797 31.8503L29.5036 31.2872ZM27.991 32.166L28.9216 31.6251L29.8977 32.1892L28.9671 32.7301L27.991 32.166ZM26.4818 33.0426L27.4123 32.5017L28.3885 33.0658L27.4579 33.6067L26.4818 33.0426ZM25.8997 33.3805L26.8759 33.9448L25.9464 34.4858L24.9697 33.9214L25.8997 33.3805ZM24.5233 30.8341L25.4995 31.3977L24.5689 31.9387L23.5928 31.3743L24.5233 30.8341ZM24.0542 30.5639L23.1247 31.1042L22.1508 30.5422L23.0814 30.0019L24.0542 30.5639ZM24.634 30.2275L23.66 29.6649L24.5906 29.1253L25.5634 29.6873L24.634 30.2275ZM26.0782 31.0614L25.102 30.4972L26.0315 29.9574L27.0087 30.5211L26.0782 31.0614ZM26.9443 32.2316L26.0143 32.7725L25.037 32.2088L25.9676 31.6679L26.9443 32.2316ZM26.5462 31.3315L27.4762 30.7912L28.4535 31.355L27.5229 31.8959L26.5462 31.3315ZM22.9891 34.5303L22.0129 33.9666L22.9435 33.4257L23.9197 33.9894L22.9891 34.5303ZM23.3193 38.1458L34.3265 31.7484C34.8429 31.4483 34.844 30.9591 34.3198 30.6566L15.6702 19.889C15.146 19.5867 14.2999 19.5867 13.7824 19.8875L2.77518 26.2846C2.25375 26.5871 2.26042 27.0757 2.78407 27.3786L21.4331 38.1458C21.9579 38.448 22.7979 38.448 23.3193 38.1458Z" fill="#2C5871"/>
<path d="M10.0825 23.5755L10.0858 22.4991L9.15527 23.0401L10.0825 23.5755Z" fill="#2C5871"/>
<path d="M9.77816 23.3999L10.0833 23.2226L10.0856 22.4992L9.155 23.0402L9.77816 23.3999ZM2.78336 27.3789L2.77113 27.3711L2.77002 27.4723L2.78336 27.4651V27.3789Z" fill="#E8E8E8"/>
<path d="M14.0835 21.3074L13.1529 21.8476L12.1768 21.2839L13.1073 20.743L14.0835 21.3074Z" fill="white"/>
<path d="M18.4825 22.0945L17.5519 22.6354L16.5791 22.0732L17.5086 21.5325L18.4825 22.0945Z" fill="white"/>
<path d="M11.062 23.0627L10.1314 23.6036L9.15527 23.0399L10.0858 22.499L11.062 23.0627Z" fill="white"/>
<path d="M22.8164 24.5964L21.8858 25.1373L20.9097 24.5736L21.8391 24.0327L22.8164 24.5964Z" fill="white"/>
<path d="M21.3033 25.4757L20.3728 26.0156L19.3955 25.4525L20.3272 24.9116L21.3033 25.4757Z" fill="white"/>
<path d="M25.7021 26.2628L24.7715 26.8033L23.7954 26.2401L24.726 25.6991L25.7021 26.2628Z" fill="white"/>
<path d="M13.8804 26.4423L12.9504 26.9825L11.9775 26.4205L12.9064 25.88L13.8804 26.4423Z" fill="white"/>
<path d="M10.9245 26.487L9.99394 27.0273L9.02002 26.4653L9.95058 25.9244L10.9245 26.487Z" fill="white"/>
<path d="M12.3687 27.3204L11.4381 27.8619L10.4653 27.2993L11.3959 26.7584L12.3687 27.3204Z" fill="white"/>
<path d="M16.77 28.1099L15.8405 28.6506L14.8633 28.0871L15.7938 27.5462L16.77 28.1099Z" fill="white"/>
<path d="M21.1691 28.8975L20.2385 29.4384L19.2612 28.8747L20.1918 28.3338L21.1691 28.8975Z" fill="white"/>
<path d="M31.477 29.5979L30.5465 30.1375L29.5703 29.5745L30.5009 29.0336L31.477 29.5979Z" fill="white"/>
<path d="M29.9659 30.476L29.0343 31.0165L28.0581 30.4528L28.9887 29.9125L29.9659 30.476Z" fill="white"/>
<path d="M27.0083 30.5211L26.0777 31.0613L25.1016 30.4972L26.031 29.9574L27.0083 30.5211Z" fill="white"/>
<path d="M18.144 30.6552L17.2134 31.1961L11.9058 28.132L12.8358 27.5904L18.144 30.6552Z" fill="white"/>
<path d="M28.4532 31.3551L27.5226 31.896L26.5459 31.3323L27.4759 30.7914L28.4532 31.3551Z" fill="white"/>
<path d="M25.4995 31.3978L24.5689 31.9387L23.5928 31.3743L24.5233 30.8341L25.4995 31.3978Z" fill="white"/>
<path d="M19.5884 31.489L18.6578 32.0299L17.6816 31.4662L18.6122 30.9246L19.5884 31.489Z" fill="white"/>
<path d="M26.9433 32.2316L26.0144 32.7726L25.0371 32.2089L25.9677 31.668L26.9433 32.2316Z" fill="white"/>
<path d="M23.9863 32.2769L23.0557 32.8177L22.0796 32.2536L23.0102 31.7127L23.9863 32.2769Z" fill="white"/>
<path d="M31.3384 33.0219L30.409 33.5628L29.4351 33.0001L30.3656 32.4597L31.3384 33.0219Z" fill="white"/>
<path d="M22.4745 33.1558L21.5445 33.6968L20.5684 33.1324L21.4989 32.5915L22.4745 33.1558Z" fill="white"/>
<path d="M26.8759 33.9449L25.9464 34.4858L24.9697 33.9215L25.8997 33.3806L26.8759 33.9449Z" fill="white"/>
<path d="M23.9194 33.9897L22.9888 34.5306L22.0127 33.9669L22.9433 33.426L23.9194 33.9897Z" fill="white"/>
<path d="M36.819 31.6003L23.0673 39.5913C22.6915 39.8101 22.0823 39.8086 21.7048 39.5902L0.289627 27.2259C0.0984002 27.1158 0.0022363 26.9708 0.00334809 26.8268L9.47698e-06 28.0142C-0.00110231 28.1588 0.0956164 28.3032 0.285176 28.4139L21.7015 40.7776C22.0789 40.9964 22.6882 40.9977 23.064 40.7791L36.8156 32.7877C37.0024 32.6793 37.0958 32.5368 37.0958 32.3946L37.0991 31.2073C37.0991 31.3495 37.0057 31.492 36.819 31.6003Z" fill="#006873"/>
<path d="M25.6991 22.3425C25.698 22.4847 25.7753 22.6469 25.8686 22.7003L24.8414 23.2974C24.748 23.2434 24.6724 23.0812 24.6724 22.9387C25.0142 22.7405 25.3561 22.5414 25.6991 22.3425Z" fill="#0F303F"/>
<path d="M25.7664 22.1779C25.7252 22.2007 25.6991 22.2595 25.6991 22.3425C25.3561 22.5414 25.0142 22.7405 24.6724 22.9387C24.6724 22.856 24.6991 22.7971 24.7396 22.7737C25.0476 22.5948 25.4584 22.3564 25.7664 22.1779Z" fill="#0F303F"/>
<path d="M24.7393 22.7736L25.766 22.1778L25.8694 22.1838L24.8421 22.7808L24.7393 22.7736Z" fill="#2C5871"/>
<path d="M24.8408 23.2974L25.8681 22.7003L27.6748 23.7437L26.6486 24.3401L24.8408 23.2974Z" fill="#0F303F"/>
<path d="M24.8423 22.7809L25.8696 22.184L27.6773 23.2274L26.65 23.8239L24.8423 22.7809Z" fill="#2C5871"/>
<path d="M27.6746 23.7437L27.7775 23.7497L26.7518 24.3463L26.6484 24.3401C26.9558 24.1612 27.3661 23.9232 27.6746 23.7437Z" fill="#0F303F"/>
<path d="M27.7783 23.7497L26.7527 24.3463C26.7938 24.3223 26.8199 24.2629 26.8199 24.1795C26.8211 24.0366 26.7438 23.8783 26.6504 23.8238L27.6777 23.2273C27.77 23.2807 27.8467 23.4403 27.8467 23.5825C27.8467 23.6659 27.82 23.7254 27.7783 23.7497Z" fill="#2C5871"/>
<path d="M14.9216 3.14788L15.9478 2.55085L15.91 15.9561L14.8838 16.5526L14.9216 3.14788Z" fill="#0F303F"/>
<path d="M25.8081 22.8604L26.8343 22.2635L37.6419 28.5027L36.6146 29.0992L25.8081 22.8604Z" fill="#0F303F"/>
<path d="M26.6502 23.8238C26.7436 23.8783 26.8209 24.0366 26.8198 24.1795C26.8198 24.3219 26.7414 24.394 26.6491 24.3402L24.8414 23.2974C24.748 23.2434 24.6724 23.0812 24.6724 22.9387C24.6729 22.7965 24.7502 22.727 24.8425 22.7808L26.6502 23.8238Z" fill="white"/>
<path d="M26.5584 7.94929C26.5584 8.11323 26.6724 8.31168 26.8147 8.39334C26.4728 8.59246 26.1298 8.79136 25.7885 8.98987C25.6462 8.90821 25.5311 8.71036 25.5322 8.54621C25.8747 8.34731 26.2165 8.14886 26.5584 7.94929Z" fill="#0F303F"/>
<path d="M26.8147 8.39318C26.8865 8.43443 26.9515 8.43877 26.9982 8.41164L25.9709 9.00856C25.9242 9.0353 25.8603 9.03202 25.7886 8.98971C26.1299 8.7912 26.4729 8.59231 26.8147 8.39318Z" fill="#0F303F"/>
<path d="M26.6334 7.78457C26.5867 7.81086 26.5584 7.86795 26.5584 7.94917C26.2165 8.14873 25.8747 8.34718 25.5322 8.54608C25.5322 8.46442 25.5606 8.40778 25.6073 8.38104C25.9147 8.20148 26.3249 7.96306 26.6334 7.78457Z" fill="#0F303F"/>
<path d="M25.6079 8.3812L26.6341 7.78473C26.6808 7.75694 26.7458 7.76149 26.8164 7.80252L25.7902 8.39905C25.7185 8.35797 25.6546 8.35408 25.6079 8.3812Z" fill="white"/>
<path d="M26.999 8.41163L25.9717 9.00854C26.0184 8.98142 26.0468 8.92477 26.0468 8.84311C26.0479 8.67896 25.9328 8.48111 25.7905 8.39884L26.8167 7.80231C26.9601 7.88464 27.0741 8.08243 27.0741 8.24658C27.0741 8.32758 27.0446 8.38555 26.999 8.41163Z" fill="white"/>
<path d="M36.6525 15.6951L37.6798 15.0981L37.642 28.5027L36.6147 29.0992L36.6525 15.6951Z" fill="#FDC63A"/>
<path d="M25.7901 8.39895C25.6478 8.31729 25.5327 8.38222 25.5327 8.54615C25.5316 8.7103 25.6467 8.90815 25.789 8.98981C25.9313 9.07275 26.0464 9.00759 26.0464 8.84322C26.0475 8.67906 25.9324 8.48122 25.7901 8.39895ZM26.6489 24.3402C26.7412 24.3941 26.8196 24.322 26.8196 24.1796C26.8207 24.0366 26.7434 23.8784 26.6501 23.8238L24.8423 22.7809C24.75 22.7271 24.6727 22.7966 24.6722 22.9388C24.6722 23.0812 24.7478 23.2434 24.8412 23.2975L26.6489 24.3402ZM36.615 29.0992L36.6528 15.695L25.8468 9.45514L14.9218 3.14799L14.884 16.5527L25.8084 22.8604L36.615 29.0992ZM36.4999 13.9967C36.8779 14.2158 37.1837 14.745 37.1825 15.1797L37.137 31.0854C37.1359 31.5197 36.829 31.6952 36.4499 31.4767L15.0352 19.1127C14.6561 18.8942 14.3509 18.3644 14.3521 17.9297L14.3976 2.02453C14.3988 1.58982 14.7062 1.41472 15.0836 1.63263L36.4999 13.9967Z" fill="#2C5871"/>
<path d="M36.6525 15.6951L36.6147 29.0992L25.8082 22.8604L14.8838 16.5528L14.9216 3.14802L25.8465 9.45518L36.6525 15.6951Z" fill="#FDC63A"/>
<path d="M14.8838 16.5529L15.91 15.9564L26.8344 22.2636L25.8082 22.8605L14.8838 16.5529Z" fill="#FDC63A"/>
<path d="M14.5972 1.58488C14.9396 1.38643 15.2815 1.18742 15.6234 0.988413C15.7484 0.916147 15.9208 0.926708 16.1109 1.03622L15.0836 1.63269C14.894 1.52318 14.7211 1.51262 14.5972 1.58488Z" fill="#0F303F"/>
<path d="M37.9632 30.9275C37.6219 31.1266 37.2789 31.3251 36.937 31.5247C37.061 31.4528 37.1366 31.3006 37.1366 31.0854L38.1639 30.4885C38.1628 30.7041 38.0866 30.8563 37.9632 30.9275Z" fill="#0F303F"/>
<path d="M14.9219 3.14805L15.948 2.55102L26.8724 8.85867L25.8468 9.4552L14.9219 3.14805Z" fill="#2C5871"/>
<path d="M25.7896 8.39884C25.9319 8.48112 26.047 8.67896 26.0459 8.84311C26.0459 9.00749 25.9308 9.07264 25.7885 8.9897C25.6462 8.90804 25.5311 8.7102 25.5322 8.54604C25.5322 8.38211 25.6473 8.31718 25.7896 8.39884Z" fill="white"/>
<path d="M25.8467 9.4553L26.8723 8.85877L37.6799 15.0982L36.6527 15.6952L25.8467 9.4553Z" fill="#2C5871"/>
<path d="M37.1823 15.1796L38.2085 14.5825L38.164 30.4884L37.1367 31.0853L37.1823 15.1796Z" fill="#0F303F"/>
<path d="M15.083 1.63242L16.1103 1.03595L37.5255 13.4L36.4993 13.9965L15.083 1.63242Z" fill="#0F303F"/>
<path d="M36.5 13.9967L37.5262 13.4002C37.9048 13.6193 38.211 14.1485 38.2088 14.5826L37.1826 15.1797C37.1837 14.745 36.878 14.2158 36.5 13.9967Z" fill="#0F303F"/>
<path d="M16.1206 4.87615L26.0055 10.5391V16.5644L16.1206 11.0995V4.87615Z" fill="white"/>
<path d="M27.0576 11.2826L35.1948 16.1153V21.6326L27.0576 17.1272V11.2826Z" fill="white"/>
<path d="M16.1206 12.5342L35.1949 23.1735V27.228L16.1206 16.4794V12.5342Z" fill="white"/>
</svg>
